<?xml version="1.0" encoding="UTF-8"?>
<svg id="Layer_1" data-name="Layer 1" xmlns="http://www.w3.org/2000/svg" viewBox="0 0 101 101">
  <rect x=".5" y=".5" width="100" height="100" style="fill: #fff; stroke: #000; stroke-miterlimit: 10;"/>
  <path d="m96,5v91H5V5h91m4.5-4.5H.5v100h100V.5h0Z"/>
  <g>
    <path d="m9,91.6h6.71c.99-2.41,2.52-6.37,3.5-8.82l.05-.15h13.97l4,9.38,6.86-.4c-1.53-3.01-3.36-7.07-4.79-10.23l-11.55-25.77-3.16.4c-1.09,2.86-2.32,5.72-4.19,9.93l-11.4,25.67Zm17.22-25.87l5.08,12.23h-10.17l5.08-12.23Z"/>
    <path d="m55.77,91.6c-.15-1.4-.2-5.31-.2-7.22v-20.86c0-1.96.05-5.97.2-7.42-1.63.2-4.89.25-6.86.25.25,2.41.35,8.87.35,12.08v11.08c0,3.26-.1,9.68-.35,12.08h6.86Z"/>
    <path d="m92,82.27c-3.06,2.86-6.37,4.71-10.91,4.71-6.61,0-11.79-4.66-11.79-13.14,0-7.37,4.98-12.88,12.09-12.88,3.36,0,6.61,1.3,8.93,3.21l1.43-5.62c-2.62-1.85-6.56-3.06-10.36-3.06-10.76,0-18.51,8.47-18.51,19.4,0,9.53,7.21,17.6,17.57,17.6,4.19,0,7.95-1.3,11.25-3.71l.3-6.52Z"/>
  </g>
</svg>