<svg xmlns="http://www.w3.org/2000/svg" width="92" height="92" viewBox="0 0 92 92">
    <g>
      <path d="M91,1V91H1V1H91m1-1H0V92H92V0Z" fill="currentColor"/>
      <g>
        <path d="M14.4448,56.0012l-1.14-2.54H9.6867l-.0362.0981c-.3193.7372-.6625,1.5828-.97,2.3425H7.3324l2.9181-6.2795c.478-1.0306.7973-1.7527,1.0668-2.4631l.32-.0869L14.58,53.3883c.3446.7606.8221,1.7542,1.2142,2.5138Zm-1.5936-3.5459L11.49,49.4025l-1.3485,3.0529Z" fill="currentColor"/>
        <path d="M23.6454,55.9885l-2.2077-3.4717H20.1014v1.62c0,.477.0108,1.4217.0484,1.765H18.7886c.0615-.5888.0855-2.1589.0855-2.9557v-2.711c0-.7846-.0239-2.3659-.0855-2.9547.4414,0,1.6917-.0484,2.2561-.0606,2.1589-.0371,3.3477,1.1527,3.3116,2.5129a2.6749,2.6749,0,0,1-1.803,2.5021l1.2518,1.84c.3306.4658,1.0057,1.41,1.2874,1.7532ZM20.1014,51.5H21.339a1.608,1.608,0,0,0,1.7541-1.6072c0-1.0546-.6376-1.6053-1.9251-1.6053-.393,0-.7362.0117-1.056.0352-.0108.246-.0108.5282-.0108.7113Z" fill="currentColor"/>
        <path d="M34.2431,48.3226c-.9447-.0117-1.7659-.0235-2.8576-.0235-.0131.2578-.0131.5756-.0131.7719v5.0662c0,.477.0131,1.4217.05,1.765H30.0615c.061-.5888.085-2.1589.085-2.9557V50.2857c0-.5029-.0117-1.3-.0366-1.9866-1.0917,0-1.95.0117-2.8937.0235a10.6738,10.6738,0,0,0,.0488-1.1151c1.1156.0362,2.1589.0615,3.4952.0615s2.4519-.0254,3.5816-.0615a7.828,7.828,0,0,0-.0986,1.1151" fill="currentColor"/>
        <path d="M8.6563,69.7807c.0624-.5859.0859-2.1467.0859-2.939V64.1464c0-.7811-.0235-2.3526-.0859-2.9385a11.9086,11.9086,0,0,0,1.3616-.0607c-.0366.3539-.0488,1.3283-.0488,1.8045v5.0731c0,.4627.0122,1.4151.0488,1.7559Z" fill="currentColor"/>
        <path d="M21.67,62.9514l-.0845,5.1464c0,.4757-.0127,1.4637.0235,1.8049l-.3183.0854-5.6292-6.427v4.4633c0,.4757.0117,1.4151.0488,1.7559H14.3614c.0737-.585.1347-2.1462.147-2.939l.0488-2.9376c.0127-.7811.0127-2.2326-.0488-2.8176L14.8393,61l5.6785,6.5241V64.1462c0-.7806-.0249-2.3526-.0981-2.9381a11.95,11.95,0,0,0,1.349-.06c-.0493.3534-.0864,1.3283-.0991,1.8035" fill="currentColor"/>
        <path d="M27.6333,70a4.8641,4.8641,0,0,1-2.4157-.7195l.0732-1.2928a4.0391,4.0391,0,0,0,2.4157.9141c.92,0,1.57-.4505,1.57-1.3539,0-1.705-3.7158-1.7914-3.7158-4.0362A2.5631,2.5631,0,0,1,28.2709,61a3.4308,3.4308,0,0,1,2.0115.635l-.4057,1.0729a2.8979,2.8979,0,0,0-1.6541-.61c-.8963,0-1.4353.4767-1.4353,1.2447,0,1.5244,3.7032,1.5972,3.7032,4.0362A2.6129,2.6129,0,0,1,27.6333,70" fill="currentColor"/>
        <path d="M40.2286,62.2439c-.9442-.0126-1.7654-.0233-2.8571-.0233-.0131.2554-.0131.5724-.0131.7675v5.0367c0,.4753.0131,1.4146.05,1.7559H36.0475c.061-.5855.085-2.1467.085-2.939V64.196c0-.5-.0117-1.2933-.0371-1.9754-1.0912,0-1.95.0107-2.8932.0233a10.5682,10.5682,0,0,0,.0484-1.1088c1.1161.036,2.1594.06,3.4956.06s2.4519-.0243,3.5811-.06a7.88,7.88,0,0,0-.0986,1.1088" fill="currentColor"/>
        <path d="M43.5542,69.7807c.0629-.5859.0864-2.1467.0864-2.939V64.1464c0-.7811-.0235-2.3526-.0864-2.9385a11.9037,11.9037,0,0,0,1.3616-.0607c-.0366.3539-.0488,1.3283-.0488,1.8045v5.0731c0,.4627.0122,1.4151.0488,1.7559Z" fill="currentColor"/>
        <path d="M55.0968,62.2439c-.9447-.0126-1.7659-.0233-2.8576-.0233-.0131.2554-.0131.5724-.0131.7675v5.0367c0,.4753.0131,1.4146.05,1.7559H50.9152c.061-.5855.085-2.1467.085-2.939V64.196c0-.5-.0117-1.2933-.0366-1.9754-1.0917,0-1.95.0107-2.8937.0233a10.5657,10.5657,0,0,0,.0488-1.1088c1.1156.036,2.1589.06,3.4952.06s2.4519-.0243,3.5816-.06a7.7411,7.7411,0,0,0-.0986,1.1088" fill="currentColor"/>
        <path d="M65.9152,61.2206l-2.7467,6.244c-.454,1.0355-.7484,1.7429-.9931,2.4492L61.8561,70,59.11,63.7324c-.332-.7685-.785-1.7564-1.1536-2.5011l1.349-.0966,2.6857,6.4028L63.6465,63.55c.2949-.72.6141-1.5612.8963-2.3293Z" fill="currentColor"/>
        <path d="M75.1641,62.2439c-.9447-.0126-1.7654-.0233-2.8576-.0233-.0127.2554-.0127.5724-.0127.7675v5.0367c0,.4753.0127,1.4146.05,1.7559H70.983c.061-.5855.085-2.1467.085-2.939V64.196c0-.5-.0117-1.2933-.0371-1.9754-1.0912,0-1.95.0107-2.8932.0233a10.5682,10.5682,0,0,0,.0484-1.1088c1.1156.036,2.1594.06,3.4956.06s2.4514-.0243,3.5811-.06a7.81,7.81,0,0,0-.0986,1.1088" fill="currentColor"/>
        <path d="M83.8255,69.8294c-.7367-.0486-1.6433-.0616-2.5148-.0616s-1.7908.0131-2.5138.0616c.061-.585.0859-2.1584.0859-2.9381V64.0733c0-.7918-.0249-2.3531-.0859-2.9381.7231.0359,1.557.06,2.4279.06s1.7044-.0238,2.4411-.06a7.5128,7.5128,0,0,0-.0991,1.085c-.7231-.0126-1.471-.0238-2.342-.0238-.3681,0-.7362,0-1.0917.0112-.0239.22-.0239.536-.0239.72v1.8414h2.98c-.0249.3039-.0371.6345-.0371,1.0005H80.1091v2.2555c0,.1821,0,.5122.0239.7307.3554,0,.7235.0126,1.0917.0126.9935,0,1.8523-.0126,2.6857-.036a9.6835,9.6835,0,0,0-.085,1.0972" fill="currentColor"/>
        <path d="M15.0339,83.18a4.4944,4.4944,0,0,1-2.8087.9808,4.2521,4.2521,0,0,1-4.2915-4.3051,4.5507,4.5507,0,0,1,4.5248-4.745,4.6039,4.6039,0,0,1,2.55.7719l-.3432,1.1283a3.7322,3.7322,0,0,0-2.281-.7968,3.2,3.2,0,0,0-3.1881,3.3848c0,2.2434,1.3738,3.4576,3.1017,3.4576A3.9253,3.9253,0,0,0,15.12,81.8184Z" fill="currentColor"/>
        <path d="M24.4175,83.94c.0732-.5893.0986-2.1589.0986-2.9566V79.9547H20.0152v2.22c0,.4653.0113,1.4231.0484,1.7659H18.7024c.061-.5893.0864-2.1589.0864-2.9566v-2.71c0-.7855-.0254-2.3659-.0864-2.9552a11.623,11.623,0,0,0,1.3612-.062c-.0371.3559-.0484,1.3367-.0484,1.8157v1.8767h4.5009v-.6752c0-.7855-.0254-2.3659-.0986-2.9552a12.2142,12.2142,0,0,0,1.386-.062c-.05.3559-.062,1.3367-.062,1.8157v5.1019c0,.4653.0122,1.4231.062,1.7659Z" fill="currentColor"/>
        <path d="M30.1961,83.94c.0629-.5893.0864-2.1589.0864-2.9566v-2.71c0-.7855-.0235-2.3659-.0864-2.9552a11.63,11.63,0,0,0,1.3621-.062c-.0366.3559-.0493,1.3367-.0493,1.8157v5.1019c0,.4653.0127,1.4231.0493,1.7659Z" fill="currentColor"/>
        <path d="M42.3391,83.18a4.4967,4.4967,0,0,1-2.8092.9808,4.252,4.252,0,0,1-4.291-4.3051,4.5507,4.5507,0,0,1,4.5248-4.745,4.6034,4.6034,0,0,1,2.55.7719L41.97,77.0109a3.7312,3.7312,0,0,0-2.281-.7968,3.2,3.2,0,0,0-3.1876,3.3848c0,2.2434,1.3738,3.4576,3.1017,3.4576a3.925,3.925,0,0,0,2.8214-1.2381Z" fill="currentColor"/>
        <path d="M51.9809,84.0387l-1.14-2.5392H47.2227l-.0362.0986c-.3193.7362-.6625,1.5818-.97,2.3425H44.868l2.9186-6.2795c.478-1.0306.7973-1.7527,1.0668-2.4641l.32-.0869,2.9425,6.3156c.3446.7616.8221,1.7542,1.2142,2.5148Zm-1.5936-3.5449L49.0257,77.44l-1.3485,3.0538Z" fill="currentColor"/>
        <path d="M61.9295,79.8921c.4892-.0066.7315-.0183,1.2705-.0465-.061.4658-.0432,1.6664-.0432,2.4641v.9437a5.13,5.13,0,0,1-3.0552.9076,4.38,4.38,0,0,1-4.4384-4.3051A4.6039,4.6039,0,0,1,60.335,75.11a5.2015,5.2015,0,0,1,2.7228.7724l-.3437,1.1278a4.2489,4.2489,0,0,0-2.4528-.7968,3.2132,3.2132,0,0,0-3.3355,3.3853,3.1653,3.1653,0,0,0,3.25,3.4576,3.6006,3.6006,0,0,0,1.7781-.3921V81.1687c0-.1845,0-.5151-.0239-.7357Z" fill="currentColor"/>
        <path d="M75.0908,79.4145a4.4672,4.4672,0,0,1-4.4276,4.7464,4.16,4.16,0,0,1-4.1821-4.3051A4.4659,4.4659,0,0,1,70.9088,75.11a4.1606,4.1606,0,0,1,4.1821,4.3042m-1.263.1972c0-2.1716-1.3255-3.4595-3.0547-3.4595-1.8143,0-3.0285,1.5955-3.0285,3.5078,0,2.1711,1.3236,3.4595,3.0533,3.4595,1.8156,0,3.03-1.595,3.03-3.5078" fill="currentColor"/>
      </g>
    </g>
</svg>
