<?xml version="1.0" encoding="UTF-8"?>
<svg id="Layer_2" data-name="Layer 2" xmlns="http://www.w3.org/2000/svg" xmlns:xlink="http://www.w3.org/1999/xlink" viewBox="0 0 800.21 237.1">
  <defs>
    <style>
      .cls-1 {
        fill: url(#linear-gradient);
      }

      .cls-2 {
        fill: #fff;
      }

      .cls-3 {
        fill: #a6a6a6;
      }
    </style>
    <linearGradient id="linear-gradient" x1="-558.68" y1="548.25" x2="-558.68" y2="584.3" gradientTransform="translate(13847.76 13243.92) scale(23.74 -23.72)" gradientUnits="userSpaceOnUse">
      <stop offset="0" stop-color="#1a1a1a" stop-opacity=".1"/>
      <stop offset=".12" stop-color="#212121" stop-opacity=".15"/>
      <stop offset=".31" stop-color="#353535" stop-opacity=".23"/>
      <stop offset=".53" stop-color="#575757" stop-opacity=".32"/>
      <stop offset=".78" stop-color="#858585" stop-opacity=".42"/>
      <stop offset="1" stop-color="#b3b3b3" stop-opacity=".51"/>
    </linearGradient>
  </defs>
  <g id="Layer_1-2" data-name="Layer 1">
    <g>
      <path class="cls-2" d="m794.9,209.11c0,12.54-10.17,22.71-22.71,22.71,0,0-.02,0-.02,0H28.05c-12.56.01-22.75-10.15-22.77-22.71V28.02c.02-12.56,10.2-22.73,22.77-22.74h744.11c12.56,0,22.74,10.18,22.74,22.73h0s0,181.1,0,181.1h0Z"/>
      <path class="cls-3" d="m772.17,237.1H28.05c-15.47,0-28.02-12.53-28.05-27.99V28.02C.02,12.55,12.57.01,28.05,0h744.11c15.47.02,28.02,12.55,28.05,28.02v181.09c.01,15.44-12.59,27.99-28.04,27.99h0Z"/>
      <path d="m794.9,209.11c0,12.54-10.17,22.71-22.71,22.71,0,0-.02,0-.02,0H28.05c-12.56.01-22.75-10.15-22.77-22.71V28.02c.02-12.56,10.2-22.73,22.77-22.74h744.11c12.56,0,22.74,10.18,22.74,22.73h0s0,181.1,0,181.1h0Z"/>
      <path class="cls-2" d="m178.68,117.3c-.17-19.11,15.65-28.41,16.37-28.84-8.96-13.06-22.85-14.85-27.73-14.99-11.67-1.23-22.98,6.98-28.92,6.98s-15.21-6.86-25.08-6.66c-12.69.2-24.56,7.54-31.08,18.95-13.44,23.26-3.42,57.44,9.46,76.24,6.44,9.21,13.97,19.49,23.82,19.13,9.64-.39,13.24-6.14,24.87-6.14s14.9,6.14,24.95,5.91c10.34-.16,16.86-9.25,23.07-18.54,7.44-10.55,10.43-20.95,10.55-21.48-.24-.08-20.08-7.66-20.28-30.56h0Zm-18.98-56.2c5.18-6.48,8.73-15.3,7.75-24.24-7.5.33-16.88,5.19-22.29,11.53-4.78,5.59-9.05,14.74-7.95,23.35,8.43.63,17.08-4.25,22.49-10.63Z"/>
      <path class="cls-1" d="m772.17,0h-398.57l156.11,237.1h242.46c15.47-.01,28.02-12.54,28.05-28.01V28.02c-.03-15.47-12.57-28-28.05-28.02Z"/>
      <path class="cls-2" d="m318.27,186.79h-13.47l-7.38-23.18h-25.64l-7.03,23.18h-13.11l25.41-78.9h15.69l25.53,78.9h0Zm-23.07-32.9l-6.67-20.6c-.71-2.1-2.03-7.06-3.98-14.86h-.24c-.78,3.36-2.03,8.31-3.75,14.86l-6.56,20.6h21.2Zm88.3,3.75c0,9.68-2.63,17.32-7.89,22.94-4.71,5-10.56,7.49-17.54,7.49-7.54,0-12.96-2.69-16.25-8.07v29.85h-12.64v-61.27c0-6.08-.16-12.31-.47-18.7h11.12l.71,9.02h.24c4.22-6.79,10.62-10.19,19.2-10.19,6.71,0,12.32,2.65,16.8,7.96,4.48,5.32,6.73,12.3,6.73,20.97h0Zm-12.88.46c0-5.54-1.25-10.1-3.75-13.7-2.73-3.74-6.41-5.61-11.01-5.61-3.12,0-5.95,1.04-8.49,3.1-2.54,2.08-4.2,4.78-4.98,8.14-.35,1.26-.54,2.55-.59,3.85v9.49c0,4.13,1.27,7.62,3.81,10.48,2.54,2.85,5.84,4.27,9.89,4.27,4.76,0,8.47-1.84,11.12-5.5,2.66-3.67,3.99-8.51,3.99-14.52Zm78.34-.46c0,9.68-2.63,17.32-7.89,22.94-4.71,5-10.56,7.49-17.55,7.49-7.54,0-12.96-2.69-16.25-8.07v29.85h-12.64v-61.27c0-6.08-.16-12.31-.47-18.7h11.12l.71,9.02h.24c4.21-6.79,10.61-10.19,19.2-10.19,6.71,0,12.31,2.65,16.81,7.96,4.47,5.32,6.73,12.3,6.73,20.97h0Zm-12.89.46c0-5.54-1.25-10.1-3.75-13.7-2.73-3.74-6.39-5.61-11-5.61-3.12,0-5.95,1.04-8.5,3.1-2.54,2.08-4.19,4.78-4.97,8.14-.39,1.57-.59,2.84-.59,3.85v9.49c0,4.13,1.28,7.62,3.8,10.48,2.54,2.84,5.84,4.27,9.9,4.27,4.77,0,8.47-1.84,11.12-5.5,2.66-3.67,3.99-8.51,3.99-14.52Zm86.07,6.55c0,6.72-2.35,12.18-7.02,16.39-5.14,4.6-12.31,6.91-21.5,6.91-8.49,0-15.3-1.64-20.44-4.92l2.92-10.54c5.55,3.28,11.64,4.92,18.27,4.92,4.77,0,8.47-1.08,11.12-3.22,2.65-2.15,3.99-5.02,3.99-8.6,0-3.21-1.11-5.89-3.29-8.08-2.19-2.18-5.81-4.22-10.89-6.08-13.82-5.15-20.73-12.69-20.73-22.6,0-6.47,2.44-11.78,7.32-15.92,4.88-4.14,11.34-6.21,19.38-6.21,7.18,0,13.17,1.25,17.92,3.75l-3.17,10.3c-4.47-2.42-9.52-3.63-15.16-3.63-4.46,0-7.96,1.1-10.46,3.28-2.11,1.95-3.17,4.33-3.17,7.15,0,3.11,1.22,5.7,3.64,7.73,2.1,1.87,5.93,3.9,11.47,6.08,6.8,2.74,11.79,5.93,14.99,9.59,3.22,3.66,4.82,8.24,4.82,13.68h0Zm41.91-25.28h-13.94v27.62c0,7.03,2.46,10.53,7.38,10.53,2.26,0,4.13-.19,5.62-.59l.35,9.6c-2.49.93-5.77,1.4-9.83,1.4-4.99,0-8.9-1.52-11.71-4.57-2.81-3.05-4.22-8.15-4.22-15.34v-28.68h-8.3v-9.49h8.3v-10.42l12.42-3.75v14.16h13.94v9.51h0Zm62.76,18.49c0,8.75-2.5,15.93-7.5,21.54-5.22,5.78-12.18,8.66-20.84,8.66s-15.01-2.77-19.97-8.3c-4.96-5.54-7.44-12.53-7.44-20.95s2.56-16.04,7.67-21.65c5.12-5.62,12.01-8.43,20.67-8.43s15.06,2.77,20.13,8.31c4.85,5.37,7.27,12.31,7.27,20.82h0Zm-13.11.29c0-5.21-1.13-9.68-3.39-13.42-2.65-4.52-6.45-6.78-11.36-6.78s-8.95,2.26-11.59,6.78c-2.27,3.74-3.39,8.29-3.39,13.66s1.13,9.7,3.39,13.43c2.73,4.52,6.55,6.78,11.49,6.78s8.62-2.31,11.36-6.89c2.32-3.83,3.49-8.33,3.49-13.55h0Zm54.22-17.15c-1.32-.24-2.65-.35-3.99-.35-4.45,0-7.89,1.67-10.31,5.04-2.1,2.96-3.16,6.71-3.16,11.24v29.85h-12.64v-38.98c.01-5.97-.11-11.94-.37-17.91h11.01l.46,10.89h.35c1.34-3.74,3.44-6.76,6.32-9.02,2.64-1.97,5.84-3.04,9.14-3.05,1.17,0,2.22.08,3.16.23v12.06s.01,0,.01,0Zm56.55,14.64c.03,1.92-.12,3.84-.46,5.73h-37.93c.14,5.62,1.98,9.93,5.5,12.89,3.2,2.64,7.33,3.97,12.41,3.97,5.62,0,10.74-.89,15.35-2.69l1.98,8.77c-5.39,2.35-11.74,3.52-19.08,3.52-8.82,0-15.75-2.6-20.79-7.78-5.03-5.19-7.55-12.16-7.55-20.89s2.34-15.72,7.03-21.42c4.91-6.08,11.55-9.12,19.9-9.12s14.41,3.04,18.63,9.12c3.34,4.82,5.02,10.8,5.02,17.89h0Zm-12.06-3.28c.09-3.75-.74-6.98-2.46-9.72-2.19-3.52-5.56-5.28-10.07-5.28-4.13,0-7.5,1.71-10.06,5.15-2.11,2.73-3.36,6.02-3.74,9.83h26.33s0,.01,0,.01Z"/>
      <path class="cls-2" d="m268.13,79.99c-3.52,0-6.56-.17-9.09-.46v-38.15c3.54-.55,7.12-.82,10.7-.81,14.5,0,21.18,7.13,21.18,18.76,0,13.41-7.89,20.66-22.79,20.66Zm2.12-34.53c-1.96,0-3.62.12-5.01.4v29c.75.12,2.18.17,4.2.17,9.5,0,14.91-5.41,14.91-15.53,0-9.03-4.89-14.04-14.1-14.04Zm41.48,34.82c-8.17,0-13.47-6.1-13.47-14.38s5.41-14.79,13.93-14.79c8.05,0,13.47,5.81,13.47,14.33s-5.58,14.84-13.93,14.84Zm.24-24.63c-4.49,0-7.37,4.2-7.37,10.07s2.94,9.96,7.31,9.96,7.31-4.49,7.31-10.07-2.88-9.95-7.25-9.95h0Zm60.3-3.97l-8.75,27.96h-5.7l-3.62-12.14c-.9-2.97-1.65-5.98-2.25-9.03h-.12c-.46,3.05-1.32,6.1-2.24,9.03l-3.85,12.14h-5.76l-8.23-27.96h6.39l3.17,13.29c.75,3.17,1.38,6.15,1.9,8.98h.12c.46-2.35,1.2-5.29,2.3-8.92l3.97-13.35h5.06l3.8,13.06c.92,3.17,1.67,6.27,2.25,9.21h.17c.4-2.88,1.04-5.93,1.9-9.21l3.4-13.06h6.1Zm32.2,27.96h-6.22v-16.06c0-4.94-1.9-7.42-5.64-7.42s-6.22,3.17-6.22,6.85v16.63h-6.22v-19.97c0-2.47-.06-5.12-.23-8h5.47l.29,4.32h.17c1.67-2.99,5.06-4.89,8.87-4.89,5.87,0,9.73,4.49,9.73,11.79v16.74s0,0,0,0Zm17.14,0h-6.22v-40.79h6.22v40.79Zm22.66.63c-8.17,0-13.47-6.1-13.47-14.38s5.41-14.79,13.93-14.79c8.06,0,13.47,5.81,13.47,14.33,0,8.74-5.58,14.84-13.93,14.84Zm.23-24.63c-4.49,0-7.37,4.2-7.37,10.07s2.94,9.96,7.3,9.96,7.31-4.49,7.31-10.07c0-5.69-2.86-9.95-7.24-9.95h0Zm38.2,24l-.45-3.22h-.17c-1.9,2.59-4.67,3.85-8.18,3.85-5.01,0-8.57-3.51-8.57-8.23,0-6.9,5.98-10.47,16.35-10.47v-.52c0-3.68-1.95-5.53-5.81-5.53-2.76,0-5.18.69-7.31,2.08l-1.26-4.09c2.59-1.61,5.81-2.42,9.6-2.42,7.31,0,11,3.85,11,11.57v10.3c0,2.82.12,5.01.4,6.68h-5.6s0,0,0,0Zm-.85-13.93c-6.9,0-10.37,1.67-10.37,5.64,0,2.93,1.79,4.37,4.26,4.37,3.16,0,6.1-2.41,6.1-5.69v-4.32Zm36.24,13.93l-.29-4.49h-.17c-1.79,3.39-4.79,5.12-8.98,5.12-6.74,0-11.74-5.93-11.74-14.27s5.18-14.91,12.25-14.91c3.74,0,6.39,1.26,7.89,3.8h.12v-16.05h6.22v33.26c0,2.7.07,5.24.23,7.54h-5.53Zm-.92-16.45c0-3.91-2.59-7.25-6.55-7.25-4.61,0-7.43,4.09-7.43,9.84s2.92,9.5,7.3,9.5c3.91,0,6.67-3.4,6.67-7.42v-4.66h0Zm45.67,17.09c-8.17,0-13.46-6.1-13.46-14.38s5.41-14.79,13.93-14.79c8.06,0,13.47,5.81,13.47,14.33,0,8.74-5.57,14.84-13.93,14.84h0Zm.23-24.63c-4.48,0-7.36,4.2-7.36,10.07s2.94,9.96,7.3,9.96,7.31-4.49,7.31-10.07c.01-5.69-2.86-9.95-7.25-9.95h0Zm47.13,24h-6.22v-16.06c0-4.94-1.9-7.42-5.64-7.42s-6.21,3.17-6.21,6.85v16.63h-6.22v-19.97c0-2.47-.06-5.12-.23-8h5.47l.29,4.32h.17c1.67-2.99,5.06-4.89,8.86-4.89,5.87,0,9.73,4.49,9.73,11.79v16.75Zm41.82-23.3h-6.84v13.58c0,3.46,1.2,5.18,3.62,5.18,1.1,0,2.02-.12,2.76-.29l.17,4.72c-1.2.46-2.82.69-4.82.69-4.9,0-7.83-2.7-7.83-9.78v-14.1h-4.08v-4.66h4.08v-5.12l6.1-1.84v6.96h6.84v4.67h0Zm32.9,23.3h-6.21v-15.94c0-5-1.89-7.54-5.64-7.54-3.22,0-6.22,2.19-6.22,6.62v16.86h-6.21v-40.79h6.21v16.8h.12c1.96-3.05,4.79-4.55,8.41-4.55,5.92,0,9.54,4.6,9.54,11.91v16.63h0Zm33.71-12.49h-18.65c.12,5.29,3.62,8.28,8.81,8.28,2.76,0,5.3-.46,7.54-1.32l.97,4.32c-2.65,1.15-5.76,1.73-9.38,1.73-8.75,0-13.93-5.53-13.93-14.09s5.3-15.02,13.23-15.02c7.15,0,11.63,5.29,11.63,13.29.04.94-.03,1.89-.21,2.82h0Zm-5.7-4.43c0-4.32-2.18-7.36-6.15-7.36-3.57,0-6.39,3.11-6.8,7.36h12.95Z"/>
    </g>
  </g>
</svg>