<?xml version="1.0" encoding="utf-8"?><!DOCTYPE svg PUBLIC "-//W3C//DTD SVG 1.1//EN" "http://www.w3.org/Graphics/SVG/1.1/DTD/svg11.dtd"><svg xmlns="http://www.w3.org/2000/svg" xmlns:xlink="http://www.w3.org/1999/xlink"><symbol viewBox="0 0 16 16" id="icon--alert" xmlns="http://www.w3.org/2000/svg"><path d="M8 1L0 15h16zm1 12H7v-2h2zm-2-3V6h2v4z" fill="currentColor"/></symbol><symbol viewBox="0 0 16 16" id="icon--arrow" xmlns="http://www.w3.org/2000/svg"><path d="M6 3.393C7.368 5.273 8.388 6.637 9.265 8 8.388 9.363 7.368 10.727 6 12.607l.857.393C8.449 11.243 9.816 9.736 11 8.207v-.414C9.816 6.264 8.449 4.757 6.857 3z" fill="currentColor"/></symbol><symbol viewBox="0 0 24 24" id="icon--arrow--24" xmlns="http://www.w3.org/2000/svg"><path d="M9 5.55c1.915 2.632 3.343 4.542 4.57 6.45-1.227 1.908-2.655 3.817-4.57 6.45l1.2.55c2.229-2.46 4.143-4.57 5.8-6.71v-.58C14.342 9.57 12.429 7.46 10.2 5z" fill="currentColor"/></symbol><symbol id="icon--audio" viewBox="0 0 16 16" xmlns="http://www.w3.org/2000/svg"><defs><style>.adcls-1{fill:currentColor}</style></defs><path class="adcls-1" d="M8 14.38a.42.42 0 01-.26-.1l-4.7-4H.52a.4.4 0 01-.4-.4V6.34A.39.39 0 01.52 6H3l4.74-3.9a.38.38 0 01.42 0 .41.41 0 01.23.36V14a.4.4 0 01-.24.36.47.47 0 01-.15.02zM1 9.44h2.15a.35.35 0 01.25.1l4.16 3.57V3.2L3.37 6.65a.43.43 0 01-.26.09H.92zM10.65 12.36a.4.4 0 01-.33-.17.41.41 0 01.11-.56 4.2 4.2 0 001.76-3.51 4.22 4.22 0 00-1.81-3.54.41.41 0 01-.11-.58.4.4 0 01.55-.11A5 5 0 0113 8.12a5 5 0 01-2.11 4.17.39.39 0 01-.24.07z"/><path class="adcls-1" d="M12.35 14.89a.39.39 0 01-.32-.16.4.4 0 01.07-.56 7.57 7.57 0 000-12.07.4.4 0 01.48-.64 8.38 8.38 0 01.05 13.35.46.46 0 01-.28.08z"/></symbol><symbol viewBox="0 0 16 16" id="icon--calendar" xmlns="http://www.w3.org/2000/svg"><path fill="currentColor" d="M4 1h1v2H4zM11 1h1v2h-1zM2 3v10a1 1 0 001 1h10a1 1 0 001-1V3zm10 9H4V6h8z"/></symbol><symbol viewBox="0 0 24 24" id="icon--calendar--24" xmlns="http://www.w3.org/2000/svg"><path fill="currentColor" d="M17 7V4h-1v3H8V4H7v3H5v11a1 1 0 001 1h12a1 1 0 001-1V7zm1 11H6v-6h12z"/></symbol><symbol viewBox="0 0 200 200" id="icon--caution" xmlns="http://www.w3.org/2000/svg"><path d="M100.5 15L6 180.37h189zm11.81 141.75H88.69v-23.63h23.62zm-23.62-35.44V74.06h23.62v47.25z"/></symbol><symbol viewBox="0 0 16 16" id="icon--check" xmlns="http://www.w3.org/2000/svg"><path fill="none" stroke="currentColor" stroke-linecap="square" stroke-miterlimit="10" stroke-width="1.5" d="M3 8l3 3 7-7"/></symbol><symbol viewBox="0 0 16 16" id="icon--circle" xmlns="http://www.w3.org/2000/svg"><circle r="8" cy="8" cx="8" fill="currentColor"/></symbol><symbol viewBox="0 0 16 16" id="icon--clock" xmlns="http://www.w3.org/2000/svg"><path d="M8 1a7 7 0 107 7 7 7 0 00-7-7zm4 7.5L7 9l.5-6h1l.41 4.11L12 7.5z" fill="currentColor"/></symbol><symbol viewBox="0 0 16 16" id="icon--close" xmlns="http://www.w3.org/2000/svg"><path fill="none" stroke="currentColor" stroke-miterlimit="10" stroke-width="1.5" d="M3 3l10 10M13 3L3 13"/></symbol><symbol viewBox="0 0 24 24" id="icon--close--24" xmlns="http://www.w3.org/2000/svg"><path fill="none" d="M-1120-1228H280v2440h-1400z"/><g fill="none" stroke="currentColor" stroke-miterlimit="10" stroke-width="1.4"><path d="M5 5l14 14M19 5L5 19"/></g></symbol><symbol viewBox="0 0 16 16" id="icon--close-circle" xmlns="http://www.w3.org/2000/svg"><path d="M8 1a7 7 0 107 7 7 7 0 00-7-7zm3.53 9.47l-1.06 1.06L8 9.06l-2.47 2.47-1.06-1.06L6.94 8 4.47 5.53l1.06-1.06L8 6.94l2.47-2.47 1.06 1.06L9.06 8z" fill="currentColor"/></symbol><symbol viewBox="0 0 16 16" id="icon--close-dark" xmlns="http://www.w3.org/2000/svg"><path fill="none" stroke="currentColor" stroke-linecap="square" stroke-miterlimit="10" stroke-width="2" d="M3 13l5-5-5-5M13 13L8 8l5-5"/></symbol><symbol fill="none" viewBox="0 0 34 22" id="icon--closer-look" xmlns="http://www.w3.org/2000/svg"><path fill-rule="evenodd" clip-rule="evenodd" d="M23 11a6 6 0 11-12 0 6 6 0 0112 0zm-1 0a5 5 0 11-10 0 5 5 0 0110 0z" fill="#fff"/><path fill-rule="evenodd" clip-rule="evenodd" d="M17 0c9.769 0 17 11 17 11s-7.195 11-17 11C6.172 22 0 11 0 11S7.383 0 17 0zM1.943 12.132a23.135 23.135 0 01-.745-1.089 33.851 33.851 0 014.365-4.8C8.547 3.55 12.563 1 17 1c4.515 0 8.53 2.553 11.491 5.24a32.828 32.828 0 014.288 4.761 32.585 32.585 0 01-4.274 4.759C25.548 18.447 21.532 21 17 21c-5.059 0-9.074-2.569-11.872-5.225a26.67 26.67 0 01-3.185-3.643z" fill="#fff"/></symbol><symbol fill="none" viewBox="0 0 44 44" id="icon--closer_look" xmlns="http://www.w3.org/2000/svg"><path d="M5.5 22.01l-.838-.546-.326.5.286.524.878-.479zm33 0l.844.536.341-.538-.342-.536-.843.537zM22 10c-5.05 0-9.413 2.964-12.432 5.773a35.46 35.46 0 00-4.557 5.184 20.214 20.214 0 00-.323.467l-.018.028-.006.008-.001.002v.001l.837.546.838.546.003-.004.013-.02.056-.083a29.466 29.466 0 011.14-1.537 33.458 33.458 0 013.38-3.674C13.83 14.54 17.717 12 22 12v-2zM5.5 22.01l-.878.479.002.003.005.009a8.902 8.902 0 00.075.131c.05.088.124.214.221.372.195.317.481.764.858 1.298A28.427 28.427 0 009.11 28.22C12.017 31.06 16.38 34 22 34v-2c-4.889 0-8.776-2.556-11.492-5.21a26.418 26.418 0 01-3.09-3.64 22.687 22.687 0 01-.982-1.517 6.671 6.671 0 01-.056-.1l-.002-.003-.878.48zM22 34c5.138 0 9.5-2.956 12.502-5.765a34.191 34.191 0 004.5-5.181 19.77 19.77 0 00.316-.468l.018-.028.005-.008.002-.003c0-.001.001-.001-.843-.538a218.6 218.6 0 01-.844-.536l-.002.004a3.276 3.276 0 01-.068.102 28.133 28.133 0 01-1.115 1.532c-.78 1.002-1.915 2.334-3.336 3.664C30.266 29.46 26.378 32 22 32v2zm16.5-11.99l.843-.539-.002-.003-.005-.008-.018-.028a13.854 13.854 0 00-.319-.469 34.463 34.463 0 00-4.51-5.189C31.484 12.962 27.122 10 22 10v2c4.36 0 8.247 2.543 11.122 5.235a32.449 32.449 0 014.238 4.874 18.031 18.031 0 01.294.434l.003.004.843-.538z" fill="currentColor"/><circle cx="22" cy="22" r="5" stroke="currentColor"/></symbol><symbol viewBox="0 0 24 24" id="icon--download--24" xmlns="http://www.w3.org/2000/svg"><path d="M14 5v6h2.586L12 15.586 7.414 11H10V5h4m1-1H9v6H6v1l6 6 6-6v-1h-3V4zM6 19h12v1H6z" fill="currentColor"/></symbol><symbol viewBox="0 0 200 200" id="icon--face-coverings" xmlns="http://www.w3.org/2000/svg"><path fill="none" stroke="currentColor" stroke-width="4" stroke-miterlimit="10" d="M43.6 68.9c-7.8.9-13.3 8-12.4 15.8.9 7.1 6.9 12.5 14.1 12.5h.2c4.8 20.8 16.6 37.8 32.1 46.5 0 0 .1 30.5-20.2 40.6 0 0 42.5 26.3 87.1 0 0 0-24.4-10.9-18.3-41.9 14.4-9 25.4-25.4 29.9-45.3 7.2-.7 12.7-6.8 12.7-14.1 0-6.7-6.6-12.2-12.8-13.8"/><path fill="none" stroke="currentColor" stroke-width="4" stroke-miterlimit="10" d="M42.3 68.8s52.7-1 72.9-25.3c0 0 14.2 28.4 40.5 26.3 0 0 9.4-65.7-53-65.7 0 .1-60.4-4.1-60.4 64.7z"/><path d="M62.5 94.2v34.6s2 20.1 38.5 20.1 36.5-20.3 36.5-20.3V94.2s-20.3 6.1-36.5-6.1c-11.7 6.4-25.3 8.5-38.5 6.1z"/><path fill="none" stroke="currentColor" stroke-width="4" stroke-miterlimit="10" d="M66.3 99.2S48.3 82 44.2 69.8M132.6 100s21.1-16 25.1-30.2"/><path fill="none" stroke="#fff" stroke-width="4" stroke-miterlimit="10" d="M72.6 108.3h54.7M72.6 118.5h54.7M72.6 128.6h54.7"/><circle cx="77.7" cy="78.9" r="4.1"/><circle cx="122.3" cy="78.9" r="4.1"/></symbol><symbol viewBox="0 0 24 24" id="icon--filter--24" xmlns="http://www.w3.org/2000/svg"><path fill="currentColor" d="M16 8h4v1h-4zM4 8h9v1H4z"/><circle cx="14.5" cy="8.5" r="2" fill="none" stroke="currentColor" stroke-miterlimit="10"/><path fill="currentColor" d="M8 16H4v-1h4zM20 16h-9v-1h9z"/><circle cx="9.5" cy="15.5" r="2" fill="none" stroke="currentColor" stroke-miterlimit="10"/></symbol><symbol viewBox="0 0 200 200" id="icon--floor-icon" xmlns="http://www.w3.org/2000/svg"><path d="M100 8a92 92 0 1092 92 92 92 0 00-92-92zm41.05 103.2l-34.48-34.5v71.62H93.43V76.69L59 111.19V92.75l41-41.07 41.06 41.08z"/></symbol><symbol viewBox="0 0 120 92" id="icon--footer_map_120x92" xmlns="http://www.w3.org/2000/svg"><path fill="none" d="M-720-1428H680v2440H-720z"/><path fill="#8e847d" d="M0 0h120v92H0z"/><g fill="#333"><path d="M42 0h6v92h-6z"/><path d="M0 86.287v-6.005l44.208-1.716L120 77.033v6l-75.615 1.53L0 86.287zM0 50.162V47.16l45.313-1.125.075 3L0 50.162zM0 13.56v-3.002l120-3.032v3.002L0 13.56z"/><path d="M7.999 92L6.008 0h3.001l1.992 92H7.999zM74 11h1v81h-1zM77 11h1v81h-1zM80 11h1v81h-1zM83 11h1v81h-1z"/><path d="M74 41h9v1h-9zM74 70h9v1h-9zM60 34a7.072 7.072 0 00-7 7.143C53 45.905 60 54 60 54s7-8.095 7-12.857A7.072 7.072 0 0060 34zm0 10a3 3 0 113-3 3 3 0 01-3 3z"/></g></symbol><symbol viewBox="0 0 16 16" id="icon--info" xmlns="http://www.w3.org/2000/svg"><path d="M8 1a7 7 0 107 7 7 7 0 00-7-7zm-.13 10.85c.34 0 .84-.57 1.19-1 .07 0 .19.1.21.18s0 .16-.12.33C8.62 12 7.63 13 6.75 13a.72.72 0 01-.75-.79 5.82 5.82 0 01.54-1.89l.78-1.91a3.54 3.54 0 00.3-1 .22.22 0 00-.22-.24c-.31 0-.75.57-1 .91C6.28 8 6.17 8 6.16 7.9s0-.16.1-.34c.57-.75 1.52-1.69 2.34-1.69a.7.7 0 01.75.76 5.06 5.06 0 01-.46 1.58l-.94 2.28a3.63 3.63 0 00-.33 1.09.25.25 0 00.25.27zm1.5-7.06A.77.77 0 018.59 4a.93.93 0 01.91-1 .78.78 0 01.81.82.94.94 0 01-.93.97z" fill="currentColor"/></symbol><symbol viewBox="0 0 24 24" id="icon--info--24" xmlns="http://www.w3.org/2000/svg"><path d="M12 3a9 9 0 11-9 9 9 9 0 019-9m0-1a10 10 0 1010 10A10 10 0 0012 2z" fill="currentColor"/><path d="M12.92 12l-1 2.38a3.78 3.78 0 00-.34 1.14.26.26 0 00.26.28c.36 0 .87-.59 1.25-1 .08 0 .2.11.22.19s0 .17-.12.34c-.56.64-1.59 1.71-2.51 1.71a.76.76 0 01-.81-.82 6.08 6.08 0 01.56-2l.81-2a3.69 3.69 0 00.31-1.07.22.22 0 00-.23-.25c-.33 0-.78.59-1.06.95-.08 0-.19-.09-.2-.16s0-.17.11-.36c.59-.78 1.59-1.76 2.44-1.76a.73.73 0 01.78.79 5.28 5.28 0 01-.47 1.64zM13.43 8.43a.8.8 0 01-.82-.86 1 1 0 01.95-1 .81.81 0 01.84.86 1 1 0 01-.97 1z" fill="currentColor"/></symbol><symbol viewBox="0 0 32 32" id="icon--info--32" xmlns="http://www.w3.org/2000/svg"><circle cx="16" cy="16" r="13" fill="currentColor"/><path d="M17.225 16.006l-1.308 3.174a5.043 5.043 0 00-.457 1.515.344.344 0 00.353.374c.477 0 1.162-.789 1.66-1.39.104.04.27.145.29.248.083.125.021.229-.166.457-.747.85-2.116 2.282-3.34 2.282a1.008 1.008 0 01-1.08-1.1 8.105 8.105 0 01.747-2.635l1.08-2.656a4.92 4.92 0 00.414-1.432.3.3 0 00-.311-.332c-.436 0-1.038.788-1.41 1.266-.105-.042-.25-.125-.27-.208-.084-.124-.042-.228.145-.477.788-1.038 2.116-2.345 3.258-2.345a.976.976 0 011.038 1.058 7.037 7.037 0 01-.643 2.2zM17.906 11.245a1.068 1.068 0 01-1.1-1.141 1.29 1.29 0 011.266-1.35 1.085 1.085 0 011.121 1.142 1.307 1.307 0 01-1.287 1.35z" fill="#fff"/></symbol><symbol viewBox="0 0 16 16" id="icon--info-i" xmlns="http://www.w3.org/2000/svg"><path fill="currentColor" d="M8.9 8.223L7.754 10.95a4.357 4.357 0 00-.39 1.306.297.297 0 00.274.32l.024.001c.412 0 .997-.676 1.432-1.146.092 0 .229.126.252.218s0 .195-.137.39c-.642.734-1.822 1.959-2.876 1.959a.87.87 0 01-.928-.939 6.97 6.97 0 01.642-2.292l.928-2.292a4.22 4.22 0 00.355-1.226.253.253 0 00-.215-.285c-.016-.002-.032-.003-.048-.002-.378 0-.894.676-1.215 1.089-.092 0-.218-.103-.229-.183-.011-.081 0-.195.126-.412.676-.894 1.822-2.017 2.796-2.017a.837.837 0 01.893.905A6.06 6.06 0 018.9 8.223zM9.484 4.132a.917.917 0 01-.938-.985 1.145 1.145 0 011.088-1.146.926.926 0 01.962.985c0 .619-.493 1.128-1.112 1.146z"/></symbol><symbol viewBox="0 0 247.8 184.4" id="icon--journal-logo" xmlns="http://www.w3.org/2000/svg"><g fill="currentColor"><path d="M31.4 50.5c-.1-.3-.1-.6-.1-1.1 0-.4.1-.6.4-.7l1.8-.3c1.7-.3 1.9-.8 1.9-1.7 0-1-1.2-4.1-1.9-6l-3-7.9c-.1-.2-.3-.4-.5-.4H13.9c-.2.1-.4.2-.5.4l-2.7 7.9c-.8 2.3-2.4 7.1 1.5 7.6l1.8.3c.3.1.4.3.4.7s-.1.8-.1 1.1c-2.9-.1-4.8-.2-7.3-.2-2.3 0-4.1.1-6.9.2 0-.2-.1-.6-.1-1s.1-.6.4-.7l1.7-.4c1.9-.6 3.3-1.7 5.3-7.5L18.8 7.5c.4-1 .6-1.8.6-2.3 0-.2-.1-.5-.1-.9.3-.9 1.3-1.1 2.7-2.3 1.2-1.1 1.6-2 2.4-2 .2 0 .4.1.6.1.5 1.9 1.4 4.5 3.5 9.9l12.2 30.8c2.2 5.6 3.2 6.9 5.3 7.5l1.8.4c.4.1.5.3.5.7s-.1.8-.1 1.1c-2.8-.1-5.6-.2-8.3-.2s-5.7.1-8.5.2zm-2.5-21.8L21.5 8.8h-.1l-6.6 19.9c.1.1.2.3.4.4h13.3c.2-.1.3-.3.4-.4zM58.9 50.3c-1.8 0-6.1.2-7.3.2-.1-.3-.1-.6-.1-1.1 0-.4.1-.6.4-.6l2.4-.4c1.7-.2 1.7-1.7 1.7-6.1V26.4c0-1.7-.1-1.9-.9-2.4l-2.5-1.4c-.4-.2-.4-.2-.4-.6 0-.2.1-.6.1-.7 1.2-.4 2.6-.9 4.4-1.7 2.3-1.1 3.3-2.5 4.1-2.5.2 0 .4.1.5.2l.2 5.7c.1.1.3.1.6.1 2.2-2.4 4.7-5.5 9.1-5.5 1.7 0 3.3.6 3.3 2.4 0 1.5-.8 4.2-2.6 4.2-1.7 0-2.4-1.9-4.8-1.9-1.7 0-3.4 1.1-4.8 3.4-.5.8-.6 1.4-.6 2.5v14c0 4.4.2 5.6 1.9 5.8l3.8.5c.3.1.4.3.4.6 0 .5-.1.9-.1 1.2-1.4.2-7.1 0-8.8 0zM97.3 47.3c.2.5 0 1-.6 1.4-2.5 1.8-5.8 2.8-8.3 2.8-6.1 0-7.6-3.5-7.6-9V24.3c0-1.7-.2-1.7-.7-1.7h-2.4c-.4 0-.5-.1-.6-.3s-.2-.6-.2-.7c3.8-3.1 7.1-6.6 8.5-8.7.1-.2.3-.3.5-.3s.5.1.8.4c-.1 1.4-.1 4.3-.1 5.5.1.1.2.3.5.5h9.2c.5.2.5.4.5 1.7 0 1.2 0 1.7-.5 1.9H87c-.2.1-.4.3-.4.5v19.2c0 4.3 1.7 5.7 5.5 5.7 1.7 0 3.5-.5 4.9-1.3.1.2.3.4.3.6zM11.8 116.6c-2.7 0-5.7.1-8.5.2-.1-.3-.1-.6-.1-1.1 0-.4.1-.6.4-.7l2.6-.4c2-.4 2.1-1.7 2.1-7.7V77.4c0-6.1-.1-7.3-2.1-7.7l-2.6-.4c-.3-.1-.4-.3-.4-.7s.1-.8.1-1.1c2.8.1 5.5.2 8.1.2s5.7-.1 8.5-.2c.1.3.1.6.1 1.1s-.1.6-.4.7l-2.6.4c-2 .4-2.1 1.7-2.1 7.7v29.4c0 6.1.1 7.3 2.1 7.7l2.6.4c.3.1.4.3.4.7s-.1.8-.1 1.1c-2.8 0-5.4-.1-8.1-.1zM55.5 116.6c-1.8 0-5.8.2-7.1.2-.1-.3-.1-.6-.1-1.1 0-.4.1-.6.4-.6l2.2-.4c1.7-.3 1.7-1.7 1.7-6.1V96c0-2.2-.1-4.3-1.9-6.1-1.3-1.3-3.1-1.9-5.4-1.9-3.7 0-6.1 1.4-7.9 2.8-.8.6-.8 1-.8 2.1v15.8c0 4.4 0 5.8 1.7 6.1l2.2.4c.3.1.4.3.4.6 0 .4-.1.8-.1 1.1-1.2 0-5-.2-6.8-.2s-5.8.2-7.1.2c-.1-.3-.1-.6-.1-1.1 0-.4.1-.6.4-.6l2.2-.4c1.7-.3 1.7-1.7 1.7-6.1V92.1c0-1.7-.1-1.9-.9-2.4l-2.5-1.4c-.4-.2-.4-.2-.4-.6 0-.2.1-.6.1-.7 1.2-.3 2.7-.8 4.5-1.6 2.1-.9 3.5-2 4.2-2 .2 0 .4.1.5.2l-.1 4.8c.1.1.3.1.6.1 3.8-2.9 6.6-4.7 11.5-4.7 2.8 0 5.4.9 7.3 2.8 2.4 2.4 2.4 6.3 2.4 8.8v13c0 4.4 0 5.8 1.7 6.1l2 .5c.3.1.4.3.4.6 0 .4-.1.8-.1 1.1-1.1.1-5-.1-6.8-.1zM75.1 117.9c-2.2 0-5.9-.6-7.9-1.8 0-1.7-.2-6.1-.2-7.3.2-.1.3-.1.8-.1.4 0 .6.2.7.6.8 3.5 2.7 6.3 6.8 6.3 3.8 0 6.1-1.7 6.1-5.2 0-7.1-13.6-7.1-13.6-17.1 0-4.6 3.8-9.2 10.4-9.2 2.7 0 5.3.6 7.1 1.7 0 1.8.1 4.6.1 5.8-.2.1-.3.1-.8.1s-.7-.1-.8-.4c-.9-3.7-3-5-6.1-5-3.5 0-5.2 2.2-5.2 4.4 0 7.2 14 7.9 14 16.9.1 6.6-5 10.3-11.4 10.3zM112.2 113.6c.2.5 0 1-.6 1.4-2.5 1.8-5.8 2.8-8.3 2.8-6.1 0-7.6-3.5-7.6-9V90.6c0-1.7-.2-1.7-.7-1.7h-2.4c-.4 0-.5-.1-.6-.3s-.2-.6-.2-.7c3.8-3.1 7.1-6.6 8.5-8.7.1-.2.3-.3.5-.3s.5.1.8.4c-.1 1.4-.1 4.3-.1 5.5.1.1.2.3.5.5h9.2c.5.2.5.4.5 1.7 0 1.2 0 1.7-.5 1.9h-9.3c-.2.1-.4.3-.4.5v19.2c0 4.3 1.7 5.7 5.5 5.7 1.7 0 3.5-.5 4.9-1.3.1.2.3.4.3.6zM122.8 116.6c-1.8 0-5.8.2-7.1.2-.1-.3-.1-.6-.1-1.1 0-.4.1-.6.4-.6l2.2-.4c1.7-.3 1.7-1.7 1.7-6.1V92.1c0-1.7-.1-1.9-.9-2.4l-2.5-1.4c-.4-.2-.4-.2-.4-.6 0-.2.1-.6.1-.7 1.2-.3 3-.8 4.8-1.6 2.1-.9 3.5-2 4.3-2 .2 0 .4.1.5.2-.1 2.5-.1 5-.1 7.3v17.6c0 4.4 0 5.8 1.7 6.1l2.2.4c.3.1.4.3.4.6 0 .4-.1.8-.1 1.1-1.5.1-5.3-.1-7.1-.1zm.3-44.3c-2.1 0-3.6-1.5-3.6-3.6s1.4-3.7 3.5-3.7 3.6 1.6 3.6 3.7c0 2-1.4 3.6-3.5 3.6zM155.5 113.6c.2.5 0 1-.6 1.4-2.5 1.8-5.8 2.8-8.3 2.8-6.1 0-7.6-3.5-7.6-9V90.6c0-1.7-.2-1.7-.7-1.7h-2.4c-.4 0-.5-.1-.6-.3s-.2-.6-.2-.7c3.8-3.1 7.1-6.6 8.5-8.7.1-.2.3-.3.5-.3s.5.1.8.4c-.1 1.4-.1 4.3-.1 5.5.1.1.2.3.5.5h9.2c.5.2.5.4.5 1.7 0 1.2 0 1.7-.5 1.9H145c-.2.1-.4.3-.4.5v19.2c0 4.3 1.7 5.7 5.5 5.7 1.7 0 3.5-.5 4.9-1.3.2.2.4.4.5.6zM163.9 115c-2.2-2.4-2.2-6.1-2.2-8.8V90.7c0-1.7-.1-2.1-.9-2.4l-1.7-.6c-.4-.1-.4-.2-.4-.6 0-.2.1-.8.1-.9.9-.1 3-.4 4.3-.8 2-.5 3.1-1 3.9-1 .2 0 .4.1.5.2-.1 2.5-.1 4-.1 6.4v14.8c0 2.2.1 4.3 1.8 6.1 1.2 1.3 3 1.9 5.3 1.9 3.5 0 5.8-1.4 7.5-2.8.8-.6.8-1 .8-2.1V91c0-1.7-.3-2.2-1.2-2.4l-3.5-.8c-.4-.1-.4-.2-.4-.6 0-.2.1-.8.1-.9 1.1-.1 3-.2 5.3-.6 2.7-.5 4.3-1.2 4.9-1.2.2 0 .4.1.5.2-.1 2.5-.1 4-.1 6.4v20.4c0 1.8.4 2.4 1.2 2.4l2.8-.2c.5-.1.7.3.7.9 0 .2 0 .4-.1.7-1.4.2-3.7.6-5.4 1.1-1.9.4-3.5 1.1-4.3 1.1-.2 0-.4-.1-.5-.2l.1-3.9c-.1-.1-.3-.1-.6-.1-3.7 2.9-6.3 4.7-11.2 4.7-2.8-.1-5.3-.9-7.2-3zM218.3 113.6c.2.5 0 1-.6 1.4-2.5 1.8-5.8 2.8-8.3 2.8-6.1 0-7.6-3.5-7.6-9V90.6c0-1.7-.2-1.7-.7-1.7h-2.4c-.4 0-.5-.1-.6-.3s-.2-.6-.2-.7c3.8-3.1 7.1-6.6 8.5-8.7.1-.2.3-.3.5-.3s.5.1.8.4c-.1 1.4-.1 4.3-.1 5.5.1.1.2.3.5.5h9.2c.5.2.5.4.5 1.7 0 1.2 0 1.7-.5 1.9H208c-.2.1-.4.3-.4.5v19.2c0 4.3 1.7 5.7 5.5 5.7 1.7 0 3.5-.5 4.9-1.3l.3.6zM247 110.1c.7.5.7.9.1 1.8-2.9 3.8-6.9 6-11.8 6-9.4 0-14.5-8.1-14.5-16.9 0-9.9 7.1-17 14.6-17 6.9 0 11.7 3.5 12.4 10.9-.1.6-.2.9-.6 1.2h-20.8c-.1.1-.4.4-.4.6-.1.4-.2 1.4-.2 2.1 0 7.3 5 14.8 12.8 14.8 2.9 0 6-1.8 7.6-3.9.2 0 .5.2.8.4zm-20.1-16.7c.1.2.2.4.4.5l14-.2c.2-.2.4-.4.4-.7 0-4.8-3.2-6.9-6.4-6.9-4.1 0-7.3 2.8-8.4 7.3zM43.4 182.8c-2.8 0-4.2 0-5.6.2-5-4.8-10.9-14-16.2-22.5-.2-.2-.3-.4-.5-.4h-6c-.2.1-.4.3-.4.5v12.5c0 6.1.1 7.3 2.1 7.7l2.6.4c.3.1.4.3.4.7s-.1.8-.1 1.1c-2.8-.1-5.5-.2-8.1-.2-2.7 0-5.7.1-8.5.2-.1-.3-.1-.6-.1-1.1 0-.4.1-.6.4-.7l2.6-.4c2-.4 2.1-1.7 2.1-7.7v-29.4c0-6.1-.1-7.3-2.1-7.7l-2.6-.4c-.3-.1-.4-.3-.4-.7s.1-.8.1-1.1c2.8.1 4.9.2 7.6.2 3.7 0 7.5-.5 10.7-.5 9.6 0 16.4 4.4 16.4 12.8 0 5.8-4.4 9.9-9.6 12-.1.2-.1.4 0 .6 2.3 3.5 6.4 9.5 10.3 14.3 4.3 5.2 6.1 7.6 8.6 7.9l1.2.1c.3.1.4.3.4.8 0 .4-.1.8-.1 1.1-1.3 0-4-.3-5.2-.3zM19 135.9c-1.2 0-2.4.1-3.5.5-.5.6-.8 2.4-.8 6.8v13.9c.1.1.2.3.4.4h5c6.4 0 10.7-3.9 10.7-10.3 0-7-5.2-11.3-11.8-11.3zM77.4 176.4c.7.5.7.9.1 1.8-2.9 3.8-6.9 6-11.8 6-9.4 0-14.5-8.1-14.5-16.9 0-9.9 7.1-17 14.6-17 6.9 0 11.7 3.5 12.4 10.9-.1.6-.2.9-.6 1.2H56.8c-.1.1-.4.4-.4.6-.1.4-.2 1.4-.2 2.1 0 7.3 5 14.8 12.8 14.8 2.9 0 6-1.8 7.6-3.9.1 0 .5.1.8.4zm-20.2-16.7c.1.2.2.4.4.5l14-.2c.2-.2.4-.4.4-.7 0-4.8-3.2-6.9-6.4-6.9-4 0-7.2 2.8-8.4 7.3zM95.2 184.1c-.5-1.8-1.4-4.5-2.3-7l-6.7-17.4c-1.9-4.8-2.8-6.3-4.3-6.6l-.8-.1c-.3-.1-.4-.3-.4-.6 0-.4.1-.8.1-1.1 1.2 0 5 .2 6.7.2 1.8 0 5.8-.2 7.1-.2.1.3.1.6.1 1.1 0 .4-.1.6-.4.6l-2.2.4c-1.8.4-1.6 1.3.1 6.1l6 16.1h.1l5.3-13.3c.6-1.7 1.9-4.8 1.9-6.6 0-1.4-.7-2.2-2.2-2.6l-1-.2c-.3-.1-.4-.3-.4-.6 0-.4.1-.8.1-1.1 1.7.2 3.9.2 5.6.2 1.5 0 3.6-.1 5.3-.2.1.3.1.6.1 1.1 0 .4-.1.6-.4.6l-.7.1c-1.4.4-2.2 1.2-4.4 6.6l-7.2 17.4c-1 2.4-1.8 5.2-2.3 7-.7.5-2 .5-2.8.1zM123.5 182.8c-1.8 0-5.8.2-7.1.2-.1-.3-.1-.6-.1-1.1 0-.4.1-.6.4-.6l2.2-.4c1.7-.3 1.7-1.7 1.7-6.1v-16.5c0-1.7-.1-1.9-.9-2.4l-2.5-1.4c-.4-.2-.4-.2-.4-.6 0-.2.1-.6.1-.7 1.2-.3 3-.8 4.8-1.6 2.1-.9 3.5-2 4.3-2 .2 0 .4.1.5.2-.1 2.5-.1 5-.1 7.3v17.6c0 4.4 0 5.8 1.7 6.1l2.2.4c.3.1.4.3.4.6 0 .4-.1.8-.1 1.1-1.5.2-5.4-.1-7.1-.1zm.3-44.3c-2.1 0-3.6-1.5-3.6-3.6s1.4-3.7 3.5-3.7 3.6 1.6 3.6 3.7-1.4 3.6-3.5 3.6zM162.1 176.4c.7.5.7.9.1 1.8-2.9 3.8-6.9 6-11.8 6-9.4 0-14.5-8.1-14.5-16.9 0-9.9 7.1-17 14.6-17 6.9 0 11.7 3.5 12.4 10.9-.1.6-.2.9-.6 1.2h-20.8c-.1.1-.4.4-.4.6-.1.4-.2 1.4-.2 2.1 0 7.3 5 14.8 12.8 14.8 2.9 0 6-1.8 7.6-3.9.1 0 .5.1.8.4zm-20.2-16.7c.1.2.2.4.4.5l14-.2c.2-.2.4-.4.4-.7 0-4.8-3.2-6.9-6.4-6.9-4 0-7.2 2.8-8.4 7.3zM199.3 184.1c-.5-1.8-1.4-4.5-2.3-7l-5.8-15.1h-.2l-6.1 15.1c-1 2.5-1.8 5.2-2.3 7-.6.4-1.9.4-2.7 0-.5-1.8-1.4-4.5-2.3-7l-6.7-17.4c-1.9-4.8-2.8-6.3-4.3-6.6l-.8-.1c-.3-.1-.4-.3-.4-.6 0-.4.1-.8.1-1.1 1.2 0 5 .2 6.7.2 1.8 0 5.8-.2 7.1-.2.1.3.1.6.1 1.1 0 .4-.1.6-.4.6l-2.2.4c-1.8.4-1.7 1.2.1 6.1l5.9 16.1h.1l5.3-13.3c1.4-3.4 1.6-4.2.8-6.2-.9-2.4-1.8-2.8-2.9-3l-1-.1c-.3-.1-.4-.3-.4-.6 0-.4.1-.8.1-1.1 1.2 0 5 .2 6.7.2 1.8 0 5.8-.2 7.1-.2.1.3.1.6.1 1.1 0 .4-.1.6-.4.6l-2.2.4c-1.8.4-1.7 1.2.1 6.1l5.9 16.1h.1l5.3-13.3c.7-1.7 1.9-4.8 1.9-6.6 0-1.4-.7-2.2-2.2-2.6l-1-.2c-.3-.1-.4-.3-.4-.6 0-.4.1-.8.1-1.1 1.7.2 3.9.2 5.6.2 1.5 0 3.6-.1 5.3-.2.1.3.1.6.1 1.1 0 .4-.1.6-.4.6l-.7.1c-1.4.4-2.2 1.2-4.4 6.6l-7.3 17.4c-1 2.4-1.8 5.2-2.3 7-.5.5-1.7.5-2.5.1z"/></g></symbol><symbol viewBox="0 0 16 16" id="icon--location" xmlns="http://www.w3.org/2000/svg"><path d="M8 1a5 5 0 00-5 5c0 3.33 5 9 5 9s5-5.67 5-9a5 5 0 00-5-5zm0 7a2 2 0 112-2 2 2 0 01-2 2z" fill="currentColor"/></symbol><symbol viewBox="0 0 24 24" id="icon--location--24" xmlns="http://www.w3.org/2000/svg"><path d="M12 2a7.07 7.07 0 00-7 7.14C5 13.9 12 22 12 22s7-8.1 7-12.86A7.07 7.07 0 0012 2zm0 10a3 3 0 113-3 3 3 0 01-3 3z" fill="currentColor"/></symbol><symbol viewBox="0 0 80 80" id="icon--logo--80" xmlns="http://www.w3.org/2000/svg"><path fill="currentColor" d="M0 0h80v80H0z"/><g fill="#fff"><path d="M12.141 48.792l-.985-2.193H8.034l-.031.085a93.292 93.292 0 00-.838 2.022H6l2.52-5.422c.413-.89.688-1.513.921-2.127l.276-.075 2.541 5.454c.298.657.71 1.514 1.048 2.17zm-1.376-3.062L9.59 43.094 8.425 45.73zM20.086 48.781l-1.907-2.998h-1.153v1.4c0 .411.009 1.227.041 1.523h-1.175c.053-.508.074-1.864.074-2.552v-2.34c0-.678-.021-2.043-.074-2.552.381 0 1.46-.042 1.948-.052 1.864-.032 2.89.995 2.86 2.17a2.31 2.31 0 01-1.557 2.16l1.08 1.589c.286.402.869 1.218 1.112 1.513zm-3.06-3.876h1.068a1.388 1.388 0 001.515-1.388c0-.91-.55-1.386-1.662-1.386-.34 0-.636.01-.912.03-.01.213-.01.456-.01.615zM29.236 42.162c-.815-.01-1.525-.02-2.467-.02-.011.222-.011.497-.011.666v4.375c0 .412.01 1.227.043 1.524h-1.175c.052-.509.073-1.864.073-2.552v-2.298c0-.434-.01-1.122-.032-1.715-.942 0-1.684.01-2.498.02a9.216 9.216 0 00.042-.963 87.717 87.717 0 006.11 0 6.76 6.76 0 00-.085.963M7.143 60.817c.054-.509.074-1.864.074-2.552v-2.34c0-.678-.02-2.043-.074-2.552a10.225 10.225 0 001.176-.053c-.032.307-.042 1.153-.042 1.567v4.405c0 .402.01 1.229.042 1.525zM18.38 54.887l-.073 4.469c0 .413-.01 1.27.02 1.567l-.275.074-4.86-5.58v3.875c0 .413.01 1.229.042 1.525h-1.165c.064-.508.116-1.864.127-2.552l.042-2.551c.011-.678.011-1.939-.042-2.447l.286-.074 4.903 5.665v-2.934c0-.678-.021-2.043-.085-2.55a10.26 10.26 0 001.165-.053c-.043.307-.075 1.153-.085 1.566M23.529 61.008a4.183 4.183 0 01-2.086-.625l.063-1.123a3.476 3.476 0 002.086.794c.795 0 1.355-.391 1.355-1.176 0-1.48-3.208-1.555-3.208-3.504a2.219 2.219 0 012.34-2.182 2.951 2.951 0 011.737.552l-.35.932a2.494 2.494 0 00-1.429-.53c-.773 0-1.239.413-1.239 1.08 0 1.324 3.198 1.387 3.198 3.505a2.262 2.262 0 01-2.467 2.276M34.405 54.273c-.816-.011-1.525-.02-2.467-.02-.012.221-.012.497-.012.666v4.374c0 .412.012 1.228.044 1.525h-1.176c.053-.509.074-1.865.074-2.553v-2.297c0-.435-.01-1.123-.032-1.716-.942 0-1.684.01-2.498.02a9.229 9.229 0 00.041-.963 87.887 87.887 0 006.11 0 6.88 6.88 0 00-.084.963M37.276 60.817c.054-.509.075-1.864.075-2.552v-2.34c0-.678-.02-2.043-.075-2.552a10.22 10.22 0 001.176-.052c-.032.307-.042 1.153-.042 1.567v4.405c0 .402.01 1.229.042 1.525zM47.243 54.273c-.816-.011-1.525-.02-2.468-.02-.011.221-.011.497-.011.666v4.374c0 .412.011 1.228.043 1.525h-1.175c.053-.509.073-1.865.073-2.553v-2.297c0-.435-.01-1.123-.031-1.716-.943 0-1.684.01-2.499.02a9.226 9.226 0 00.042-.963 87.844 87.844 0 006.11 0 6.76 6.76 0 00-.084.963M56.584 53.384l-2.372 5.422c-.392.9-.646 1.513-.857 2.127l-.276.074-2.371-5.442a50.953 50.953 0 00-.996-2.172l1.164-.084 2.32 5.56 1.43-3.462c.254-.626.53-1.356.773-2.023zM64.57 54.273c-.816-.011-1.524-.02-2.467-.02-.011.221-.011.497-.011.666v4.374c0 .412.01 1.228.043 1.525H60.96c.053-.509.073-1.865.073-2.553v-2.297c0-.435-.01-1.123-.032-1.716-.942 0-1.683.01-2.498.02a9.229 9.229 0 00.042-.963 87.868 87.868 0 006.11 0 6.82 6.82 0 00-.085.963M72.049 60.86c-.636-.043-1.42-.054-2.172-.054s-1.546.011-2.17.053c.053-.508.074-1.874.074-2.55V55.86c0-.687-.021-2.043-.074-2.551a42.592 42.592 0 004.204 0 6.56 6.56 0 00-.086.942c-.624-.01-1.27-.02-2.022-.02-.318 0-.635 0-.942.01-.021.19-.021.465-.021.625v1.599h2.573c-.022.263-.032.55-.032.868H68.84v1.959c0 .158 0 .445.02.634.308 0 .625.011.943.011.858 0 1.6-.01 2.32-.03a8.456 8.456 0 00-.074.952M12.65 72.236a3.88 3.88 0 01-2.425.846 3.671 3.671 0 01-3.706-3.717 3.93 3.93 0 013.907-4.097 3.975 3.975 0 012.203.666l-.297.975a3.223 3.223 0 00-1.97-.688 2.763 2.763 0 00-2.752 2.922 2.67 2.67 0 002.678 2.986 3.39 3.39 0 002.437-1.069zM20.752 72.892c.064-.509.085-1.864.085-2.553v-.888h-3.886v1.916c0 .402.01 1.23.042 1.525h-1.175c.052-.509.074-1.864.074-2.553V68c0-.678-.022-2.043-.074-2.552a10.036 10.036 0 001.175-.053c-.032.307-.042 1.154-.042 1.568v1.62h3.886V68c0-.678-.022-2.043-.085-2.552a10.546 10.546 0 001.197-.053c-.043.307-.053 1.154-.053 1.568v4.405c0 .402.01 1.229.053 1.525zM25.742 72.892c.054-.509.075-1.864.075-2.553V68c0-.678-.02-2.043-.075-2.552a10.042 10.042 0 001.176-.053c-.032.307-.043 1.154-.043 1.568v4.405c0 .402.011 1.229.043 1.525zM36.227 72.236a3.883 3.883 0 01-2.426.846 3.671 3.671 0 01-3.705-3.717 3.93 3.93 0 013.907-4.097 3.975 3.975 0 012.202.666l-.296.975a3.222 3.222 0 00-1.97-.688 2.763 2.763 0 00-2.753 2.922 2.67 2.67 0 002.678 2.986 3.39 3.39 0 002.437-1.069zM44.552 72.977l-.985-2.193h-3.123l-.032.085a91.989 91.989 0 00-.837 2.023H38.41l2.52-5.422c.413-.89.689-1.513.922-2.128l.276-.075 2.54 5.454c.298.657.71 1.514 1.049 2.171zm-1.376-3.061L42 67.279l-1.164 2.637zM53.142 69.397a23.73 23.73 0 001.097-.04c-.052.402-.037 1.438-.037 2.127v.815a4.43 4.43 0 01-2.638.784 3.782 3.782 0 01-3.832-3.718 3.975 3.975 0 014.034-4.097 4.491 4.491 0 012.35.667l-.296.973a3.669 3.669 0 00-2.118-.688 2.775 2.775 0 00-2.88 2.924 2.733 2.733 0 002.806 2.985 3.109 3.109 0 001.535-.338v-1.292c0-.16 0-.445-.02-.635zM64.507 68.984a3.857 3.857 0 01-3.823 4.099 3.592 3.592 0 01-3.611-3.718 3.856 3.856 0 013.823-4.097 3.592 3.592 0 013.61 3.716m-1.09.17a2.676 2.676 0 00-2.638-2.987 2.778 2.778 0 00-2.615 3.029 2.675 2.675 0 002.637 2.987 2.778 2.778 0 002.616-3.029"/></g></symbol><symbol viewBox="0 0 88 88" id="icon--logo--88" xmlns="http://www.w3.org/2000/svg"><path fill="currentColor" d="M0 0h88v88H0z"/><path d="M13.832 54.2l-1.094-2.39H9.27l-.035.093a99.78 99.78 0 00-.93 2.204H7.015l2.797-5.908c.458-.97.764-1.649 1.023-2.317l.306-.082 2.82 5.942c.33.715.789 1.65 1.165 2.365zm-1.528-3.336l-1.305-2.872-1.293 2.872zM22.65 54.188l-2.115-3.266h-1.281v1.524c0 .449.01 1.338.046 1.66h-1.305c.06-.554.082-2.03.082-2.78v-2.55c0-.739-.023-2.227-.082-2.78.423 0 1.622-.046 2.163-.058 2.07-.035 3.209 1.085 3.174 2.365a2.52 2.52 0 01-1.728 2.354l1.2 1.73c.317.439.964 1.328 1.234 1.65zm-3.396-4.223h1.186a1.53 1.53 0 001.681-1.512c0-.992-.61-1.51-1.845-1.51-.376 0-.705.01-1.012.033-.01.232-.01.497-.01.67zM32.81 46.976c-.906-.011-1.693-.022-2.74-.022-.012.242-.012.541-.012.726v4.766c0 .45.013 1.338.048 1.66h-1.305c.059-.554.082-2.03.082-2.78v-2.503c0-.473-.011-1.223-.035-1.87-1.047 0-1.87.012-2.774.023a9.857 9.857 0 00.047-1.05 99.193 99.193 0 006.783 0 7.232 7.232 0 00-.095 1.05M7.746 67.023c.06-.55.082-2.017.082-2.762v-2.533c0-.734-.022-2.211-.082-2.762a11.516 11.516 0 001.299-.057c-.035.332-.047 1.248-.047 1.696v4.768c0 .435.012 1.33.047 1.65zM20.114 60.605l-.08 4.837c0 .447-.013 1.375.022 1.696l-.304.08-5.367-6.04v4.195c0 .447.011 1.33.047 1.65h-1.286c.07-.55.129-2.018.14-2.763l.047-2.76c.012-.734.012-2.098-.047-2.648l.316-.081 5.414 6.132v-3.176c0-.733-.024-2.21-.094-2.761a11.556 11.556 0 001.286-.057c-.047.333-.082 1.249-.094 1.696M25.8 67.23a4.686 4.686 0 01-2.303-.676l.07-1.215a3.883 3.883 0 002.303.859c.877 0 1.496-.424 1.496-1.273 0-1.602-3.542-1.683-3.542-3.793a2.429 2.429 0 012.584-2.362 3.303 3.303 0 011.917.597l-.386 1.008a2.787 2.787 0 00-1.578-.573c-.854 0-1.368.448-1.368 1.17 0 1.433 3.53 1.5 3.53 3.793A2.476 2.476 0 0125.8 67.23M37.808 59.94c-.9-.012-1.683-.022-2.724-.022-.012.24-.012.538-.012.721v4.734c0 .447.012 1.33.048 1.65h-1.298c.058-.55.081-2.017.081-2.762v-2.487c0-.47-.011-1.215-.035-1.856-1.04 0-1.86.01-2.759.021a9.793 9.793 0 00.046-1.042 98.921 98.921 0 006.747 0 7.304 7.304 0 00-.094 1.042M40.98 67.023c.06-.55.082-2.017.082-2.762v-2.533c0-.734-.023-2.211-.083-2.762a11.511 11.511 0 001.298-.057c-.035.332-.046 1.248-.046 1.696v4.768c0 .435.011 1.33.046 1.65zM51.984 59.94c-.9-.012-1.684-.022-2.724-.022-.013.24-.013.538-.013.721v4.734c0 .447.013 1.33.048 1.65h-1.298c.059-.55.081-2.017.081-2.762v-2.487c0-.47-.01-1.215-.035-1.856-1.04 0-1.86.01-2.758.021a9.791 9.791 0 00.046-1.042 98.868 98.868 0 006.747 0 7.176 7.176 0 00-.094 1.042M62.299 58.978l-2.619 5.869c-.433.973-.714 1.638-.947 2.302l-.304.08-2.619-5.89a54.515 54.515 0 00-1.1-2.351l1.286-.091 2.56 6.018 1.58-3.748a67.02 67.02 0 00.854-2.19zM71.117 59.94c-.9-.012-1.683-.022-2.725-.022-.012.24-.012.538-.012.721v4.734c0 .447.012 1.33.048 1.65H67.13c.058-.55.081-2.017.081-2.762v-2.487c0-.47-.011-1.215-.035-1.856-1.04 0-1.86.01-2.759.021a9.793 9.793 0 00.046-1.042 98.898 98.898 0 006.747 0 7.24 7.24 0 00-.094 1.042M79.375 67.07c-.703-.046-1.567-.059-2.398-.059s-1.707.013-2.397.058c.058-.55.082-2.029.082-2.761v-2.649c0-.744-.024-2.212-.082-2.761a47.934 47.934 0 004.642 0 6.964 6.964 0 00-.094 1.02c-.69-.012-1.403-.023-2.233-.023-.351 0-.702 0-1.04.01-.024.208-.024.504-.024.677v1.731h2.841c-.023.286-.035.596-.035.94h-2.805v2.12c0 .171 0 .481.022.687.34 0 .69.012 1.041.012.947 0 1.766-.012 2.56-.034a8.975 8.975 0 00-.08 1.031M14.157 79.27a4.376 4.376 0 01-2.678.905 3.988 3.988 0 01-4.091-3.972 4.263 4.263 0 014.314-4.377 4.494 4.494 0 012.431.712l-.327 1.04a3.634 3.634 0 00-2.175-.735 2.997 2.997 0 00-3.04 3.123 2.894 2.894 0 002.958 3.19 3.801 3.801 0 002.69-1.142zM23.104 79.972c.07-.544.094-1.992.094-2.728v-.95h-4.292v2.048c0 .43.011 1.313.046 1.629h-1.297c.058-.544.082-1.992.082-2.728v-2.5c0-.724-.024-2.182-.082-2.726a11.45 11.45 0 001.297-.057c-.035.328-.046 1.233-.046 1.675v1.732h4.292v-.623c0-.725-.025-2.183-.094-2.726a12.032 12.032 0 001.321-.057c-.047.328-.059 1.233-.059 1.675v4.706c0 .43.012 1.313.06 1.63zM28.613 79.972c.06-.544.082-1.992.082-2.728v-2.5c0-.725-.022-2.183-.082-2.727a11.456 11.456 0 001.299-.057c-.035.329-.047 1.233-.047 1.675v4.707c0 .43.012 1.313.047 1.63zM40.19 79.27a4.378 4.378 0 01-2.678.905 3.988 3.988 0 01-4.091-3.972 4.263 4.263 0 014.314-4.377 4.494 4.494 0 012.43.712l-.326 1.04a3.633 3.633 0 00-2.175-.735 2.997 2.997 0 00-3.04 3.123 2.894 2.894 0 002.958 3.19 3.801 3.801 0 002.69-1.142zM49.383 80.062l-1.087-2.342h-3.45l-.034.091c-.304.68-.632 1.46-.925 2.161h-1.285l2.782-5.793c.456-.95.76-1.617 1.017-2.273l.305-.08 2.806 5.826c.328.703.784 1.618 1.157 2.32zm-1.52-3.27l-1.297-2.817-1.286 2.817zM58.868 76.237a26.88 26.88 0 001.212-.043c-.058.43-.041 1.537-.041 2.273v.87a5.004 5.004 0 01-2.913.838 4.113 4.113 0 01-4.232-3.972 4.318 4.318 0 014.454-4.378 5.082 5.082 0 012.596.713l-.328 1.04a4.143 4.143 0 00-2.338-.735 3.014 3.014 0 00-3.18 3.123 2.967 2.967 0 003.098 3.19 3.528 3.528 0 001.695-.362v-1.38c0-.17 0-.475-.022-.679zM71.417 75.796a4.182 4.182 0 01-4.222 4.379 3.899 3.899 0 01-3.987-3.972 4.18 4.18 0 014.221-4.378 3.9 3.9 0 013.988 3.971m-1.204.182a2.898 2.898 0 00-2.913-3.192 3.004 3.004 0 00-2.887 3.237 2.897 2.897 0 002.91 3.191 3.004 3.004 0 002.89-3.236" fill="#fff"/></symbol><symbol viewBox="0 0 92 92" id="icon--logo--92" xmlns="http://www.w3.org/2000/svg"><path fill="currentColor" d="M0 0h92v92H0z"/><g fill="#fff"><path d="M14.445 56.001l-1.14-2.54H9.687l-.036.098c-.32.738-.663 1.583-.97 2.343H7.332l2.918-6.28c.478-1.03.798-1.752 1.067-2.463l.32-.087 2.943 6.316c.345.76.822 1.755 1.214 2.514zm-1.594-3.546l-1.361-3.052-1.349 3.052zM23.645 55.989l-2.207-3.472H20.1v1.62c0 .477.011 1.422.049 1.765h-1.361c.061-.589.085-2.16.085-2.956v-2.71c0-.785-.024-2.367-.085-2.956.441 0 1.691-.048 2.256-.06 2.159-.037 3.347 1.153 3.311 2.513a2.675 2.675 0 01-1.803 2.502l1.252 1.84c.33.466 1.006 1.41 1.287 1.753zM20.101 51.5h1.238a1.608 1.608 0 001.754-1.607c0-1.055-.638-1.605-1.925-1.605-.393 0-.736.011-1.056.035-.01.246-.01.528-.01.711zM34.243 48.323c-.945-.012-1.766-.024-2.858-.024-.013.258-.013.576-.013.772v5.066c0 .477.013 1.422.05 1.765h-1.36c.06-.589.084-2.159.084-2.955v-2.661c0-.503-.011-1.3-.036-1.987-1.092 0-1.95.012-2.894.024a10.674 10.674 0 00.049-1.116 101.42 101.42 0 007.077 0 7.828 7.828 0 00-.099 1.116M8.656 69.78c.063-.585.086-2.146.086-2.938v-2.696c0-.78-.023-2.352-.086-2.938a11.909 11.909 0 001.362-.06c-.037.353-.049 1.328-.049 1.804v5.073c0 .462.012 1.415.049 1.756zM21.67 62.951l-.085 5.147c0 .476-.012 1.464.024 1.805l-.318.085-5.63-6.427v4.463c0 .476.012 1.416.05 1.756h-1.35c.074-.585.135-2.146.147-2.939l.05-2.937c.012-.781.012-2.233-.05-2.818L14.84 61l5.679 6.524v-3.378c0-.78-.025-2.352-.098-2.938a11.95 11.95 0 001.349-.06c-.05.353-.087 1.328-.1 1.804M27.633 70a4.864 4.864 0 01-2.415-.72l.073-1.292a4.04 4.04 0 002.415.914c.92 0 1.57-.45 1.57-1.354 0-1.705-3.715-1.791-3.715-4.036A2.563 2.563 0 0128.27 61a3.43 3.43 0 012.011.635l-.405 1.073a2.898 2.898 0 00-1.654-.61c-.897 0-1.436.477-1.436 1.245 0 1.524 3.704 1.597 3.704 4.036A2.613 2.613 0 0127.633 70M40.229 62.244a196.86 196.86 0 00-2.857-.023c-.014.255-.014.572-.014.767v5.037c0 .475.013 1.414.05 1.756h-1.36c.06-.586.084-2.147.084-2.94v-2.645c0-.5-.011-1.293-.037-1.975-1.09 0-1.95.01-2.893.023a10.568 10.568 0 00.049-1.109c1.116.036 2.159.06 3.495.06s2.452-.024 3.581-.06a7.88 7.88 0 00-.098 1.109M43.554 69.78c.063-.585.087-2.146.087-2.938v-2.696c0-.78-.024-2.352-.087-2.938a11.904 11.904 0 001.362-.06c-.037.353-.049 1.328-.049 1.804v5.073c0 .462.012 1.415.049 1.756zM55.097 62.244c-.945-.013-1.766-.023-2.858-.023-.013.255-.013.572-.013.767v5.037c0 .475.013 1.414.05 1.756h-1.36c.06-.586.084-2.147.084-2.94v-2.645c0-.5-.012-1.293-.036-1.975-1.092 0-1.95.01-2.894.023a10.566 10.566 0 00.049-1.109c1.115.036 2.159.06 3.495.06s2.452-.024 3.581-.06a7.741 7.741 0 00-.098 1.109M65.915 61.22l-2.747 6.245c-.453 1.035-.748 1.742-.993 2.449l-.319.086-2.746-6.268a58.54 58.54 0 00-1.154-2.5l1.35-.097 2.685 6.402 1.656-3.987c.294-.72.614-1.561.896-2.33zM75.164 62.244c-.945-.013-1.765-.023-2.857-.023-.013.255-.013.572-.013.767v5.037c0 .475.013 1.414.05 1.756h-1.361c.061-.586.085-2.147.085-2.94v-2.645c0-.5-.012-1.293-.037-1.975-1.091 0-1.95.01-2.893.023a10.568 10.568 0 00.048-1.109c1.116.036 2.16.06 3.496.06s2.451-.024 3.58-.06a7.81 7.81 0 00-.098 1.109M83.826 69.83c-.737-.05-1.644-.062-2.515-.062s-1.791.013-2.514.061c.06-.585.086-2.158.086-2.938v-2.818c0-.791-.025-2.353-.086-2.938a49.629 49.629 0 004.869 0 7.513 7.513 0 00-.1 1.085c-.722-.012-1.47-.024-2.341-.024-.368 0-.736 0-1.092.012-.024.22-.024.536-.024.72v1.841h2.98a12.27 12.27 0 00-.037 1H80.11v2.256c0 .182 0 .512.024.73.355 0 .724.013 1.092.013.993 0 1.852-.012 2.685-.036a9.684 9.684 0 00-.085 1.098M15.034 83.18a4.494 4.494 0 01-2.809.98 4.252 4.252 0 01-4.291-4.304 4.55 4.55 0 014.524-4.745 4.604 4.604 0 012.55.772l-.343 1.128a3.732 3.732 0 00-2.28-.797A3.2 3.2 0 009.195 79.6c0 2.243 1.374 3.457 3.102 3.457a3.925 3.925 0 002.822-1.238zM24.418 83.94c.073-.59.098-2.159.098-2.957v-1.028h-4.5v2.22c0 .465.01 1.423.048 1.766h-1.362c.061-.59.087-2.16.087-2.957v-2.71c0-.785-.026-2.366-.087-2.955a11.623 11.623 0 001.362-.062c-.037.356-.049 1.337-.049 1.816v1.876h4.501v-.675c0-.785-.025-2.366-.098-2.955a12.214 12.214 0 001.386-.062c-.05.356-.062 1.337-.062 1.816v5.101c0 .466.012 1.424.061 1.766zM30.196 83.94c.063-.59.086-2.159.086-2.957v-2.71c0-.785-.023-2.365-.086-2.955a11.63 11.63 0 001.362-.062c-.036.356-.05 1.337-.05 1.816v5.102c0 .465.014 1.423.05 1.766zM42.34 83.18a4.497 4.497 0 01-2.81.98 4.252 4.252 0 01-4.291-4.304 4.55 4.55 0 014.525-4.745 4.603 4.603 0 012.55.772l-.344 1.128a3.731 3.731 0 00-2.281-.797 3.2 3.2 0 00-3.188 3.385c0 2.243 1.374 3.457 3.102 3.457a3.925 3.925 0 002.821-1.238zM51.98 84.039l-1.14-2.54h-3.617l-.036.1c-.32.735-.663 1.58-.97 2.342h-1.349l2.919-6.28c.478-1.03.797-1.753 1.066-2.464l.32-.087 2.943 6.316c.345.761.822 1.754 1.214 2.515zm-1.593-3.545l-1.361-3.054-1.349 3.054zM61.93 79.892c.489-.006.731-.018 1.27-.046-.061.465-.043 1.666-.043 2.464v.943a5.13 5.13 0 01-3.055.908 4.38 4.38 0 01-4.439-4.305 4.604 4.604 0 014.672-4.746 5.202 5.202 0 012.723.772l-.344 1.128a4.249 4.249 0 00-2.453-.797 3.213 3.213 0 00-3.335 3.386 3.165 3.165 0 003.25 3.457 3.6 3.6 0 001.778-.392V81.17c0-.185 0-.515-.024-.736zM75.09 79.415a4.467 4.467 0 01-4.427 4.746 4.16 4.16 0 01-4.182-4.305 4.466 4.466 0 014.428-4.746 4.16 4.16 0 014.182 4.304m-1.263.197c0-2.171-1.326-3.46-3.055-3.46-1.814 0-3.028 1.596-3.028 3.509 0 2.17 1.323 3.46 3.053 3.46 1.816 0 3.03-1.596 3.03-3.509"/></g></symbol><symbol viewBox="0 0 80 80" id="icon--logo--outline--80" xmlns="http://www.w3.org/2000/svg"><g fill="currentColor"><path d="M79 1v78H1V1h78m1-1H0v80h80V0z"/><path d="M12.141 48.792l-.985-2.193H8.034l-.031.085a93.292 93.292 0 00-.838 2.022H6l2.52-5.422c.413-.89.688-1.513.921-2.127l.276-.075 2.541 5.454c.298.657.71 1.514 1.048 2.17zm-1.376-3.062L9.59 43.094 8.425 45.73zM20.086 48.781l-1.907-2.998h-1.153v1.4c0 .411.009 1.227.041 1.523h-1.175c.053-.508.074-1.864.074-2.552v-2.34c0-.678-.021-2.043-.074-2.552.381 0 1.46-.042 1.948-.052 1.864-.032 2.89.995 2.86 2.17a2.31 2.31 0 01-1.557 2.16l1.08 1.589c.286.402.869 1.218 1.112 1.513zm-3.06-3.876h1.068a1.388 1.388 0 001.515-1.388c0-.91-.55-1.386-1.662-1.386-.34 0-.636.01-.912.03-.01.213-.01.456-.01.615zM29.236 42.162c-.815-.01-1.525-.02-2.467-.02-.011.222-.011.497-.011.666v4.375c0 .412.01 1.227.043 1.524h-1.175c.052-.509.073-1.864.073-2.552v-2.298c0-.434-.01-1.122-.032-1.715-.942 0-1.684.01-2.498.02a9.216 9.216 0 00.042-.963 87.717 87.717 0 006.11 0 6.76 6.76 0 00-.085.963M7.143 60.817c.054-.509.074-1.864.074-2.552v-2.34c0-.678-.02-2.043-.074-2.552a10.225 10.225 0 001.176-.053c-.032.307-.042 1.153-.042 1.567v4.405c0 .402.01 1.229.042 1.525zM18.38 54.887l-.073 4.469c0 .413-.01 1.27.02 1.567l-.275.074-4.86-5.58v3.875c0 .413.01 1.229.042 1.525h-1.165c.064-.508.116-1.864.127-2.552l.042-2.551c.011-.678.011-1.939-.042-2.447l.286-.074 4.903 5.665v-2.934c0-.678-.021-2.043-.085-2.55a10.26 10.26 0 001.165-.053c-.043.307-.075 1.153-.085 1.566M23.529 61.008a4.183 4.183 0 01-2.086-.625l.063-1.123a3.476 3.476 0 002.086.794c.795 0 1.355-.391 1.355-1.176 0-1.48-3.208-1.555-3.208-3.504a2.219 2.219 0 012.34-2.182 2.951 2.951 0 011.737.552l-.35.932a2.494 2.494 0 00-1.429-.53c-.773 0-1.239.413-1.239 1.08 0 1.324 3.198 1.387 3.198 3.505a2.262 2.262 0 01-2.467 2.276M34.405 54.273c-.816-.011-1.525-.02-2.467-.02-.012.221-.012.497-.012.666v4.374c0 .412.012 1.228.044 1.525h-1.176c.053-.509.074-1.865.074-2.553v-2.297c0-.435-.01-1.123-.032-1.716-.942 0-1.684.01-2.498.02a9.229 9.229 0 00.041-.963 87.887 87.887 0 006.11 0 6.88 6.88 0 00-.084.963M37.276 60.817c.054-.509.075-1.864.075-2.552v-2.34c0-.678-.02-2.043-.075-2.552a10.22 10.22 0 001.176-.052c-.032.307-.042 1.153-.042 1.567v4.405c0 .402.01 1.229.042 1.525zM47.243 54.273c-.816-.011-1.525-.02-2.468-.02-.011.221-.011.497-.011.666v4.374c0 .412.011 1.228.043 1.525h-1.175c.053-.509.073-1.865.073-2.553v-2.297c0-.435-.01-1.123-.031-1.716-.943 0-1.684.01-2.499.02a9.226 9.226 0 00.042-.963 87.844 87.844 0 006.11 0 6.76 6.76 0 00-.084.963M56.584 53.384l-2.372 5.422c-.392.9-.646 1.513-.857 2.127l-.276.074-2.371-5.442a50.953 50.953 0 00-.996-2.172l1.164-.084 2.32 5.56 1.43-3.462c.254-.626.53-1.356.773-2.023zM64.57 54.273c-.816-.011-1.524-.02-2.467-.02-.011.221-.011.497-.011.666v4.374c0 .412.01 1.228.043 1.525H60.96c.053-.509.073-1.865.073-2.553v-2.297c0-.435-.01-1.123-.032-1.716-.942 0-1.683.01-2.498.02a9.229 9.229 0 00.042-.963 87.868 87.868 0 006.11 0 6.82 6.82 0 00-.085.963M72.049 60.86c-.636-.043-1.42-.054-2.172-.054s-1.546.011-2.17.053c.053-.508.074-1.874.074-2.55V55.86c0-.687-.021-2.043-.074-2.551a42.592 42.592 0 004.204 0 6.56 6.56 0 00-.086.942c-.624-.01-1.27-.02-2.022-.02-.318 0-.635 0-.942.01-.021.19-.021.465-.021.625v1.599h2.573c-.022.263-.032.55-.032.868H68.84v1.959c0 .158 0 .445.02.634.308 0 .625.011.943.011.858 0 1.6-.01 2.32-.03a8.456 8.456 0 00-.074.952M12.65 72.236a3.88 3.88 0 01-2.425.846 3.671 3.671 0 01-3.706-3.717 3.93 3.93 0 013.907-4.097 3.975 3.975 0 012.203.666l-.297.975a3.223 3.223 0 00-1.97-.688 2.763 2.763 0 00-2.752 2.922 2.67 2.67 0 002.678 2.986 3.39 3.39 0 002.437-1.069zM20.752 72.892c.064-.509.085-1.864.085-2.553v-.888h-3.886v1.916c0 .402.01 1.23.042 1.525h-1.175c.052-.509.074-1.864.074-2.553V68c0-.678-.022-2.043-.074-2.552a10.036 10.036 0 001.175-.053c-.032.307-.042 1.154-.042 1.568v1.62h3.886V68c0-.678-.022-2.043-.085-2.552a10.546 10.546 0 001.197-.053c-.043.307-.053 1.154-.053 1.568v4.405c0 .402.01 1.229.053 1.525zM25.742 72.892c.054-.509.075-1.864.075-2.553V68c0-.678-.02-2.043-.075-2.552a10.042 10.042 0 001.176-.053c-.032.307-.043 1.154-.043 1.568v4.405c0 .402.011 1.229.043 1.525zM36.227 72.236a3.883 3.883 0 01-2.426.846 3.671 3.671 0 01-3.705-3.717 3.93 3.93 0 013.907-4.097 3.975 3.975 0 012.202.666l-.296.975a3.222 3.222 0 00-1.97-.688 2.763 2.763 0 00-2.753 2.922 2.67 2.67 0 002.678 2.986 3.39 3.39 0 002.437-1.069zM44.552 72.977l-.985-2.193h-3.123l-.032.085a91.989 91.989 0 00-.837 2.023H38.41l2.52-5.422c.413-.89.689-1.513.922-2.128l.276-.075 2.54 5.454c.298.657.71 1.514 1.049 2.171zm-1.376-3.061L42 67.279l-1.164 2.637zM53.142 69.397a23.73 23.73 0 001.097-.04c-.052.402-.037 1.438-.037 2.127v.815a4.43 4.43 0 01-2.638.784 3.782 3.782 0 01-3.832-3.718 3.975 3.975 0 014.034-4.097 4.491 4.491 0 012.35.667l-.296.973a3.669 3.669 0 00-2.118-.688 2.775 2.775 0 00-2.88 2.924 2.733 2.733 0 002.806 2.985 3.109 3.109 0 001.535-.338v-1.292c0-.16 0-.445-.02-.635zM64.507 68.984a3.857 3.857 0 01-3.823 4.099 3.592 3.592 0 01-3.611-3.718 3.856 3.856 0 013.823-4.097 3.592 3.592 0 013.61 3.716m-1.09.17a2.676 2.676 0 00-2.638-2.987 2.778 2.778 0 00-2.615 3.029 2.675 2.675 0 002.637 2.987 2.778 2.778 0 002.616-3.029"/></g></symbol><symbol viewBox="0 0 88 88" id="icon--logo--outline--88" xmlns="http://www.w3.org/2000/svg"><g fill="currentColor"><path d="M87 1v86H1V1h86m1-1H0v88h88V0z"/><path d="M13.832 54.2l-1.094-2.39H9.27l-.035.093a99.78 99.78 0 00-.93 2.204H7.015l2.797-5.908c.458-.97.764-1.649 1.023-2.317l.306-.082 2.82 5.942c.33.715.789 1.65 1.165 2.365zm-1.528-3.336l-1.305-2.872-1.293 2.872zM22.65 54.188l-2.115-3.266h-1.281v1.524c0 .449.01 1.338.046 1.66h-1.305c.06-.554.082-2.03.082-2.78v-2.55c0-.739-.023-2.227-.082-2.78.423 0 1.622-.046 2.163-.058 2.07-.035 3.209 1.085 3.174 2.365a2.52 2.52 0 01-1.728 2.354l1.2 1.73c.317.439.964 1.328 1.234 1.65zm-3.396-4.223h1.186a1.53 1.53 0 001.681-1.512c0-.992-.61-1.51-1.845-1.51-.376 0-.705.01-1.012.033-.01.232-.01.497-.01.67zM32.81 46.976c-.906-.011-1.693-.022-2.74-.022-.012.242-.012.541-.012.726v4.766c0 .45.013 1.338.048 1.66h-1.305c.059-.554.082-2.03.082-2.78v-2.503c0-.473-.011-1.223-.035-1.87-1.047 0-1.87.012-2.774.023a9.857 9.857 0 00.047-1.05 99.193 99.193 0 006.783 0 7.232 7.232 0 00-.095 1.05M7.746 67.023c.06-.55.082-2.017.082-2.762v-2.533c0-.734-.022-2.211-.082-2.762a11.516 11.516 0 001.299-.057c-.035.332-.047 1.248-.047 1.696v4.768c0 .435.012 1.33.047 1.65zM20.114 60.605l-.08 4.837c0 .447-.013 1.375.022 1.696l-.304.08-5.367-6.04v4.195c0 .447.011 1.33.047 1.65h-1.286c.07-.55.129-2.018.14-2.763l.047-2.76c.012-.734.012-2.098-.047-2.648l.316-.081 5.414 6.132v-3.176c0-.733-.024-2.21-.094-2.761a11.556 11.556 0 001.286-.057c-.047.333-.082 1.249-.094 1.696M25.8 67.23a4.686 4.686 0 01-2.303-.676l.07-1.215a3.883 3.883 0 002.303.859c.877 0 1.496-.424 1.496-1.273 0-1.602-3.542-1.683-3.542-3.793a2.429 2.429 0 012.584-2.362 3.303 3.303 0 011.917.597l-.386 1.008a2.787 2.787 0 00-1.578-.573c-.854 0-1.368.448-1.368 1.17 0 1.433 3.53 1.5 3.53 3.793A2.476 2.476 0 0125.8 67.23M37.808 59.94c-.9-.012-1.683-.022-2.724-.022-.012.24-.012.538-.012.721v4.734c0 .447.012 1.33.048 1.65h-1.298c.058-.55.081-2.017.081-2.762v-2.487c0-.47-.011-1.215-.035-1.856-1.04 0-1.86.01-2.759.021a9.793 9.793 0 00.046-1.042 98.921 98.921 0 006.747 0 7.304 7.304 0 00-.094 1.042M40.98 67.023c.06-.55.082-2.017.082-2.762v-2.533c0-.734-.023-2.211-.083-2.762a11.511 11.511 0 001.298-.057c-.035.332-.046 1.248-.046 1.696v4.768c0 .435.011 1.33.046 1.65zM51.984 59.94c-.9-.012-1.684-.022-2.724-.022-.013.24-.013.538-.013.721v4.734c0 .447.013 1.33.048 1.65h-1.298c.059-.55.081-2.017.081-2.762v-2.487c0-.47-.01-1.215-.035-1.856-1.04 0-1.86.01-2.758.021a9.791 9.791 0 00.046-1.042 98.868 98.868 0 006.747 0 7.176 7.176 0 00-.094 1.042M62.299 58.978l-2.619 5.869c-.433.973-.714 1.638-.947 2.302l-.304.08-2.619-5.89a54.515 54.515 0 00-1.1-2.351l1.286-.091 2.56 6.018 1.58-3.748a67.02 67.02 0 00.854-2.19zM71.117 59.94c-.9-.012-1.683-.022-2.725-.022-.012.24-.012.538-.012.721v4.734c0 .447.012 1.33.048 1.65H67.13c.058-.55.081-2.017.081-2.762v-2.487c0-.47-.011-1.215-.035-1.856-1.04 0-1.86.01-2.759.021a9.793 9.793 0 00.046-1.042 98.898 98.898 0 006.747 0 7.24 7.24 0 00-.094 1.042M79.375 67.07c-.703-.046-1.567-.059-2.398-.059s-1.707.013-2.397.058c.058-.55.082-2.029.082-2.761v-2.649c0-.744-.024-2.212-.082-2.761a47.934 47.934 0 004.642 0 6.964 6.964 0 00-.094 1.02c-.69-.012-1.403-.023-2.233-.023-.351 0-.702 0-1.04.01-.024.208-.024.504-.024.677v1.731h2.841c-.023.286-.035.596-.035.94h-2.805v2.12c0 .171 0 .481.022.687.34 0 .69.012 1.041.012.947 0 1.766-.012 2.56-.034a8.975 8.975 0 00-.08 1.031M14.157 79.27a4.376 4.376 0 01-2.678.905 3.988 3.988 0 01-4.091-3.972 4.263 4.263 0 014.314-4.377 4.494 4.494 0 012.431.712l-.327 1.04a3.634 3.634 0 00-2.175-.735 2.997 2.997 0 00-3.04 3.123 2.894 2.894 0 002.958 3.19 3.801 3.801 0 002.69-1.142zM23.104 79.972c.07-.544.094-1.992.094-2.728v-.95h-4.292v2.048c0 .43.011 1.313.046 1.629h-1.297c.058-.544.082-1.992.082-2.728v-2.5c0-.724-.024-2.182-.082-2.726a11.45 11.45 0 001.297-.057c-.035.328-.046 1.233-.046 1.675v1.732h4.292v-.623c0-.725-.025-2.183-.094-2.726a12.032 12.032 0 001.321-.057c-.047.328-.059 1.233-.059 1.675v4.706c0 .43.012 1.313.06 1.63zM28.613 79.972c.06-.544.082-1.992.082-2.728v-2.5c0-.725-.022-2.183-.082-2.727a11.456 11.456 0 001.299-.057c-.035.329-.047 1.233-.047 1.675v4.707c0 .43.012 1.313.047 1.63zM40.19 79.27a4.378 4.378 0 01-2.678.905 3.988 3.988 0 01-4.091-3.972 4.263 4.263 0 014.314-4.377 4.494 4.494 0 012.43.712l-.326 1.04a3.633 3.633 0 00-2.175-.735 2.997 2.997 0 00-3.04 3.123 2.894 2.894 0 002.958 3.19 3.801 3.801 0 002.69-1.142zM49.383 80.062l-1.087-2.342h-3.45l-.034.091c-.304.68-.632 1.46-.925 2.161h-1.285l2.782-5.793c.456-.95.76-1.617 1.017-2.273l.305-.08 2.806 5.826c.328.703.784 1.618 1.157 2.32zm-1.52-3.27l-1.297-2.817-1.286 2.817zM58.868 76.237a26.88 26.88 0 001.212-.043c-.058.43-.041 1.537-.041 2.273v.87a5.004 5.004 0 01-2.913.838 4.113 4.113 0 01-4.232-3.972 4.318 4.318 0 014.454-4.378 5.082 5.082 0 012.596.713l-.328 1.04a4.143 4.143 0 00-2.338-.735 3.014 3.014 0 00-3.18 3.123 2.967 2.967 0 003.098 3.19 3.528 3.528 0 001.695-.362v-1.38c0-.17 0-.475-.022-.679zM71.417 75.796a4.182 4.182 0 01-4.222 4.379 3.899 3.899 0 01-3.987-3.972 4.18 4.18 0 014.221-4.378 3.9 3.9 0 013.988 3.971m-1.204.182a2.898 2.898 0 00-2.913-3.192 3.004 3.004 0 00-2.887 3.237 2.897 2.897 0 002.91 3.191 3.004 3.004 0 002.89-3.236"/></g></symbol><symbol viewBox="0 0 92 92" id="icon--logo--outline--92" xmlns="http://www.w3.org/2000/svg"><g fill="currentColor"><path d="M91 1v90H1V1h90m1-1H0v92h92V0z"/><path d="M14.445 56.001l-1.14-2.54H9.687l-.036.098c-.32.738-.663 1.583-.97 2.343H7.332l2.918-6.28c.478-1.03.798-1.752 1.067-2.463l.32-.087 2.943 6.316c.345.76.822 1.755 1.214 2.514zm-1.594-3.546l-1.361-3.052-1.349 3.052zM23.645 55.989l-2.207-3.472H20.1v1.62c0 .477.011 1.422.049 1.765h-1.361c.061-.589.085-2.16.085-2.956v-2.71c0-.785-.024-2.367-.085-2.956.441 0 1.691-.048 2.256-.06 2.159-.037 3.347 1.153 3.311 2.513a2.675 2.675 0 01-1.803 2.502l1.252 1.84c.33.466 1.006 1.41 1.287 1.753zM20.101 51.5h1.238a1.608 1.608 0 001.754-1.607c0-1.055-.638-1.605-1.925-1.605-.393 0-.736.011-1.056.035-.01.246-.01.528-.01.711zM34.243 48.323c-.945-.012-1.766-.024-2.858-.024-.013.258-.013.576-.013.772v5.066c0 .477.013 1.422.05 1.765h-1.36c.06-.589.084-2.159.084-2.955v-2.661c0-.503-.011-1.3-.036-1.987-1.092 0-1.95.012-2.894.024a10.674 10.674 0 00.049-1.116 101.42 101.42 0 007.077 0 7.828 7.828 0 00-.099 1.116M8.656 69.78c.063-.585.086-2.146.086-2.938v-2.696c0-.78-.023-2.352-.086-2.938a11.909 11.909 0 001.362-.06c-.037.353-.049 1.328-.049 1.804v5.073c0 .462.012 1.415.049 1.756zM21.67 62.951l-.085 5.147c0 .476-.012 1.464.024 1.805l-.318.085-5.63-6.427v4.463c0 .476.012 1.416.05 1.756h-1.35c.074-.585.135-2.146.147-2.939l.05-2.937c.012-.781.012-2.233-.05-2.818L14.84 61l5.679 6.524v-3.378c0-.78-.025-2.352-.098-2.938a11.95 11.95 0 001.349-.06c-.05.353-.087 1.328-.1 1.804M27.633 70a4.864 4.864 0 01-2.415-.72l.073-1.292a4.04 4.04 0 002.415.914c.92 0 1.57-.45 1.57-1.354 0-1.705-3.715-1.791-3.715-4.036A2.563 2.563 0 0128.27 61a3.43 3.43 0 012.011.635l-.405 1.073a2.898 2.898 0 00-1.654-.61c-.897 0-1.436.477-1.436 1.245 0 1.524 3.704 1.597 3.704 4.036A2.613 2.613 0 0127.633 70M40.229 62.244a196.86 196.86 0 00-2.857-.023c-.014.255-.014.572-.014.767v5.037c0 .475.013 1.414.05 1.756h-1.36c.06-.586.084-2.147.084-2.94v-2.645c0-.5-.011-1.293-.037-1.975-1.09 0-1.95.01-2.893.023a10.568 10.568 0 00.049-1.109c1.116.036 2.159.06 3.495.06s2.452-.024 3.581-.06a7.88 7.88 0 00-.098 1.109M43.554 69.78c.063-.585.087-2.146.087-2.938v-2.696c0-.78-.024-2.352-.087-2.938a11.904 11.904 0 001.362-.06c-.037.353-.049 1.328-.049 1.804v5.073c0 .462.012 1.415.049 1.756zM55.097 62.244c-.945-.013-1.766-.023-2.858-.023-.013.255-.013.572-.013.767v5.037c0 .475.013 1.414.05 1.756h-1.36c.06-.586.084-2.147.084-2.94v-2.645c0-.5-.012-1.293-.036-1.975-1.092 0-1.95.01-2.894.023a10.566 10.566 0 00.049-1.109c1.115.036 2.159.06 3.495.06s2.452-.024 3.581-.06a7.741 7.741 0 00-.098 1.109M65.915 61.22l-2.747 6.245c-.453 1.035-.748 1.742-.993 2.449l-.319.086-2.746-6.268a58.54 58.54 0 00-1.154-2.5l1.35-.097 2.685 6.402 1.656-3.987c.294-.72.614-1.561.896-2.33zM75.164 62.244c-.945-.013-1.765-.023-2.857-.023-.013.255-.013.572-.013.767v5.037c0 .475.013 1.414.05 1.756h-1.361c.061-.586.085-2.147.085-2.94v-2.645c0-.5-.012-1.293-.037-1.975-1.091 0-1.95.01-2.893.023a10.568 10.568 0 00.048-1.109c1.116.036 2.16.06 3.496.06s2.451-.024 3.58-.06a7.81 7.81 0 00-.098 1.109M83.826 69.83c-.737-.05-1.644-.062-2.515-.062s-1.791.013-2.514.061c.06-.585.086-2.158.086-2.938v-2.818c0-.791-.025-2.353-.086-2.938a49.629 49.629 0 004.869 0 7.513 7.513 0 00-.1 1.085c-.722-.012-1.47-.024-2.341-.024-.368 0-.736 0-1.092.012-.024.22-.024.536-.024.72v1.841h2.98a12.27 12.27 0 00-.037 1H80.11v2.256c0 .182 0 .512.024.73.355 0 .724.013 1.092.013.993 0 1.852-.012 2.685-.036a9.684 9.684 0 00-.085 1.098M15.034 83.18a4.494 4.494 0 01-2.809.98 4.252 4.252 0 01-4.291-4.304 4.55 4.55 0 014.524-4.745 4.604 4.604 0 012.55.772l-.343 1.128a3.732 3.732 0 00-2.28-.797A3.2 3.2 0 009.195 79.6c0 2.243 1.374 3.457 3.102 3.457a3.925 3.925 0 002.822-1.238zM24.418 83.94c.073-.59.098-2.159.098-2.957v-1.028h-4.5v2.22c0 .465.01 1.423.048 1.766h-1.362c.061-.59.087-2.16.087-2.957v-2.71c0-.785-.026-2.366-.087-2.955a11.623 11.623 0 001.362-.062c-.037.356-.049 1.337-.049 1.816v1.876h4.501v-.675c0-.785-.025-2.366-.098-2.955a12.214 12.214 0 001.386-.062c-.05.356-.062 1.337-.062 1.816v5.101c0 .466.012 1.424.061 1.766zM30.196 83.94c.063-.59.086-2.159.086-2.957v-2.71c0-.785-.023-2.365-.086-2.955a11.63 11.63 0 001.362-.062c-.036.356-.05 1.337-.05 1.816v5.102c0 .465.014 1.423.05 1.766zM42.34 83.18a4.497 4.497 0 01-2.81.98 4.252 4.252 0 01-4.291-4.304 4.55 4.55 0 014.525-4.745 4.603 4.603 0 012.55.772l-.344 1.128a3.731 3.731 0 00-2.281-.797 3.2 3.2 0 00-3.188 3.385c0 2.243 1.374 3.457 3.102 3.457a3.925 3.925 0 002.821-1.238zM51.98 84.039l-1.14-2.54h-3.617l-.036.1c-.32.735-.663 1.58-.97 2.342h-1.349l2.919-6.28c.478-1.03.797-1.753 1.066-2.464l.32-.087 2.943 6.316c.345.761.822 1.754 1.214 2.515zm-1.593-3.545l-1.361-3.054-1.349 3.054zM61.93 79.892c.489-.006.731-.018 1.27-.046-.061.465-.043 1.666-.043 2.464v.943a5.13 5.13 0 01-3.055.908 4.38 4.38 0 01-4.439-4.305 4.604 4.604 0 014.672-4.746 5.202 5.202 0 012.723.772l-.344 1.128a4.249 4.249 0 00-2.453-.797 3.213 3.213 0 00-3.335 3.386 3.165 3.165 0 003.25 3.457 3.6 3.6 0 001.778-.392V81.17c0-.185 0-.515-.024-.736zM75.09 79.415a4.467 4.467 0 01-4.427 4.746 4.16 4.16 0 01-4.182-4.305 4.466 4.466 0 014.428-4.746 4.16 4.16 0 014.182 4.304m-1.263.197c0-2.171-1.326-3.46-3.055-3.46-1.814 0-3.028 1.596-3.028 3.509 0 2.17 1.323 3.46 3.053 3.46 1.816 0 3.03-1.596 3.03-3.509"/></g></symbol><symbol viewBox="0 0 163.2 22" id="icon--magazine-logo" xmlns="http://www.w3.org/2000/svg"><g fill="currentColor"><path d="M1.7 14.5l1-6.9c.3-2 .6-5 .8-6.5L4 .9c.6 1.5 1.3 2.9 1.8 4.3l5.5 12.5L17 5.2C17.5 4 18.4 2 18.8.9h.6c.1 1.1.6 5.2.8 6.4l1 7.1c.3 1.8.8 5.3 1.1 6.7l-2.3.1c-.1-.9-.3-2.8-.5-4.3L18.2 6.7C17 9.5 12 20.6 11.7 21.4l-.6.1L4.6 6.7 3.2 17.1c-.1 1.2-.4 3.1-.4 4H.7c.3-1.7.7-4.6 1-6.6zM33.2 6.9c1.2-2.7 1.9-4.3 2.5-5.8l.6-.2L43 15.8c.9 2 1.9 4.2 2.5 5.3l-2.2.2-2.9-6.5h-8.7l-.4 1c-.8 1.9-1.7 4.1-2.1 5.3h-2.3l6.3-14.2zm-.8 6.2h7.2L36 4.9l-3.6 8.2zM60.2 21.6C54.3 21.6 50 17 50 11.5 50 5.6 54.4.9 60.5.9c2.2 0 4.5.7 6 1.7l-.5 2c-1.4-1.1-3.6-1.8-5.7-1.8-4.9 0-8.2 3.7-8.2 8.5 0 5.1 3.6 8.4 8.3 8.4 1.9 0 3.2-.4 4.5-1.1v-4.2c0-.4 0-1.3-.1-1.8h-2c-1.4 0-2.2 0-3.8.1.1-.7.1-1.4 0-1.9 1.6.1 2.6.1 3.8.1 1.8 0 2.7 0 4.2-.1-.1 1.1-.1 4.7-.1 6.4v2.5c-1.5.9-3.5 1.9-6.7 1.9zM78.4 6.9c1.2-2.7 1.9-4.3 2.5-5.8l.6-.2 6.7 14.8c.9 2 1.9 4.2 2.5 5.3l-2.2.2-2.9-6.5h-8.7l-.4 1c-.8 1.9-1.7 4.1-2.1 5.3H72l6.4-14.1zm-.8 6.2h7.2l-3.6-8.2-3.6 8.2zM110.2 1.6L97.7 19.3h4.5c2.8 0 5.5 0 7.5-.1-.1.6-.2 1.2-.2 1.9-1.7-.1-4.6-.1-7.2-.1-2.8 0-5.5 0-7.4.1l-.4-.4L107 3h-4.3c-2.6 0-5.2 0-7.1.1.1-.6.1-1.2.1-1.9 2.3.1 4.1.1 7 .1s5.3 0 7.1-.1l.4.4zM116.5 21.1c.1-1.3.2-4.9.2-6.7V8.1c0-1.8-.1-5.4-.2-6.7.8 0 1.6 0 2.3-.1-.1.8-.1 3-.1 4.1V17c0 1.1 0 3.2.1 4h-2.3zM127.4 14.3l.1-6.6c0-1.8 0-5.4-.1-6.7l.6-.1 13.5 16.4V8.1c0-1.8-.1-5.4-.2-6.7.8 0 1.6 0 2.3-.1-.1.8-.1 3-.1 4.1l-.1 11.8c0 1.1 0 3.5.1 4.3l-.6.1-13.5-16.2V17c0 1.1 0 3.2.1 4h-2.3c.1-1.3.2-4.8.2-6.7zM163 21.2c-1.7-.1-3.7-.1-5.6-.1-1.9 0-3.9 0-5.5.1.1-1.3.1-5 .1-6.9V8.1c0-1.8 0-5.5-.1-6.9 1.6.1 3.4.1 5.3.1s3.8-.1 5.5-.1c-.1.6-.2 1.2-.2 1.8h-8.4v6.8l7.3-.1c-.1.5-.1 1.2-.1 1.8h-7.2v7.8h3.1c2.2 0 4.1 0 6-.1-.1.7-.2 1.3-.2 2z"/></g></symbol><symbol viewBox="0 0 24 24" id="icon--menu--24" xmlns="http://www.w3.org/2000/svg"><path fill="none" stroke="currentColor" stroke-miterlimit="10" d="M4 12.5h16M4 7.5h16M4 17.5h16"/></symbol><symbol viewBox="0 0 16 16" id="icon--minus" xmlns="http://www.w3.org/2000/svg"><path fill="none" stroke="currentColor" stroke-miterlimit="10" stroke-width="2" d="M15 8H1"/></symbol><symbol viewBox="0 0 24 24" id="icon--minus--24" xmlns="http://www.w3.org/2000/svg"><path fill="currentColor" d="M20 11v2H4v-2z"/></symbol><symbol viewBox="0 0 51.1 56.9" fill="#0C909A" id="icon--mobile-app" xmlns="http://www.w3.org/2000/svg"><path d="M42.5 38.1L26 19.5v3.1l14.3 16.1-14.1 12.6L3.5 25.8l14.2-12.6 3.8 4.3v-3.1l-1.7-2c-1.9-2.1-5.2-2.3-7.3-.4L3 20.4c-2.1 1.9-2.3 5.2-.4 7.3l22.8 25.7c1.9 2.1 5.2 2.3 7.3.4l9.5-8.4c2.1-1.9 2.2-5.2.3-7.3zm-6.1 10.5c-.7.6-1.8.6-2.4-.1s-.6-1.8.1-2.4c.7-.6 1.8-.6 2.4.1s.6 1.7-.1 2.4z"/><path d="M36.6 5.4c-3.3-2.2-8.3-2.4-12-1.1-.2-.9.6-1.8.3-2.6-.3-.5-.9-.8-1.5-.7s-1 .6-.9 1.2c0 .3.2.6.4.9.2.5.2 1.1.2 1.7-.1 10.3-.1 20.5-.2 30.8h.9c.1-5.7.2-11.2.3-16.9 0-.3 0-.6.2-.9.2-.2.4-.4.7-.6 2.3-1.3 5.2-1.9 7.9-1.6 2.8.3 5.4 1.4 8.2 1.2 2-.2 3.8-1 5.3-2.2s2.7-2.6 3.7-4.1c-.3.4-3.1 0-3.6 0-1.3-.2-2.6-.5-3.8-1-2.3-.9-4.2-2.5-6.1-4.1m-9.9 6.2c.1 2.6-2 4.6-2.5 5.6l.3-12.1c.5 1.1 2.2 4.1 2.2 6.5"/><circle cx="23.5" cy="35.6" r="1.3"/></symbol><symbol viewBox="0 0 200 200" id="icon--mobile-ticket" xmlns="http://www.w3.org/2000/svg"><path d="M122.3 131.26v28.77l-71.29.12-.18-128.32 71.3-.13v24.73l7.73-7.73V34.54A19.61 19.61 0 00110.28 15l-47.66.08A19.62 19.62 0 0043.1 34.69l.22 129.14a19.63 19.63 0 0019.59 19.53l47.67-.09a19.61 19.61 0 0019.52-19.59l-.1-39.86zm-14.25-109V25H66.38v-2.64zm-21.32 155.5a6.41 6.41 0 116.4-6.42 6.41 6.41 0 01-6.4 6.42zm42-122.2l16.43-16.14 10.66 10.85A7.75 7.75 0 00166.34 61L177 71.81 160.58 88l-31.83-32.44zm30.35 33.85l-56.28 55.32-10.65-10.84a7.75 7.75 0 00-10.52-10.71L71 112.34 127.26 57l31.83 32.39z"/></symbol><symbol viewBox="0 0 16 16" id="icon--new-window" xmlns="http://www.w3.org/2000/svg"><path fill="none" stroke="currentColor" stroke-miterlimit="10" d="M7 2.5H2.5v11h11V9M9 2.5h4.5V7M7.5 8.5l6-6"/></symbol><symbol viewBox="0 0 200 200" id="icon--no-checkroom" xmlns="http://www.w3.org/2000/svg"><path d="M138.6 157.5c-.2-2-.5-4.1-.7-6.1l-4.7-6.5c.7 5.4 1.3 10.8 2 16.2-10.6 2.3-21.4 3.4-32.3 3.5v-62.1l-4-5.6v67.6c-10.6-.1-21.2-1.2-31.6-3.5.3-2.6.6-5.1.9-7.6 1.2-9.7 2.4-19.4 3.5-29.1 1-8 2-15.9 2.9-23.9.6-5.6 1-11.3 1.5-17 .2-1.8.3-3.7.5-5.5.1-1.6-.5-2.6-1.7-2.6-1.2-.1-2 .8-2.1 2.4-.6 7.2-1.2 14.3-1.8 21.5-.1.9-.4 1.7-.7 2.6l-9.6 28.8c-.1.4-.3.8-.5 1.3l-13.4-4.5c.1-.5.2-.9.4-1.4 7.7-23.1 15.4-46.1 23.1-69.2L67.6 53c-8.3 24.7-16.5 49.5-24.8 74.3-.7 2-.3 2.7 1.7 3.3l15.4 5.1c2.2.7 2.9.4 3.6-1.8l4.3-13c.1-.3.2-.6.4-.9.1.5.2 1 .1 1.5-.5 3.9-1 7.8-1.4 11.7-1.2 9.5-2.3 19.1-3.5 28.6-.2 1.8.3 2.6 2.1 2.9 10 2.1 20.1 3.3 30.2 3.6 14 .4 27.9-.9 41.6-3.7 1.1-.1 1.9-1 1.9-2.1 0-.1 0-.2-.1-.3-.1-1.7-.3-3.2-.5-4.7zM72.2 50.6c.5-1.5 1-3 1.5-4.6.3-1 1-1.8 2-2.1 2.4-.8 4.7-1.8 7-2.7.2 1.9.6 3.8 1 5.7 1.3 4.4 4.4 8 8.6 10 .9.5 2.1.4 2.8-.4 1.2-1 2.4-2.1 3.7-3.2v34.6l4 5.6V52.7c1.5 1.3 2.8 2.5 4.1 3.6s1.9 1.2 3.5.4c5.3-2.6 8.7-7.9 9-13.7 0-.5.1-1.1.1-1.8 2.8 1.1 5.4 2 7.9 3.1.6.4 1 1.1 1.2 1.8 4.7 13.9 9.3 27.9 14 41.8l12.7 38c.1.4.2.7.4 1.2l-13.5 4.5c-.2-.4-.3-.8-.5-1.2-3.3-9.9-6.7-19.9-9.9-29.9-.5-1.9-.7-3.8-.8-5.7-.5-5.6-.9-11.2-1.4-16.8 0-.4-.1-.9-.2-1.3-.1-1-1-1.7-1.9-1.5h-.1c-.9 0-1.7.7-1.7 1.6v.2c.1 1.7.2 3.4.4 5.1 1.4 13.4 2.8 26.9 4.3 40.3.4 3.8.9 7.6 1.3 11.4l4.6 6.5c-.4-3.2-.8-6.4-1.2-9.7-.5-3.8-.9-7.6-1.4-11.4h.1l.6 1.5 4.2 12.7c.8 2.3 1.4 2.6 3.7 1.9l15.4-5.1c2-.8 2.3-1.5 1.7-3.4-2.8-8.3-5.5-16.7-8.3-25-6.3-19-12.7-38.1-19-57.2-.6-2.2-2.2-3.9-4.4-4.6-1.9-.6-3.7-1.5-5.6-2.1-2.6-.8-5-2.3-6.8-4.3-.9-1.1-2.1-2-3-3.1-.6-.7-1.6-1.1-2.5-1h-5.3l5 2.6-.2.5-3.9-2-2.7-1.6v-1.1c0-4.6-3.6-2.8-3.6-5.7 0-1.3 1-2.4 2.3-2.5 3 0 1.7 3.6 3.6 3.6.8 0 1.4-.6 1.4-1.4v-.1c-.1-2.7-2.3-4.9-5.1-5-2.8 0-5.1 2.3-5.1 5 0 2.5 1.4 3.9 3.5 5.1.1.5.1 1 .1 1.5L95.5 31l-3 1.8-.3-.5 5.4-3h-5.4c-1.1-.1-2.1.3-2.8 1.2-3.3 4.2-8 7.3-13.2 8.6-.8.2-1.6.6-2.4.9-1.9.6-3.4 2.2-4 4.2-.2.7-.5 1.4-.7 2.2l3.1 4.2zm38-6.9c.9-2.4 1.5-4.9 2.2-7.4 3 1.9 3.8 4.2 2.9 8.3-.7 3.6-3 6.7-6.3 8.5l-3.9-3.4c2.5-1.3 4.2-3.5 5.1-6zm-12-10h6.6l3.6 2.1c-.4 3.4-1.2 6.7-3.6 9.4-1.8 2-4.9 2.2-6.9.5-.2-.2-.5-.4-.6-.7-1.8-2.1-2.5-4.8-3.1-7.5-.1-.4-.2-.9-.2-1.3l4.2-2.5zm-11.4 6.6c.1-.7.3-1.3.8-1.8.7-.8 1.5-1.6 2.5-2.6 1.1 5.5 2.1 10.6 7.1 13.8l-3.8 3.4c-3.3-1.7-5.6-4.8-6.2-8.4-.3-1.4-.4-2.9-.4-4.4z"/><path d="M44.4 22.9c-41.7 30-51.2 88-21.2 129.7s88 51.2 129.7 21.2 51.2-88 21.2-129.7C156.6 19.8 128.5 5.4 98.6 5.4c-18.8 0-37.2 5.7-52.7 16.4M10.8 98.3c0-27.7 13-53.7 35.2-70.3l100.4 144c-40.6 26.4-95 14.9-121.4-25.7-9.3-14.3-14.2-31-14.2-48zM150.6 169L50.2 25.1c40.6-26.6 95-15.3 121.6 25.2 25.5 38.9 16.2 91-21.2 118.7z"/></symbol><symbol viewBox="0 0 200 200" id="icon--no-dining" xmlns="http://www.w3.org/2000/svg"><path d="M110.7 111.9v1.4h1zM118 113.3h.2v.2l13.7 19.2V45.6c0-5.9-4.8-10.6-10.6-10.6-5.9 0-10.6 4.8-10.6 10.6v57.5l7.3 10.2zM118.2 122.4v34.7c0 3.8 3.1 6.8 6.8 6.8 3.8 0 6.9-3.1 6.9-6.8v-15.5l-13.7-19.2z"/><g><path d="M94.8 80.8c.4-1 .6-2.1.6-3.2V37.9c0-1.4-1.1-2.5-2.5-2.5s-2.5 1.1-2.5 2.5v29.2h-4.1V37.9c0-1.4-1.1-2.5-2.5-2.5s-2.5 1.1-2.5 2.5V62l13.5 18.8zM77.2 56.3V37.9c-.1-1.2-1.1-2.2-2.3-2.3-1.4-.1-2.5 1-2.6 2.3v11.4l4.9 7zM68.2 43.6v-5.7c0-1.4-1.1-2.5-2.5-2.5-1 0-1.9.6-2.3 1.5l4.8 6.7zM78.6 67.1h-1.4v-1.9l-5-6.9v8.9h-4.1V52.5l-5-7v32.2c0 5.1 4.2 9.2 9.3 9.2v70.3c0 3.8 3.1 6.8 6.9 6.8s6.8-3.1 6.8-6.9V86.7c2 0 3.8-.6 5.3-1.7L78.6 67.1z"/></g><path d="M45.4 22.9c-41.7 30-51.2 88-21.2 129.7s88 51.2 129.7 21.2 51.2-88 21.2-129.7C157.6 19.8 129.5 5.4 99.6 5.4c-18.8 0-37.2 5.7-52.7 16.4M11.8 98.3c0-27.7 13-53.7 35.2-70.3l100.4 144c-40.6 26.4-95 14.9-121.4-25.7-9.3-14.3-14.2-31-14.2-48zM151.6 169L51.2 25.1c40.6-26.6 95-15.3 121.6 25.2 25.5 38.9 16.2 91-21.2 118.7z"/></symbol><symbol viewBox="0 0 80 56" id="icon--no-image" xmlns="http://www.w3.org/2000/svg"><path fill="#ccc" d="M4 52l28-28 28 28H4z"/><path fill="#ccc" d="M44 52l16-16 16 16H44z"/><circle cx="58" cy="18" r="6" fill="#ccc"/><path d="M79 1v54H1V1h78m1-1H0v56h80V0z" fill="#ccc"/></symbol><symbol viewBox="0 0 16 16" id="icon--pause" xmlns="http://www.w3.org/2000/svg"><path fill="currentColor" d="M4 3h2v10H4zM10 3h2v10h-2z"/></symbol><symbol viewBox="0 0 16 16" id="icon--pencil" xmlns="http://www.w3.org/2000/svg"><path d="M13.53 4.47L14 4l.6-.6c.2-.2.2-.6 0-.8l-1.3-1.3c-.2-.2-.5-.2-.7 0L12 2l-.47.47 2 2zm-3.06-.94l-.07.07L2 12v2h2l8.4-8.4.07-.07" fill="currentColor"/></symbol><symbol viewBox="0 0 200 200" id="icon--physical-distancing" xmlns="http://www.w3.org/2000/svg"><path d="M28.3 60.16a9.06 9.06 0 10-9-9 9.05 9.05 0 009 9zM51.44 109.87l4-3.21a221.44 221.44 0 00-8.68-24.38 76.84 76.84 0 00-7-12.9 24.35 24.35 0 00-5-5.53 11.14 11.14 0 00-13.47.45 28.67 28.67 0 00-5.06 6.08A84.16 84.16 0 009.41 83.5a209.72 209.72 0 00-8.07 22.88c-.26.87-.52 1.75-.77 2.63l4 2 11.36-21.72C14.24 117.85 19.25 158 19.25 158h18.1s5.1-40.11 3.41-68.61zM171.89 60.16a9.06 9.06 0 10-9-9 9.05 9.05 0 009 9zM195 109.87l4-3.21a219.45 219.45 0 00-8.69-24.38 75.43 75.43 0 00-7-12.9 24.07 24.07 0 00-5-5.53 11.14 11.14 0 00-13.47.45 28.67 28.67 0 00-5.06 6.08A84.16 84.16 0 00153 83.5a209.72 209.72 0 00-8.07 22.88c-.26.87-.52 1.75-.77 2.63l4 2 11.33-21.77c-1.69 28.56 3.32 68.66 3.32 68.66h18.1s5.1-40.11 3.41-68.61z"/><path fill="none" stroke="currentColor" stroke-width="3" stroke-miterlimit="10" d="M63.16 79h73.88"/><path d="M68.99 83.97L64.02 79l4.97-4.97h-4.21L59.81 79l4.97 4.97h4.21zM131.21 83.97l4.97-4.97-4.97-4.97h4.22l4.96 4.97-4.96 4.97h-4.22z"/></symbol><symbol viewBox="0 0 16 16" id="icon--play" xmlns="http://www.w3.org/2000/svg"><path fill="currentColor" d="M13 8L5 3v10l8-5z"/></symbol><symbol viewBox="0 0 48 48" id="icon--play--48" xmlns="http://www.w3.org/2000/svg"><circle cx="24" cy="24" r="23.9" opacity=".5"/><path d="M18.87 13.12c-.48-.28-.87-.05-.87.5v20.76c0 .56.39.78.87.51l17.77-10.38a.54.54 0 000-1z" fill="#fff"/></symbol><symbol viewBox="0 0 64 64" id="icon--play--64" xmlns="http://www.w3.org/2000/svg"><circle cx="32" cy="32" r="31.99" opacity=".5"/><path d="M23.88 17.12c-.49-.28-.88-.05-.88.51v28.74c0 .56.4.8.88.51l24.76-14.36a.54.54 0 000-1z" fill="#fff"/></symbol><symbol viewBox="0 0 96 96" id="icon--play--96" xmlns="http://www.w3.org/2000/svg"><circle cx="48" cy="48" r="47.99" opacity=".5"/><path d="M36.29 26.18c-.71-.41-1.29-.08-1.29.75v42.14c0 .83.58 1.17 1.29.75l36.18-21.06a.8.8 0 000-1.5z" fill="#fff"/></symbol><symbol viewBox="0 0 16 16" id="icon--plus" xmlns="http://www.w3.org/2000/svg"><path fill="none" stroke="currentColor" stroke-miterlimit="10" stroke-width="2" d="M15 8H1M8 15V1"/></symbol><symbol viewBox="0 0 24 24" id="icon--plus--24" xmlns="http://www.w3.org/2000/svg"><path fill="currentColor" d="M20 11h-7V4h-2v7H4v2h7v7h2v-7h7v-2z"/></symbol><symbol viewBox="0 0 24 24" id="icon--print--24" xmlns="http://www.w3.org/2000/svg"><path d="M20 7h-3V5a1.08 1.08 0 00-1-1H8a1.08 1.08 0 00-1 1v2H4a1.08 1.08 0 00-1 1v8a1.08 1.08 0 001 1h2v-1H4V8h16v8h-2v1h2a1.08 1.08 0 001-1V8a1.08 1.08 0 00-1-1zm-4 0H8V5h8z" fill="currentColor"/><path d="M17 13H7v7h10v-6zm-1 6H8v-5h8z" fill="currentColor"/></symbol><symbol viewBox="0 0 48 29" id="icon--quote--48" xmlns="http://www.w3.org/2000/svg"><path d="M17.4 2.713c-.1-.101-.3-.101-.4-.202A9.66 9.66 0 0012.2 1h-.5a9.873 9.873 0 109.9 9.873 11.216 11.216 0 00-.7-3.728 13.337 13.337 0 012.3 7.355 12.54 12.54 0 01-12.3 12.694 11.605 11.605 0 01-6.1-1.713l-.4.806A12.776 12.776 0 0010.9 28 13.332 13.332 0 0024 14.5a13.642 13.642 0 00-6.6-11.787zM40.4 2.713c-.1-.101-.3-.101-.4-.202A9.66 9.66 0 0035.2 1h-.5a9.873 9.873 0 109.9 9.873 11.216 11.216 0 00-.7-3.728 13.337 13.337 0 012.3 7.355 12.54 12.54 0 01-12.3 12.694 11.605 11.605 0 01-6.1-1.713l-.4.806A12.776 12.776 0 0033.9 28 13.332 13.332 0 0047 14.5a13.642 13.642 0 00-6.6-11.787z" fill="currentColor"/></symbol><symbol viewBox="0 0 68 40" id="icon--quote--68" xmlns="http://www.w3.org/2000/svg"><path d="M57.5 3.5A18.67 18.67 0 0054.3 2a13.41 13.41 0 00-4.4-1h-.8a14.09 14.09 0 1012.2 7.2 18.25 18.25 0 014.6 12 18 18 0 01-17.9 18 17.22 17.22 0 01-8.9-2.4l-.6 1.1a19 19 0 0028.6-16.6 19.5 19.5 0 00-9.6-16.8zM23.5 3.5A18.67 18.67 0 0020.3 2a13.41 13.41 0 00-4.4-1h-.8a14.09 14.09 0 1012.1 7.2 18.25 18.25 0 014.6 12 18 18 0 01-17.9 18A17.22 17.22 0 015 35.8l-.6 1.1a19.32 19.32 0 009.5 2.6 19.35 19.35 0 009.6-36z" fill="currentColor"/></symbol><symbol viewBox="0 0 76 44" id="icon--quote--76" xmlns="http://www.w3.org/2000/svg"><path d="M25.867 3.014a22.914 22.914 0 00-4.52-2.01A16.234 16.234 0 0015.922 0a15.922 15.922 0 1015.872 15.972 15.49 15.49 0 00-2.511-8.538A20.171 20.171 0 0135.41 22a20.583 20.583 0 01-20.492 20.493A20.312 20.312 0 014.67 39.78l-.703 1.206a21.236 21.236 0 0010.95 2.913 21.91 21.91 0 0010.95-40.885z" fill="currentColor"/><path d="M64.867 3.014a22.914 22.914 0 00-4.52-2.01A16.234 16.234 0 0054.922 0a15.922 15.922 0 1015.872 15.972 15.49 15.49 0 00-2.511-8.538A20.171 20.171 0 0174.41 22a20.583 20.583 0 01-20.492 20.493A20.312 20.312 0 0143.67 39.78l-.703 1.206a21.236 21.236 0 0010.95 2.913 21.91 21.91 0 0010.95-40.886z" fill="currentColor"/></symbol><symbol viewBox="0 0 16 16" id="icon--return" xmlns="http://www.w3.org/2000/svg"><path fill="currentColor" d="M3 8h9v2H3zM14 3v7h-2V3z"/><path fill="currentColor" d="M6 5L2 9l4 4V5z"/></symbol><symbol viewBox="0 0 24 24" id="icon--search--24" xmlns="http://www.w3.org/2000/svg"><circle cx="10.5" cy="10.5" r="5.5" fill="none" stroke="currentColor" stroke-linejoin="bevel" stroke-width="1.4"/><path fill="none" stroke="currentColor" stroke-linecap="square" stroke-linejoin="bevel" stroke-width="1.4" d="M14.5 14.5L19 19"/></symbol><symbol viewBox="0 0 24 24" id="icon--share--24" xmlns="http://www.w3.org/2000/svg"><circle cx="6" cy="12" r="1.9" fill="currentColor"/><circle cx="16" cy="6" r="1.95" fill="currentColor"/><circle cx="16" cy="18" r="1.9" fill="currentColor"/><path fill="none" stroke="currentColor" stroke-miterlimit="10" d="M16 6L6 12l10 6"/></symbol><symbol viewBox="0 0 200 200" id="icon--showing-symptoms" xmlns="http://www.w3.org/2000/svg"><style/><path fill="none" stroke="currentColor" stroke-width="4" stroke-miterlimit="10" d="M46.5 75.1c-6.4.8-11 6.7-10.2 13.1.7 5.9 5.7 10.3 11.6 10.3h.2c1.9 8.2 5.1 15.6 9.3 22M71.7 135.1c1 .7 2 1.3 3 1.9 0 0 .1 25.2-16.7 33.6 0 0 35.2 21.8 72.1 0 0 0-20.2-9-15.2-34.7 11.9-7.4 21-21 24.8-37.5 6-.6 10.5-5.7 10.5-11.7 0-5.5-5.5-10.1-10.6-11.4"/><path fill="none" stroke="currentColor" stroke-width="4" stroke-miterlimit="10" d="M45.3 75.1s43.6-.8 60.4-21c0 0 11.7 23.5 33.5 21.8 0 0 7.8-54.3-43.9-54.3.1-.1-50-3.6-50 53.5z"/><path d="M167.8 43v15.2c0 .5.2 1 .5 1.3 2.9 3.2 3.5 7.9 1.6 11.7-1.5 3.5-4.8 5.9-8.6 6.3-4.8.6-9.5-2-11.4-6.5-1.7-3.8-1.1-8.2 1.7-11.3.4-.5.6-1.1.6-1.8V43.3 28c0-3.4 2.1-6.4 5.3-7.5 2.2-.7 4.7-.4 6.6.9 2.1 1.3 3.5 3.6 3.7 6.1.1.5.1 1.1.1 1.6l-.1 13.9zm-12.6.6v15c.1 1-.3 2-1.1 2.7-1.7 1.7-2.4 4-2 6.3.5 4.3 4.5 7.3 8.8 6.8h.2c4.3-.7 7.3-4.7 6.6-9.1v-.1c-.3-1.7-1.2-3.3-2.5-4.5-.3-.2-.5-.6-.5-1v-6.8-20.6c0-1.6 0-3.2-.1-4.7 0-2.2-1.6-4-3.8-4.4-1.2-.3-2.5-.1-3.5.7-1.3 1-2.1 2.6-2.1 4.2v15.5z"/><path d="M162.1 53.2V61c0 .4.2.8.5.9 2.6 1.5 3.5 4.7 2 7.3-1.5 2.6-4.7 3.5-7.3 2s-3.5-4.7-2-7.3c.2-.3.4-.7.7-1 .5-.5 1-.8 1.5-1.2.2-.1.4-.4.4-.6V37.6c0-1.2.9-2.1 2.1-2.1 1.2 0 2.1.9 2.1 2.1v15.6z"/><path fill="none" stroke="currentColor" stroke-width="4" stroke-miterlimit="10" d="M74.9 137.3s19.9 9.9 40.6-1.6"/><path d="M109.7 123.2c-.2-9.1-7.8-16.4-17-16.1-8.8.2-15.9 7.3-16.1 16.1h33.1z"/><path fill="none" stroke="currentColor" stroke-width="4" stroke-miterlimit="10" d="M84 82.7c0 4.6-3.7 8.3-8.3 8.3-4.6 0-8.3-3.7-8.3-8.3M118 82.7c.2 4.6-3.4 8.4-8 8.6s-8.4-3.4-8.6-8v-.6"/><circle cx="65.8" cy="134" r="3.4"/><circle cx="65.8" cy="145.6" r="3.4"/><circle cx="70" cy="124" r="3.4"/><circle cx="59.2" cy="125.7" r="3.4"/><circle cx="49.3" cy="124.9" r="3.4"/><circle cx="56.7" cy="137.7" r="3.4"/></symbol><symbol id="icon--slideshow--24" viewBox="0 0 24 24" xml:space="preserve" xmlns="http://www.w3.org/2000/svg"><style>.cjst0{fill:#fff}</style><path class="cjst0" d="M16.6 18.6c1.4 0 2.1-.8 2.1-2v-14c0-1.1-.9-2-2-2H2.8c-1.1 0-2 .9-2 2v13.9c0 1.1.9 2 2 2H6l10.6.1zM3.1 17.5c-.6 0-1.1-.4-1.1-.8V2.6c0-.4.4-.8.8-.8h13.9c.4 0 .8.4.8.8v14c0 .4-.2.9-1 .9H3.1z"/><path class="cjst0" d="M20.8 5h-.9v1.2h.9c.4 0 .8.4.8.8v13.9c0 .4-.4.8-.8.8H6.7c-.4 0-.8-.4-.8-.8v-1.2H4.8v1.2c0 1.1.9 2 2 2h13.9c1.1 0 2-.9 2-2V7c.1-1.2-.8-2-1.9-2z"/></symbol><symbol viewBox="0 0 24 24" id="icon--tour3d" xmlns="http://www.w3.org/2000/svg"><path d="M12 5.088l6 2.571v6.76l-6 3.43-6-3.43V7.66l6-2.571M12 4L5 7v8l7 4 7-4V7l-7-3z" fill="#fff"/><path fill="none" stroke="#fff" stroke-linejoin="bevel" d="M12 18.25V11L5.5 7.75"/><path fill="none" stroke="#fff" stroke-miterlimit="10" d="M18.5 7.75L12 11"/><g fill="#fff"><path d="M1 1h4V0H0v5h1V1zM1 23v-4H0v5h5v-1H1zM23 23h-4v1h5v-5h-1v4zM19 0v1h4v4h1V0h-5z"/></g></symbol><symbol id="icon--video" viewBox="0 0 16 16" xmlns="http://www.w3.org/2000/svg"><defs><style>.clcls-1{fill:currentColor}</style></defs><path class="clcls-1" d="M4.75 2.81c-.22-.13-.41 0-.41.24v9.84c0 .27.19.37.41.24l8.43-4.92c.23-.13.23-.34 0-.48z"/></symbol><symbol viewBox="0 0 24 24" id="icon--view360" xmlns="http://www.w3.org/2000/svg"><style>.cmst0{fill:#fff}</style><path class="cmst0" d="M6 6.9c.4.1.8.2 1.2.2.6 0 1-.2 1-.6 0-.5-.5-.8-1.5-.8l-.1-.6c1-.2 1.5-.6 1.5-1 0-.3-.2-.5-.8-.5-.3 0-.7.2-1 .4l-.2-.7c.4-.2.9-.4 1.4-.4.9 0 1.5.5 1.5 1.1 0 .6-.5 1-1.1 1.2.8.2 1.1.7 1.1 1.2 0 .8-.7 1.4-1.8 1.4-.4 0-.8-.1-1.2-.2v-.7zM11.6 4.7c-.4 0-.8.2-1.1.5.2-.8.9-1.4 2.1-1.6l-.2-.7c-1.9.3-2.8 1.5-2.8 3.1 0 1.2.6 1.9 1.7 1.9 1 0 1.7-.7 1.7-1.7 0-.9-.6-1.5-1.4-1.5zm-.2 2.5c-.5 0-.8-.4-.8-.9s.4-.9.8-.9c.5 0 .8.3.8.9 0 .5-.3.9-.8.9zM15.5 2.9c-1.1 0-1.8 1.1-1.8 2.6 0 1.3.6 2.4 1.8 2.4 1.2 0 1.9-1.1 1.9-2.6-.1-1.3-.8-2.4-1.9-2.4zm-.1 4.3c-.6 0-1-.6-1-1.8 0-1 .4-1.8 1-1.8s1 .6 1 1.8c0 1-.4 1.8-1 1.8zM18.9 2.8c-.7 0-1.1.5-1.1 1.1 0 .6.4 1 1 1 .7 0 1.1-.5 1.1-1.2.1-.5-.3-.9-1-.9zm0 1.6c-.3 0-.5-.2-.5-.6 0-.3.2-.6.5-.6s.5.2.5.6c0 .4-.2.6-.5.6zM23.4 14.7c0-3-4.7-5-11.4-5S.6 11.8.6 14.7c0 2.4 3.2 4.3 8.1 4.9.2 0 .4-.1.4-.3 0-.2-.1-.4-.3-.4-4.4-.5-7.4-2.2-7.4-4.1 0-2.1 3.7-4.3 10.6-4.3s10.6 2.2 10.6 4.3c0 1.9-2.7 3.5-6.9 4.1l1.3-1.6-.5-.5-2.1 2.5 2.5 2.2.5-.5-1.6-1.4c4.6-.8 7.6-2.6 7.6-4.9z"/></symbol><symbol viewBox="0 0 200 200" id="icon--virtual-queue" xmlns="http://www.w3.org/2000/svg"><path d="M122.3 131.26v28.77l-71.29.12-.18-128.32 71.3-.13v24.73l7.73-7.73V34.54A19.61 19.61 0 00110.28 15l-47.66.08A19.62 19.62 0 0043.1 34.69l.22 129.14a19.63 19.63 0 0019.59 19.53l47.67-.09a19.61 19.61 0 0019.52-19.59l-.1-39.86zm-14.25-109V25H66.38v-2.64zm-21.32 155.5a6.41 6.41 0 116.4-6.42 6.41 6.41 0 01-6.4 6.42z"/><path d="M166.34 61a7.75 7.75 0 01-10.51-10.7l-10.66-10.88-16.43 16.14L160.58 88 177 71.81zM119.05 87h-2.27l-1.14 13.63L127 99.5v-2.28l-7.02-.87-.93-9.35z"/><path d="M127.26 57L71 112.34l10.66 10.84a7.75 7.75 0 0110.52 10.71l10.66 10.84 56.28-55.32zm-9.35 57.24a15.9 15.9 0 1115.91-15.9 15.9 15.9 0 01-15.91 15.92z"/></symbol><symbol id="icon--visit-capacity" viewBox="0 0 385 260" xml:space="preserve" xmlns="http://www.w3.org/2000/svg"><style>.cost0{fill:#b3b3b3}.cost1{fill:#e6e6e6}.cost2{fill:#515151}.cost3{fill:none;stroke:#e6e6e6;stroke-miterlimit:10}.cost4{fill:url(#coSVGID_1_)}</style><path d="M18 24.1v1.8h-1.3c.1-.6.1-2.1.1-2.9v-2.7c0-.8 0-2.4-.1-2.9.4 0 1.5-.1 2.4-.1 2.1 0 3.1 1.2 3.1 2.5 0 1.6-1 2.9-3.6 2.9H18v1.4zm1-5.8h-.9v3.4h.7c1.5 0 2.3-.6 2.3-1.8s-.7-1.6-2.1-1.6zM24.6 21.9c-.2-2.5 1.7-4.6 4.2-4.7h.3c2.3 0 4.2 1.8 4.2 4.1v.2c.2 2.4-1.7 4.6-4.2 4.7h-.2c-2.3 0-4.2-1.8-4.2-4.1-.1-.1-.1-.2-.1-.2zm7.3-.3c0-2.2-1.3-3.5-3-3.5-1.8.1-3.2 1.6-3.1 3.4v.1c0 2.2 1.3 3.5 3 3.5 1.8-.1 3.2-1.6 3.1-3.5 0 .1 0 .1 0 0zM37.5 24.1v1.8h-1.3c.1-.6.1-2.1.1-2.9v-2.7c0-.8 0-2.4-.1-2.9.4 0 1.5-.1 2.4-.1 2.1 0 3.1 1.2 3.1 2.5 0 1.6-1 2.9-3.6 2.9h-.7l.1 1.4zm.9-5.8h-.9v3.4h.7c1.5 0 2.3-.6 2.3-1.8s-.6-1.6-2.1-1.6zM51.3 19.1v3.3c.1 1-.2 2-.9 2.8-.7.7-1.7 1.1-2.7 1-1.6.2-3.1-1.1-3.3-2.7v-3.1c0-.8 0-2.4-.1-2.9.4 0 .9 0 1.3-.1v5.3c0 1.8.9 2.5 2.3 2.5 1.1.1 2.1-.7 2.2-1.8v-3.1c0-.8 0-2.4-.1-2.9.5 0 .9 0 1.3-.1v1.8zM59.9 26c-.7 0-1.6-.1-2.5-.1s-1.8 0-2.5.1c.1-.6.1-2.2.1-3v-2.7c0-.8 0-2.4-.1-2.9.4 0 .9 0 1.3-.1V25H60c-.1.2-.1.6-.1 1zM64.4 19.7c.5-1 .8-1.7 1.1-2.5l.3-.1 2.9 6.3c.3.8.8 1.8 1.2 2.5l-1.4.1-1.1-2.5h-3.6v.1c-.3.7-.7 1.6-1 2.3h-1.3l2.9-6.2zm-.2 2.8H67l-1.4-3.1-1.4 3.1zM77.2 26L75 22.5h-1.3V25.9h-1.3c.1-.6.1-2.1.1-2.9v-2.7c0-.8 0-2.4-.1-2.9.4 0 1.7 0 2.2-.1 2.1 0 3.3 1.1 3.3 2.5 0 1.1-.7 2.1-1.8 2.5l1.3 1.8c.3.5 1 1.4 1.3 1.8l-1.5.1zm-2.3-4.5c.9.1 1.7-.6 1.7-1.5v-.1c0-1-.6-1.6-1.9-1.6h-1.1v3.2h1.3zM90.9 25.9c.1-.6.1-2.1.1-2.9v-1h-4.5v4h-1.3c.1-.6.1-2.1.1-2.9v-2.7c0-.8 0-2.4-.1-2.9.4 0 .9 0 1.3-.1V21H91v-.7c0-.8 0-2.4-.1-2.9.4 0 .9 0 1.3-.1V26l-1.3-.1zM95.3 21.9c-.2-2.5 1.7-4.6 4.2-4.7h.2c2.3 0 4.2 1.8 4.2 4.1v.2c.2 2.4-1.7 4.6-4.2 4.7h-.2c-2.3 0-4.2-1.8-4.2-4.1v-.2zm7.4-.3c0-2.2-1.3-3.5-3-3.5-1.8.1-3.2 1.6-3.1 3.4v.1c0 2.2 1.3 3.5 3 3.5 1.8-.1 3.2-1.6 3.1-3.5 0 .1 0 .1 0 0zM113.8 19.1v3.3c.1 1-.2 2-.9 2.8-.7.7-1.7 1.1-2.7 1-1.6.2-3.1-1.1-3.3-2.7v-3.1c0-.8 0-2.4-.1-2.9.4 0 .9 0 1.3-.1v5.3c0 1.8.9 2.5 2.3 2.5 1.1.1 2.1-.7 2.2-1.8v-3.1c0-.8 0-2.4-.1-2.9.5 0 .9 0 1.3-.1.1.3 0 1.3 0 1.8zM122.3 26l-2.2-3.5h-1.4V25.9h-1.3c.1-.6.1-2.1.1-2.9v-2.7c0-.8 0-2.4-.1-2.9.4 0 1.7 0 2.2-.1 2.1 0 3.3 1.1 3.3 2.5 0 1.1-.7 2.1-1.8 2.5l1.2 1.8c.3.5 1 1.4 1.3 1.8l-1.3.1zm-2.3-4.5c.9.1 1.7-.6 1.7-1.5v-.1c0-1-.7-1.6-1.9-1.6h-1.1v3.2h1.3zM128.2 26.1c-.9 0-1.7-.3-2.4-.7l.1-1.3c.7.6 1.5.9 2.4.9.9 0 1.6-.5 1.6-1.4 0-1.7-3.7-1.8-3.7-4.1 0-1.4 1.2-2.5 2.6-2.5h.1c.7 0 1.4.2 2 .6l-.4 1c-.5-.4-1.1-.6-1.6-.6-.7-.1-1.4.4-1.4 1.1v.1c0 1.6 3.7 1.6 3.7 4.1 0 1.4-1.1 2.6-2.6 2.7-.2.1-.3.1-.4.1zM253.8 31.3l-2.7-.8c-1.3 0-2.3-1.1-2.2-2.3-.1-1.4.9-2.5 2.3-2.6h.1c1.3 0 2.3 1 2.3 2.3v.1c0 1-.5 1.9-1.4 2.4l.8.2c.4.1.9.2 1.1.3l-.3.4zM253 28c.1-.9-.5-1.8-1.4-2h-.3c-1 .1-1.8.9-1.7 1.9-.1.9.6 1.8 1.5 1.9h.2c1 0 1.7-.8 1.7-1.8zM259.2 26.5v1.8c.1.6-.1 1.1-.5 1.5-.4.4-.9.6-1.5.5-.9.1-1.7-.6-1.8-1.5v-1.7-1.6h.7v2.9c0 1 .5 1.4 1.3 1.4.6.1 1.2-.4 1.2-1V27.2v-1.6h.8c-.2.2-.2.7-.2.9zM261.2 30.3v-3.1-1.6h.7v4.8l-.7-.1zM266.8 30.4H264v-3.2-1.7h2.6c0 .2-.1.4-.1.6h-1.9v1.4h1.6v.6h-1.6v1.7h2.1c.1.2.1.4.1.6zM271.8 26.1h-1.6V30.3h-.7v-3.1-1.1h-1.6v-.6h3.9v.6zM276.1 30.4h-2.8v-3.2-1.7h2.6c0 .2-.1.4-.1.6h-1.9v1.4h1.6v.6h-1.6v1.7h2.1c.1.2.1.3.1.6zM280.4 30.4l-1.2-1.9h-.8v1.9h-.7v-3.1-1.6h1.2c1.2 0 1.8.6 1.8 1.4 0 .6-.4 1.2-1 1.4l.7 1c.2.2.6.8.7 1l-.7-.1zm-1.3-2.5c.5.1.9-.3 1-.8V27c0-.6-.4-.9-1.1-.9h-.6v1.8h.7zM326.2 30.3v-3.1-1.6h1.3c1.2 0 1.7.7 1.7 1.2s-.3.9-.7 1c.6.1.9.6 1 1.2 0 .7-.6 1.4-1.8 1.4l-1.5-.1zm1.2-2.7c.7 0 1.1-.3 1.1-.8s-.4-.7-1-.7h-.5v1.4l.4.1zm.2 2.2c.7 0 1.1-.3 1.1-.8s-.4-.8-1.3-.8h-.6v1.6c.3-.1.6 0 .8 0zM334.9 26.5v1.8c.1.6-.1 1.1-.5 1.5-.4.4-.9.6-1.5.5-.9.1-1.7-.6-1.8-1.5v-1.7-1.6h.7v2.9c0 1 .5 1.4 1.3 1.4.6.1 1.2-.4 1.2-1V27.2c0-.4 0-1.3-.1-1.6h.8c-.1.2-.1.7-.1.9zM337.9 30.5c-.5 0-.9-.2-1.3-.4v-.7c.4.3.8.5 1.3.5.4.1.8-.2.9-.6v-.1c0-.9-2-1-2-2.2 0-.8.7-1.4 1.4-1.4h.1c.4 0 .8.1 1.1.4l-.2.6c-.3-.2-.6-.3-.9-.3-.4 0-.7.2-.8.6v.1c0 .9 2 .9 2 2.2 0 .8-.6 1.4-1.4 1.5-.1-.2-.2-.2-.2-.2zM341.1 30.3v-3.1-1.6h.7v4.8l-.7-.1zM346.7 30.4h-2.8v-3.2-1.7h2.6v.6h-1.9v1.4h1.6v.6h-1.6v1.6h2.1v.7zM351 30.4l-1.2-1.9h-.8v1.9h-.7v-3.1-1.6h1.2c1.2 0 1.8.6 1.8 1.4 0 .6-.4 1.2-1 1.4l.7 1c.2.2.5.8.7 1l-.7-.1zm-1.3-2.5c.5.1.9-.3 1-.8V27c0-.6-.4-.9-1.1-.9h-.6v1.8h.7zM16.1 248.8v-3.7-1.9h1.4c1.4 0 1.9.7 1.9 1.4 0 .6-.4 1.1-1 1.2.7.1 1.2.7 1.2 1.4 0 .9-.7 1.6-2 1.6h-1.5zm1.3-3.2c.9 0 1.4-.4 1.4-1s-.4-.9-1.4-.9h-.7c-.2 0 0 .4 0 .5v1.4h.7zm.2 2.7c.9 0 1.5-.4 1.5-1.1s-.5-1.1-1.6-1.1h-.7v2.1c.2 0 .5.1.8.1zM20.4 247.8c0-.7.6-1.2 1.9-1.2h.4v-.1c0-.6-.3-1-.9-1-.4 0-.7.1-1 .4l-.1-.5c.4-.2.8-.3 1.2-.4.7-.1 1.3.4 1.3 1.1v.3l-.1 1.6c0 .3.1.4.2.4s.2 0 .3-.1l-.1.4c-.1.1-.3.1-.4.1-.3 0-.5-.2-.6-.7-.2.5-.7.7-1.2.7-.5.1-1-.3-1.1-.9.2 0 .2 0 .2-.1zm2.3-.4v-.4h-.4c-1 0-1.3.4-1.3.8s.2.6.7.6c.5 0 .9-.4 1-1zM26.7 245.3l-.2.5c-.3-.2-.6-.3-.9-.3-.4 0-.7.2-.7.5 0 .7 1.9.6 1.9 1.7 0 .7-.6 1.2-1.3 1.2-.4 0-.8-.1-1.2-.3v-.6c.3.2.8.4 1.2.4.4 0 .8-.2.8-.6 0-.8-1.9-.6-1.9-1.7 0-.6.6-1.1 1.2-1.1.3 0 .7.1 1.1.3zM30.4 247l-2.4.1c-.1.7.4 1.3 1.1 1.3h.2c.5 0 1-.2 1.3-.5v.6c-.4.3-.9.4-1.4.4-.9 0-1.7-.7-1.8-1.6v-.2c-.1-1 .7-1.9 1.7-2h.1c1 0 1.5.8 1.5 1.8l-.3.1zm-.1-.4c-.1-.7-.4-1.1-1-1.1s-1.2.5-1.2 1.1h2.2zM34.3 245.4v-.9-1.3c.2 0 .4 0 .6-.1V248.9h-.5v-.4c-.3.4-.7.6-1.2.6-.9 0-1.7-.7-1.7-1.6v-.2c0-1.1.8-1.9 1.8-2h.1c.3-.2.6-.1.9.1zM32 247c-.1.7.4 1.3 1.1 1.4h.1c.4 0 .8-.3 1-.6v-1.9c-.2-.2-.6-.4-.9-.4-.8.1-1.3.7-1.3 1.5zM39.2 248.9c-1 0-1.7-.8-1.8-1.7v-.1c-.1-1 .7-1.9 1.7-2h.1c1 0 1.8.8 1.8 1.7v.1c.1 1-.7 1.9-1.7 2h-.1zm.1-3.4c-.7 0-1.3.6-1.3 1.4v.1c0 .9.5 1.4 1.2 1.4s1.3-.6 1.3-1.4v-.1c.1-.7-.4-1.3-1-1.4h-.2zM44.5 248.8v-2.4c0-.6-.2-.9-.8-.9-.6 0-1.1.5-1.2 1.1v2.2H42v-2.3-1.4h.5v.8c.3-.5.8-.8 1.4-.9.7 0 1.2.4 1.2 1.3V248.7l-.6.1zM49.5 248.9c-.4 0-.7-.1-1-.3V250.5l-.6.1V246.7v-1.4h.5v.5c.3-.4.8-.6 1.2-.6.9 0 1.6.8 1.6 1.7v.1c.1.9-.6 1.8-1.7 1.9zm.2-3.4c-.4 0-.8.2-1.1.6v1.9c.3.3.6.4 1 .4.8-.1 1.3-.7 1.3-1.5-.1-.9-.6-1.4-1.2-1.4zM52 247.8c0-.7.6-1.2 1.9-1.2h.4v-.1c0-.6-.2-1-.8-1-.4 0-.7.1-1 .4l-.1-.5c.4-.2.8-.3 1.2-.4.7-.1 1.3.4 1.3 1.1V248c0 .3.1.4.2.4s.2 0 .3-.1v.4c-.1.1-.3.1-.4.1-.3 0-.5-.2-.6-.7-.2.5-.7.7-1.2.7-.5.1-1.1-.2-1.2-.8v-.2zm2.3-.4v-.4h-.4c-1 0-1.3.4-1.3.8s.2.6.7.6c.6 0 1-.4 1.1-.9-.1 0-.1-.1-.1-.1zM58.3 245.3l-.2.5c-.3-.2-.6-.3-.9-.3-.4 0-.7.2-.7.5 0 .7 1.9.6 1.9 1.7 0 .7-.6 1.2-1.3 1.2-.4 0-.8-.1-1.2-.3v-.6c.3.2.8.4 1.2.4.5 0 .8-.2.8-.6 0-.8-1.9-.6-1.9-1.7 0-.6.6-1.1 1.2-1.1.4 0 .8.1 1.1.3zM61.2 248.7c-.2.1-.4.2-.7.2-.6 0-.9-.4-.9-1v-2.3H59l.2-.5h.5v-.8l.5-.1v.9h1v.5h-1v2.2c0 .4.2.5.5.5.2 0 .4-.1.6-.2l-.1.6zM63.4 247.8c0-.7.6-1.2 1.9-1.2h.4v-.1c0-.6-.2-1-.8-1-.4 0-.7.1-1 .4l-.1-.5c.4-.2.8-.3 1.2-.4.7-.1 1.3.4 1.3 1.1V248c0 .3.1.4.2.4s.2 0 .3-.1l-.1.4c-.1.1-.3.1-.4.1-.3 0-.6-.2-.6-.7-.2.5-.7.7-1.2.7-.5.1-1.1-.2-1.2-.8.1 0 .1-.1.1-.2zm2.3-.4v-.4h-.4c-1 0-1.3.4-1.3.8s.2.6.7.6c.5 0 1-.4 1-1zM69.3 248.7c-.2.1-.4.2-.7.2-.6 0-.9-.4-.9-1v-2.3h-.6l.2-.5h.5v-.8l.5-.1v.9h1v.5h-1v2.2c0 .4.2.5.5.5.2 0 .4-.1.6-.2l-.1.6zM72 248.7c-.2.1-.4.2-.7.2-.6 0-.9-.4-.9-1v-2.3h-.6l.2-.5h.5l.1-.8.5-.1v.9h1v.5h-1v2.2c0 .4.2.5.5.5.2 0 .4-.1.6-.2l-.2.6zM75.6 247l-2.4.1c-.1.7.4 1.3 1.1 1.3h.2c.5 0 1-.2 1.3-.5v.6c-.4.3-.9.4-1.4.4-.9 0-1.7-.7-1.8-1.6v-.2c-.1-1 .7-1.9 1.7-2h.1c1 0 1.5.8 1.5 1.8l-.3.1zm-.2-.4c-.1-.7-.4-1.1-1-1.1s-1.2.5-1.2 1.1h2.2zM79.4 248.8v-2.4c0-.6-.2-.9-.8-.9-.6 0-1.1.5-1.2 1.1v2.2h-.6v-2.3-1.4h.5v.8c.3-.5.8-.8 1.4-.9.7 0 1.2.4 1.2 1.3V248.7l-.5.1zM83.7 245.4v-.9-1.3c.2 0 .4 0 .6-.1V248.9h-.5v-.4c-.3.4-.7.6-1.2.6-.9 0-1.7-.7-1.7-1.6v-.2c0-1.1.8-1.9 1.8-2h.1c.4-.2.7-.1.9.1zm-2.2 1.6c0 .9.5 1.4 1.2 1.4.4 0 .8-.3 1-.6v-1.9c-.2-.2-.6-.4-.9-.4-.8.1-1.4.7-1.3 1.5zM85.2 247.8c0-.7.6-1.2 1.9-1.2h.4v-.1c0-.6-.3-1-.8-1-.4 0-.7.1-1 .4l-.1-.5c.4-.2.8-.3 1.2-.4.7-.1 1.3.4 1.3 1.1v.3L88 248c0 .3.1.4.2.4s.2 0 .3-.1l-.1.4c-.1.1-.3.1-.4.1-.3 0-.6-.2-.6-.7-.2.5-.7.7-1.2.7-.5.1-1-.3-1.1-.9.1 0 .1 0 .1-.1zm2.3-.4v-.4h-.4c-1 0-1.3.4-1.3.8s.2.6.7.6c.5 0 1-.4 1-1zM91.8 248.8c0-.3.1-.9.1-1.4v-1c0-.6-.2-.9-.8-.9-.6 0-1.1.5-1.2 1.1v2.2h-.6v-2.3-1.4h.5v.8c.3-.5.8-.8 1.4-.9.7 0 1.2.4 1.2 1.3V248.7l-.6.1zM96.3 245.9c-.3-.2-.6-.4-1-.4-.8.1-1.4.8-1.3 1.6.1.7.6 1.3 1.3 1.3.4 0 .9-.2 1.2-.5v.6c-.4.3-.8.4-1.2.4-1 0-1.8-.7-1.8-1.7v-.1c0-1.1.8-2 1.8-2h.1c.4 0 .8.1 1.2.4l-.3.4zM100.1 247l-2.4.1c-.1.7.4 1.3 1 1.4h.2c.5 0 1-.2 1.3-.5v.6c-.4.3-.9.4-1.4.4-.9 0-1.7-.7-1.8-1.6v-.2c-.1-1 .7-1.9 1.7-2h.1c1 0 1.5.8 1.5 1.8h-.2zm-.1-.4c-.1-.7-.4-1.1-1-1.1s-1.2.5-1.2 1.1h2.2zM105.6 245.4v-.9-1.3c.2 0 .4 0 .6-.1V248.9h-.5v-.4c-.3.4-.7.6-1.2.6-.9 0-1.7-.7-1.7-1.7v-.1c0-1.1.8-1.9 1.8-2h.1c.4-.2.7-.1.9.1zm-2.2 1.6c-.1.7.3 1.3 1 1.4.5.1 1-.2 1.2-.6v-1.9c-.2-.3-.6-.4-.9-.4-.8 0-1.4.7-1.3 1.5 0-.1 0 0 0 0zM107.1 247.8c0-.7.6-1.2 1.9-1.2h.4v-.1c0-.6-.2-1-.8-1-.4 0-.7.1-1 .4l-.1-.5c.4-.2.8-.3 1.2-.4.7-.1 1.3.4 1.3 1.1V248c0 .3.1.4.2.4s.2 0 .3-.1v.4c-.1.1-.3.1-.4.1-.3 0-.6-.2-.6-.7-.2.5-.7.7-1.2.7-.5.1-1.1-.2-1.2-.7v-.3zm2.3-.4v-.4h-.4c-1 0-1.3.4-1.3.8s.2.6.7.6c.5 0 1-.4 1-1zM113 248.7c-.2.1-.4.2-.7.2-.6 0-.9-.4-.9-1v-2.3h-.6l.2-.5h.5v-.8l.5-.1v.9h1v.5h-1v2.2c0 .4.2.5.5.5.2 0 .4-.1.6-.2l-.1.6zM113.6 247.8c0-.7.6-1.2 1.9-1.2h.4v-.1c0-.6-.3-1-.8-1-.4 0-.7.1-1 .4l-.1-.5c.4-.2.8-.3 1.2-.4.7-.1 1.3.4 1.3 1.1V248c0 .3.1.4.2.4s.2 0 .3-.1v.4c-.1.1-.3.1-.4.1-.3 0-.6-.2-.6-.7-.2.5-.7.7-1.2.7-.5.1-1.1-.2-1.2-.7v-.3zm2.3-.4v-.4h-.4c-1 0-1.3.4-1.3.8s.2.6.7.6c.5 0 .9-.4 1-1zM117.9 248.9c-.2 0-.4-.2-.4-.4s.1-.4.4-.4c.2 0 .4.2.4.4s-.2.4-.4.4zM124.2 243.7h-2.4v2h2v.5h-2v2.6h-.7v-3.7-2h3.1c.1.2 0 .4 0 .6zM126.3 248.9c-1 0-1.7-.8-1.7-1.7v-.1c-.1-1 .7-1.9 1.7-2h.1c1 0 1.8.8 1.8 1.7v.1c.1 1-.7 1.9-1.7 2h-.2zm.1-3.4c-.7 0-1.3.6-1.3 1.4v.1c0 .9.5 1.4 1.2 1.4s1.3-.6 1.3-1.3v-.1c.1-.7-.4-1.3-1.1-1.4 0-.1-.1-.1-.1-.1zM130.9 245.7c-.6-.1-1.1.4-1.2 1v2.1h-.6v-2.4c0-.4 0-.8-.1-1.2.2 0 .4 0 .6-.1l.1.8c.2-.5.7-.8 1.3-.9l-.1.7zM133.7 244.2c-.2 0-.4-.1-.4-.3 0-.2.2-.4.4-.4s.4.2.4.4-.1.3-.4.3c0 0 0 .1 0 0zm-.3 4.6v-2.2c0-.5 0-1-.1-1.4h.6v3.7l-.5-.1zM137.7 248.8c0-.3.1-.9.1-1.4v-1c0-.6-.2-.9-.8-.9-.6 0-1.1.5-1.2 1.1v2.2h-.6v-2.3-1.4h.5v.8c.3-.5.8-.8 1.4-.9.7 0 1.2.4 1.2 1.3V248.7l-.6.1zM141.4 243.6c-.1 0-.2-.1-.4-.1-.5 0-.7.4-.7 1.1v.5h1v.5h-1v3.2h-.6v-3.2h-.7l.2-.5h.5v-.4c0-1 .4-1.7 1.2-1.7.1 0 .3 0 .4.1l.1.5zM143.5 248.9c-1 0-1.7-.8-1.7-1.7v-.1c-.1-1 .7-1.9 1.7-2h.1c1 0 1.8.8 1.8 1.7v.1c.1 1-.7 1.9-1.7 2h-.2zm.1-3.4c-.7 0-1.3.6-1.3 1.4v.1c0 .9.5 1.4 1.2 1.4s1.3-.6 1.3-1.4v-.1c.1-.7-.4-1.3-1.1-1.4h-.1zM148.1 245.7c-.6-.1-1.1.3-1.2.9v2.2h-.6v-2.4c0-.4 0-.8-.1-1.2.2 0 .4 0 .6-.1l.1.8c.2-.5.7-.8 1.3-.9l-.1.7zM153.7 248.8v-2.4c0-.6-.2-.9-.7-.9-.6 0-1 .4-1.1 1v2.3h-.6v-2.4c0-.6-.2-.9-.7-.9-.6 0-1 .4-1.1 1v2.2h-.6v-2.3-1.4h.5v.7c.3-.5.8-.7 1.3-.8.5 0 1 .3 1.1.8.3-.5.8-.8 1.3-.8.7 0 1.1.4 1.1 1.3V248.6l-.5.2zM155.2 247.8c0-.7.6-1.2 1.9-1.2h.4v-.1c0-.6-.3-1-.8-1-.4 0-.7.1-1 .4l-.1-.5c.4-.2.8-.3 1.2-.4.7-.1 1.3.4 1.3 1.1V248c0 .3.1.4.2.4s.2 0 .3-.1l-.1.4c-.1.1-.3.1-.4.1-.3 0-.6-.2-.6-.7-.2.5-.7.7-1.2.7-.5.1-1.1-.2-1.2-.8.1 0 .1-.1.1-.2zm2.3-.4v-.4h-.4c-1 0-1.3.4-1.3.8s.2.6.7.6c.5 0 1-.4 1-1zM161.1 248.7c-.2.1-.4.2-.7.2-.6 0-.9-.4-.9-1v-2.3h-.6l.1-.5h.5l.1-.8.5-.1v.9h1v.5h-1v2.2c0 .4.2.5.5.5.2 0 .4-.1.6-.2l-.1.6zM162.3 244.2c-.2 0-.4-.2-.4-.4s.2-.4.4-.4.4.2.4.4c0 .3-.1.4-.4.4 0 .1 0 .1 0 0zm-.3 4.6v-2.2-1.4h.6v3.7l-.6-.1zM165.3 248.9c-1 0-1.7-.8-1.7-1.7v-.1c-.1-1 .7-1.9 1.7-2h.1c1 0 1.8.8 1.8 1.7v.1c.1 1-.7 1.9-1.7 2h-.2zm.1-3.4c-.7 0-1.3.6-1.3 1.4v.1c0 .9.5 1.4 1.2 1.4s1.3-.6 1.3-1.3v-.1c.1-.7-.4-1.3-1.1-1.4 0-.1-.1-.1-.1-.1zM170.6 248.8v-2.4c0-.6-.2-.9-.8-.9-.6 0-1.1.5-1.2 1.1v2.2h-.6v-2.3-1.4h.5v.8c.3-.5.8-.8 1.4-.9.7 0 1.1.4 1.1 1.3V248.7l-.4.1zM172.2 247.8c0-.7.6-1.2 1.9-1.2h.4v-.1c0-.6-.3-1-.9-1-.4 0-.7.1-1 .4l-.1-.5c.4-.2.8-.3 1.2-.4.7-.1 1.3.4 1.3 1.1V248c0 .3.1.4.2.4s.2 0 .3-.1l-.1.4c-.1.1-.3.1-.4.1-.3 0-.6-.2-.6-.7-.2.5-.7.7-1.2.7-.5.1-1.1-.3-1.1-.8.1 0 .1-.1.1-.2zm2.2-.4v-.4h-.4c-1 0-1.3.4-1.3.8s.2.6.7.6c.6 0 1-.4 1-1 .1 0 .1 0 0 0zM176.3 248.8v-4.3-1.3c.2 0 .4 0 .6-.1v5.7h-.6zM181.3 248.9c-.4 0-.7-.1-1-.3V250.5l-.6.1V246.7c0-.5 0-.9-.1-1.4h.5v.5c.3-.4.8-.6 1.2-.6.9 0 1.6.8 1.6 1.7v.1c.1.9-.6 1.8-1.6 1.9zm.1-3.4c-.4 0-.8.2-1.1.6v1.9c.3.3.6.4 1 .4.8-.1 1.3-.7 1.3-1.5 0-.9-.5-1.4-1.2-1.4zM186.7 248.8l-.1-.7c-.3.5-.8.8-1.3.8-.8 0-1.2-.4-1.2-1.4v-1.1-1.3h.6v2.3c0 .7.3 1 .8 1s1.2-.6 1.2-1v-.9c0-.4 0-.9-.1-1.3h.6v2.3c0 .5 0 1 .1 1.3h-.6zM190.2 245.7c-.6-.1-1.1.3-1.2.9v2.2h-.6v-2.4c0-.4 0-.8-.1-1.2.2 0 .4 0 .6-.1l.1.8c.2-.5.7-.8 1.3-.9l-.1.7zM192.6 248.9c-.4 0-.7-.1-1-.3V250.5l-.6.1V246.7c0-.5 0-.9-.1-1.4h.6v.5c.3-.4.8-.6 1.2-.6.9 0 1.6.8 1.6 1.7v.1c0 .9-.7 1.8-1.7 1.9zm.1-3.4c-.4 0-.8.2-1.1.6v1.9c.3.3.6.4 1 .4.8-.1 1.3-.7 1.3-1.5-.1-.9-.6-1.4-1.2-1.4zM196.9 248.9c-1 0-1.7-.8-1.8-1.7v-.1c-.1-1 .7-1.9 1.7-2h.1c1 0 1.8.8 1.8 1.7v.1c.1 1-.7 1.9-1.7 2h-.1zm0-3.4c-.7 0-1.3.6-1.3 1.4v.1c0 .9.5 1.4 1.2 1.4s1.3-.6 1.3-1.4v-.1c.1-.7-.4-1.3-1.1-1.4h-.1zM201.8 245.3l-.2.5c-.3-.2-.6-.3-.9-.3-.4 0-.7.2-.7.5 0 .7 1.9.6 1.9 1.7 0 .7-.6 1.2-1.3 1.2-.4 0-.8-.1-1.2-.3v-.6c.3.2.8.4 1.2.4.4 0 .8-.2.8-.6 0-.8-1.9-.6-1.9-1.7 0-.6.6-1.1 1.2-1.1.4 0 .8.1 1.1.3zM205.6 247l-2.4.1c-.1.7.4 1.3 1.1 1.3h.2c.5 0 1-.2 1.3-.5v.6c-.4.3-.9.4-1.4.4-.9 0-1.7-.7-1.8-1.6v-.2c-.1-1 .7-1.9 1.7-2h.1c1 0 1.5.8 1.5 1.8l-.3.1zm-.1-.4c-.1-.7-.4-1.1-1-1.1s-1.2.5-1.2 1.1h2.2zM209.1 245.3l-.2.5c-.3-.2-.6-.3-.9-.3-.4 0-.7.2-.7.5 0 .7 1.9.6 1.9 1.7 0 .7-.6 1.2-1.3 1.2h-.1c-.4 0-.8-.1-1.2-.3v-.6c.3.2.8.4 1.2.4.4 0 .8-.2.8-.6 0-.8-1.9-.6-1.9-1.7 0-.6.6-1.1 1.2-1.1.4 0 .8.1 1.2.3zM213.3 248.9c-1 0-1.7-.8-1.8-1.7v-.1c-.1-1 .7-1.9 1.7-2h.1c1 0 1.8.8 1.8 1.7v.1c.1 1-.7 1.9-1.7 2h-.1zm0-3.4c-.7 0-1.3.6-1.3 1.4v.1c0 .9.5 1.4 1.2 1.4s1.3-.6 1.3-1.3v-.1c.1-.7-.4-1.3-1.1-1.4 0-.1 0-.1-.1-.1zM218.6 248.8v-2.4c0-.6-.2-.9-.8-.9-.6 0-1.1.5-1.2 1.1v2.2h-.6v-2.3-1.4h.5v.8c.3-.5.8-.8 1.4-.9.7 0 1.2.4 1.2 1.3V248.7l-.5.1zM220.4 248.8v-4.3-1.3c.2 0 .4-.1.6-.1v5.7h-.6zM223.2 248.5c-.1-.2-.2-.4-.3-.8 0-.1-.4-1-.5-1.2-.2-.5-.4-.9-.6-1.2l.6-.1 1.1 2.7.5-1.1c.2-.5.4-1.1.6-1.6h.6l-1.8 4.2c-.1.2-.3.8-.4 1.1h-.6l.8-2zM225.6 248.9c-.2 0-.4-.2-.4-.4s.1-.4.4-.4c.2 0 .4.2.4.4s-.2.4-.4.4zM18.2 51.8c-.9-.3-1.6-1.1-1.7-2.1.1-1.3 1.2-2.3 2.5-2.3h.1c1.3-.1 2.4.8 2.5 2.1v.1c0 1-.7 1.6-1.8 2.1 1.2.5 1.9 1.3 1.9 2.3-.1 1.4-1.3 2.5-2.7 2.4h-.1c-1.6 0-2.8-1-2.8-2.3.2-1.1 1-2.1 2.1-2.3zm.8.4c-1.2.4-1.9 1-1.9 2s.9 1.6 1.9 1.6c.9.1 1.8-.6 1.9-1.5v-.1c0-1-.6-1.6-1.9-2zm.2-.8c1-.3 1.6-.9 1.6-1.7 0-.8-.7-1.5-1.6-1.5h-.1c-.8-.1-1.6.5-1.7 1.4v.1c0 .8.7 1.3 1.8 1.7zM25.8 56.4c-.6 0-1.1-.2-1.5-.5v2.9l-1 .1c0-.4.1-1.4.1-1.9v-4.2c0-.7 0-1.4-.1-2.1h.9l.1.8c.5-.6 1.2-.9 1.9-.9 1.4 0 2.5 1.2 2.5 2.6v.2c0 1.5-1.2 2.9-2.9 3zm.2-5.2c-.7 0-1.3.4-1.7 1V55c.4.4.9.6 1.5.6 1.2-.1 2.1-1.1 2-2.3 0-1.4-.8-2.1-1.8-2.1zM37.5 56.2c0-.5.1-1.4.1-2.1v-1.5c0-.9-.3-1.4-1.1-1.4-.9 0-1.6.7-1.8 1.6v3.5h-1c0-.5.1-1.4.1-2.1v-1.5c0-.9-.3-1.4-1.1-1.4-.9.1-1.6.7-1.7 1.6v3.5h-1c0-.5.1-1.4.1-2.1v-1.4c0-.7 0-1.6-.1-2.1h.9l.1 1.1c.4-.7 1.2-1.1 2-1.2.8-.1 1.5.5 1.6 1.3.4-.7 1.2-1.2 2.1-1.3 1.1 0 1.7.7 1.7 2v3.8l-.9-.3zM18.3 95.1c-.6 0-1.3-.1-1.9-.3l-.1-.9c.6.2 1.3.4 2 .4 1.1.1 2-.6 2.2-1.7v-.1c0-1.2-1-1.8-2.6-1.8-.3 0-.7 0-1 .1l-.1-.1c0-.4.1-.8.1-1.4v-1.4-1.4l.1-.1h4.2c-.2.3-.2.7-.2 1h-3.4l-.1 2.6h.5c2.1 0 3.2 1 3.2 2.6-.1 1.5-1.3 2.7-2.8 2.6 0-.1-.1-.1-.1-.1zM25.4 95.1c-.6 0-1.1-.2-1.5-.5v2.9l-1 .1c0-.4.1-1.4.1-1.9v-4.2c0-.7 0-1.6-.1-2.1h.8l.1.8c.5-.6 1.2-.9 2-.9 1.4 0 2.5 1.2 2.5 2.6v.2c-.1 1.5-1.3 2.9-2.9 3zm.1-5.2c-.7 0-1.3.4-1.7.9v2.9c.4.4.9.6 1.5.6 1.2-.1 2.1-1.1 2-2.3v-.1c0-1.3-.8-2-1.8-2zM37.1 94.9c0-.5.1-1.4.1-2.1v-1.5c0-.9-.3-1.4-1.1-1.4-.9 0-1.6.7-1.8 1.6V95h-1c0-.5.1-1.4.1-2.1v-1.5c0-.9-.3-1.4-1.1-1.4-.9 0-1.6.7-1.8 1.6v3.5h-1c0-.5.1-1.4.1-2.1v-1.4c0-.7 0-1.6-.1-2.1h.8l.1 1.1c.4-.7 1.2-1.2 2-1.2.8-.1 1.5.5 1.6 1.3.4-.7 1.2-1.2 2.1-1.3 1.1 0 1.7.7 1.7 2v3.8l-.7-.3zM16.1 132.6c.7.3 1.4.4 2.1.4 1.3 0 2.2-.6 2.2-1.5s-1-1.7-3.1-1.8l-.1-.6c2-.3 3-1.1 3-2 0-.7-.6-1.2-1.6-1.2-.7 0-1.4.3-1.9.7l-.3-.8c.7-.5 1.5-.7 2.3-.8 1.5 0 2.5.9 2.5 1.9s-1 1.9-2.2 2.3c1.6.3 2.4 1.1 2.4 2.2 0 1.4-1.2 2.4-3 2.4-.7 0-1.4-.1-2-.3l-.3-.9zM25.3 133.9c-.6 0-1.1-.2-1.5-.5v2.9l-1 .1c0-.4.1-1.4.1-1.9v-4.2c0-.7 0-1.6-.1-2.1h.8l.1.8c.5-.6 1.2-.9 1.9-.9 1.4 0 2.5 1.2 2.5 2.6v.2c.1 1.4-1.1 2.9-2.8 3zm.2-5.3c-.7 0-1.3.4-1.7.9v2.9c.4.4.9.6 1.5.6 1.2-.1 2.1-1.1 2-2.3 0-1.4-.8-2.1-1.8-2.1zM37 133.7c0-.5.1-1.4.1-2.1v-1.5c0-.9-.3-1.4-1.1-1.4-.9 0-1.6.7-1.8 1.6v3.5h-1c0-.5.1-1.4.1-2.1v-1.5c0-.9-.3-1.4-1.1-1.4-.9 0-1.6.7-1.8 1.6v3.5h-1c0-.5.1-1.4.1-2.1v-1.4c0-.7 0-1.6-.1-2.1h.8l.1 1.1c.4-.7 1.2-1.1 2-1.2.8-.1 1.5.5 1.6 1.3.4-.7 1.2-1.2 2.1-1.3 1.1 0 1.7.7 1.7 2v3.8l-.7-.3zM18.7 163.8v8.6h-.9v-7.6l-1.7.6-.2-.8 1.9-.6.8-.2h.1zM23.5 172.6c-.6 0-1.1-.2-1.5-.5v2.9l-1 .1c0-.4.1-1.4.1-1.9V169c0-.7 0-1.4-.1-2.1h.9l.1.8c.5-.6 1.2-.9 1.9-.9 1.4 0 2.5 1.2 2.5 2.6v.2c0 1.5-1.3 2.9-2.9 3zm.2-5.2c-.7 0-1.3.4-1.7.9v2.9c.4.4.9.6 1.5.6 1.2-.1 2.1-1.1 2-2.3 0-1.4-.8-2.1-1.8-2.1zM35.2 172.4c0-.5.1-1.4.1-2.1v-1.5c0-.9-.3-1.4-1.1-1.4-.9 0-1.6.7-1.8 1.6v3.5h-1c0-.5.1-1.4.1-2.1v-1.5c0-.9-.3-1.4-1.1-1.4-.9 0-1.6.7-1.8 1.6v3.5h-1c0-.5.1-1.4.1-2.1v-1.4c0-.7 0-1.6-.1-2.1.3 0 .6 0 .9-.1l.1 1.1c.4-.7 1.2-1.1 2-1.2.8-.1 1.5.5 1.6 1.3.4-.8 1.2-1.2 2.1-1.3 1.1 0 1.7.7 1.7 2v3.8l-.8-.2zM18.7 202.5v8.6h-.9v-7.6l-1.7.6-.2-.8 1.9-.6.8-.2h.1zM23.2 202.5v8.6h-.9v-7.6l-1.8.6-.2-.8 1.9-.6.8-.2h.2zM25.2 209.7c0-1 .9-1.9 2.9-1.9h.7v-.2c0-1-.4-1.5-1.3-1.5-.6 0-1.1.2-1.6.5l-.2-.8c.6-.4 1.2-.5 1.9-.6 1-.1 1.9.7 2 1.8v2.9c0 .5.1.6.4.6.2 0 .3 0 .5-.1l-.1.6c-.2.1-.4.2-.7.2-.4 0-.9-.3-.9-1.1-.4.7-1.1 1.1-1.9 1.1-.9.1-1.6-.5-1.7-1.4v-.1zm3.5-.7v-.5H28c-1.5 0-2 .6-2 1.2s.3 1 1.1 1c.9-.1 1.6-.8 1.6-1.7zM39 211.1c0-.5.1-1.4.1-2.1v-1.5c0-.9-.3-1.4-1.1-1.4-.9 0-1.6.7-1.8 1.6v3.5h-1c0-.5.1-1.4.1-2.1v-1.5c0-.9-.3-1.4-1.1-1.4-.9 0-1.6.7-1.8 1.6v3.5h-1c0-.5.1-1.4.1-2.1v-1.4c0-.7 0-1.6-.1-2.1h.8l.1 1.1c.4-.7 1.2-1.1 2-1.2.8-.1 1.5.5 1.6 1.3.4-.8 1.2-1.2 2.1-1.3 1.1 0 1.7.7 1.7 2v3.8l-.7-.3zM78.3 222.8l.4-3.1c.1-.9.3-2.2.3-2.9l.3-.1c.3.6.6 1.3.8 1.9l2.4 5.5 2.4-5.5c.2-.6.6-1.4.8-1.9h.2c0 .5.3 2.3.4 2.8l.4 3.1c.1.8.4 2.3.5 3l-1 .1c0-.4-.1-1.2-.2-1.9l-.6-4.5c-.5 1.2-2.8 6.1-2.9 6.5l-.2.1-2.9-6.5-.5 4.6c-.1.5-.2 1.4-.2 1.8h-.9c.2-.9.4-2.2.5-3zM91.4 225.9c-1.5 0-2.7-1.2-2.7-2.6v-.2c-.1-1.6 1-3 2.6-3.1h.2c1.5 0 2.7 1.2 2.7 2.7v.2c.1 1.6-1 3-2.6 3.2-.1-.2-.1-.2-.2-.2zm.1-5.2c-1.1 0-2 1-2 2.1v.1c0 1.4.8 2.2 1.9 2.2 1.1 0 2-.9 2-2v-.3c.1-1.1-.7-2.1-1.8-2.2 0 .1-.1.1-.1.1zM99.7 225.7c0-.5.1-1.4.1-2.1v-1.5c0-.9-.4-1.4-1.2-1.4-.9.1-1.7.8-1.9 1.7V225.8h-1c0-.5.1-1.4.1-2.1v-1.4c0-.7 0-1.6-.1-2.1h.8l.1 1.2c.5-.8 1.3-1.3 2.2-1.3 1.1 0 1.8.7 1.8 2v3.8l-.9-.2z"/><path class="cost0" d="M69.6 176h36.7c1.6 0 2.9 1.3 2.9 2.9v18.4c0 1.6-1.3 2.9-2.9 2.9H69.6c-1.6 0-2.9-1.3-2.9-2.9V179c-.1-1.7 1.2-3 2.9-3z"/><path class="cost1" d="M69.6 138.1h36.7c1.6 0 2.9 1.3 2.9 2.9v18.4c0 1.6-1.3 2.9-2.9 2.9H69.6c-1.6 0-2.9-1.3-2.9-2.9V141c-.1-1.5 1.2-2.9 2.9-2.9zM69.6 99.4h36.7c1.6 0 2.9 1.3 2.9 2.9v18.4c0 1.6-1.3 2.9-2.9 2.9H69.6c-1.6 0-2.9-1.3-2.9-2.9v-18.4c-.1-1.6 1.2-2.9 2.9-2.9z"/><path d="M268.4 225.9c-.9 0-1.7-.3-2.4-.7l.1-1c.7.5 1.5.8 2.4.9.9.1 1.7-.5 1.8-1.4v-.2c0-1.9-4-1.9-4-4.3 0-1.4 1.1-2.5 2.5-2.4h.2c.7 0 1.4.2 2 .6l-.3.8c-.5-.4-1.1-.6-1.7-.6-.9-.1-1.6.5-1.7 1.4v.1c0 1.8 4 1.8 4 4.2 0 1.4-1.1 2.6-2.6 2.6h-.3zM272.4 224.2c0-1.1.9-1.9 2.9-1.9h.7v-.2c0-1-.4-1.5-1.3-1.5-.6 0-1.1.2-1.6.6l-.2-.8c.6-.4 1.2-.5 1.9-.5 1-.1 1.9.7 2 1.7v.4l-.1 2.5c0 .4.1.6.4.6.2 0 .3 0 .5-.1l-.1.6c-.2.1-.4.2-.7.2-.4 0-.9-.3-.9-1.1-.4.7-1.1 1.1-1.9 1.1-.9.1-1.6-.6-1.7-1.4.1-.1.1-.1.1-.2zm3.5-.7v-.5h-.7c-1.5 0-2 .6-2 1.2s.3 1 1.1 1c.9 0 1.6-.7 1.6-1.7 0 .1 0 0 0 0zM281.5 225.6c-.3.2-.6.3-1 .3-1 0-1.4-.6-1.4-1.5v-3.6h-1l.2-.7h.8l.1-1.2.8-.2v1.4h1.6v.7H280v3.5c0 .6.3.8.7.8.3 0 .6-.1.9-.3l-.1.8z"/><path class="cost2" d="M253.2 176h36.7c1.6 0 2.9 1.3 2.9 2.9v18.4c0 1.6-1.3 2.9-2.9 2.9h-36.7c-1.6 0-2.9-1.3-2.9-2.9V179c-.1-1.7 1.3-3 2.9-3z"/><path class="cost0" d="M253.2 138.1h36.7c1.6 0 2.9 1.3 2.9 2.9v18.4c0 1.6-1.3 2.9-2.9 2.9h-36.7c-1.6 0-2.9-1.3-2.9-2.9V141c-.1-1.5 1.3-2.9 2.9-2.9z"/><path class="cost1" d="M253.2 99.4h36.7c1.6 0 2.9 1.3 2.9 2.9v18.4c0 1.6-1.3 2.9-2.9 2.9h-36.7c-1.6 0-2.9-1.3-2.9-2.9v-18.4c-.1-1.6 1.3-2.9 2.9-2.9z"/><path d="M328.8 225.9c-.9 0-1.7-.3-2.4-.7l.1-1c.7.5 1.5.8 2.4.9.9.1 1.7-.5 1.8-1.4v-.2c0-1.9-4-1.9-4-4.3 0-1.4 1.1-2.5 2.5-2.4h.2c.7 0 1.4.2 2 .6l-.3.8c-.5-.4-1.1-.6-1.7-.6-.9-.1-1.6.5-1.7 1.4v.1c0 1.8 4 1.8 4 4.2 0 1.4-1.1 2.6-2.6 2.6h-.3zM337.2 225.7l-.1-1.1c-.4.7-1.2 1.2-2.1 1.3-1.2 0-1.9-.6-1.9-2.1v-1.7c0-.7 0-1.5-.1-2.1h1v3.6c0 1.1.4 1.6 1.3 1.6.9-.1 1.6-.7 1.8-1.6v-1.5c0-.7 0-1.5-.1-2.1h1v3.6c0 .7 0 1.5.1 2.1h-.9zM343.7 225.7c0-.5.1-1.4.1-2.1v-1.5c0-.9-.4-1.4-1.2-1.4-.9.1-1.7.8-1.9 1.7V225.8h-1c0-.5.1-1.4.1-2.1v-1.4c0-.7 0-1.6-.1-2.1h.8l.1 1.2c.5-.8 1.3-1.3 2.2-1.3 1.1 0 1.8.7 1.8 2v3.8l-.9-.2z"/><path class="cost2" d="M314.4 176h36.7c1.6 0 2.9 1.3 2.9 2.9v18.4c0 1.6-1.3 2.9-2.9 2.9h-36.7c-1.6 0-2.9-1.3-2.9-2.9V179c0-1.7 1.3-3 2.9-3z"/><path class="cost0" d="M314.4 138.1h36.7c1.6 0 2.9 1.3 2.9 2.9v18.4c0 1.6-1.3 2.9-2.9 2.9h-36.7c-1.6 0-2.9-1.3-2.9-2.9V141c0-1.5 1.3-2.9 2.9-2.9zM314.4 99.4h36.7c1.6 0 2.9 1.3 2.9 2.9v18.4c0 1.6-1.3 2.9-2.9 2.9h-36.7c-1.6 0-2.9-1.3-2.9-2.9v-18.4c0-1.6 1.3-2.9 2.9-2.9z"/><path d="M141.3 217.8h-3V225.7h-1c0-.6.1-2.2.1-3V220v-2.3h-3v-.9c1.1 0 2.2.1 3.5.1s2.5 0 3.6-.1c-.1.4-.2.7-.2 1zM146.6 225.7c.1-.5.1-1.4.1-2.1v-1.5c0-.9-.4-1.4-1.2-1.4-.9.1-1.7.8-1.9 1.7v3.3h-1c0-.5.1-1.3.1-2.1V219c0-.8 0-1.5-.1-2.1.3 0 .7-.1 1-.1v4.4c.5-.8 1.3-1.3 2.1-1.3 1.1 0 1.8.7 1.8 2v3.8h-.9zM153.5 225.7l-.1-1.1c-.5.7-1.2 1.2-2.1 1.3-1.2 0-1.9-.6-1.9-2.1v-1.7c0-.7 0-1.5-.1-2.1h.9v3.6c0 1.1.4 1.6 1.3 1.6s1.8-.9 1.8-1.6v-1.5c0-.7 0-1.5-.1-2.1h1v3.6c0 .7 0 1.5.1 2.1h-.8zM158.9 220.9c-.9-.1-1.8.5-1.9 1.5V225.8h-1c0-.5.1-1.4.1-2.1V222c0-.6 0-1.3-.1-1.9.3 0 .6-.1.9-.1l.1 1.3c.4-.8 1.1-1.3 2-1.4l-.1 1zM163.5 220.4l-.3.8c-.4-.3-.9-.4-1.4-.4-.6 0-1.1.3-1.1.8 0 1.1 3 .9 3 2.6-.1 1.1-1 1.9-2.1 1.8h-.1c-.7 0-1.3-.2-1.9-.5l.1-.9c.5.4 1.2.6 1.8.6.7 0 1.3-.3 1.3-.9 0-1.2-3-.9-3-2.7.1-1 .9-1.7 1.9-1.6h.1c.7-.1 1.2.1 1.7.4z"/><path class="cost2" d="M130.8 138.1h36.7c1.6 0 2.9 1.3 2.9 2.9v18.4c0 1.6-1.3 2.9-2.9 2.9h-36.7c-1.6 0-2.9-1.3-2.9-2.9V141c-.1-1.5 1.2-2.9 2.9-2.9z"/><path class="cost1" d="M130.8 99.4h36.7c1.6 0 2.9 1.3 2.9 2.9v18.4c0 1.6-1.3 2.9-2.9 2.9h-36.7c-1.6 0-2.9-1.3-2.9-2.9v-18.4c-.1-1.6 1.2-2.9 2.9-2.9zM130.8 60.5h36.7c1.6 0 2.9 1.3 2.9 2.9v18.4c0 1.6-1.3 2.9-2.9 2.9h-36.7c-1.6 0-2.9-1.3-2.9-2.9V63.5c-.1-1.7 1.2-3 2.9-3z"/><path d="M210.6 217.7h-3.7v3.1h3.1v.8h-3.1v4.1h-1c0-.6.1-2.2.1-3V220c0-.8 0-2.4-.1-3.1.7 0 1.5.1 2.4.1s1.7 0 2.4-.1c-.1.3-.1.6-.1.8zM214.3 220.9c-.9-.1-1.8.5-1.9 1.5V225.8h-.9c.1-.5.1-1.4.1-2.1V222c0-.6 0-1.3-.1-1.9.3 0 .6-.1.9-.1l.1 1.3c.4-.8 1.1-1.3 2-1.4l-.2 1zM216.1 218.7c-.3 0-.6-.3-.6-.6s.2-.6.6-.6c.3 0 .6.3.6.6s-.3.5-.6.6zm-.5 7c.1-.5.1-1.3.1-2.1v-1.4c0-.7 0-1.6-.1-2.1h1V225.7h-1z"/><path class="cost2" d="M192 138.1h36.7c1.6 0 2.9 1.3 2.9 2.9v18.4c0 1.6-1.3 2.9-2.9 2.9H192c-1.6 0-2.9-1.3-2.9-2.9V141c-.1-1.5 1.3-2.9 2.9-2.9z"/><path class="cost1" d="M192 99.4h36.7c1.6 0 2.9 1.3 2.9 2.9v18.4c0 1.6-1.3 2.9-2.9 2.9H192c-1.6 0-2.9-1.3-2.9-2.9v-18.4c-.1-1.6 1.3-2.9 2.9-2.9zM192 60.5h36.7c1.6 0 2.9 1.3 2.9 2.9v18.4c0 1.6-1.3 2.9-2.9 2.9H192c-1.6 0-2.9-1.3-2.9-2.9V63.5c-.1-1.7 1.3-3 2.9-3z"/><path class="cost3" d="M47 53h307M47 92h307M47 130.5h307M47 169.5h307M47 208.5h307"/><linearGradient id="coSVGID_1_" gradientUnits="userSpaceOnUse" x1="249" y1="225.5" x2="352" y2="225.5" gradientTransform="matrix(1 0 0 -1 0 262)"><stop offset="0" stop-color="#e6e6e6"/><stop offset="1" stop-color="#4d4d4d"/></linearGradient><path class="cost4" d="M249 34h103v5H249z"/></symbol><symbol viewBox="0 0 24 24" id="icon--zoom--24"><g fill="none" stroke="currentColor" stroke-miterlimit="10"><path d="M9.5 9.5l-5-5M4.5 9V4.5H9"/></g><g fill="none" stroke="currentColor" stroke-miterlimit="10"><path d="M9.5 14.5l-5 5M9 19.5H4.5V15"/></g><g fill="none" stroke="currentColor" stroke-miterlimit="10"><path d="M14.5 14.5l5 5M19.5 15v4.5H15"/></g><g fill="none" stroke="currentColor" stroke-miterlimit="10"><path d="M14.5 9.5l5-5M15 4.5h4.5V9"/></g></symbol><symbol viewBox="0 0 24 24" id="icon--zoom-in--24" xmlns="http://www.w3.org/2000/svg"><circle cx="10.5" cy="10.5" r="5.5" fill="none" stroke="currentColor" stroke-linejoin="bevel" stroke-width="1.4"/><path fill="none" stroke="currentColor" stroke-linecap="square" stroke-linejoin="bevel" stroke-width="1.4" d="M14.5 14.5L19 19"/><path fill="currentColor" d="M10 8h1v5h-1z"/><path fill="currentColor" d="M13 10v1H8v-1z"/></symbol><symbol viewBox="0 0 24 24" id="icon--zoom-out--24" xmlns="http://www.w3.org/2000/svg"><circle cx="10.5" cy="10.5" r="5.5" fill="none" stroke="currentColor" stroke-linejoin="bevel" stroke-width="1.4"/><path fill="none" stroke="currentColor" stroke-linecap="square" stroke-linejoin="bevel" stroke-width="1.4" d="M14.5 14.5L19 19"/><path fill="currentColor" d="M13 10v1H8v-1z"/></symbol></svg>